<mxfile host="app.diagrams.net" modified="2023-03-14T06:05:50.248Z" agent="5.0 (Windows NT 10.0; Win64; x64) AppleWebKit/537.36 (KHTML, like Gecko) Chrome/110.0.0.0 Safari/537.36 Edg/110.0.1587.69" etag="nHYD7vSJyTG35LKroB8S" version="21.0.6" type="github" pages="2">
  <diagram id="C5RBs43oDa-KdzZeNtuy" name="OPD-IPD">
    <mxGraphModel dx="1386" dy="806" grid="1" gridSize="10" guides="1" tooltips="1" connect="1" arrows="1" fold="1" page="1" pageScale="1" pageWidth="827" pageHeight="1169" math="0" shadow="0">
      <root>
        <mxCell id="WIyWlLk6GJQsqaUBKTNV-0" />
        <mxCell id="WIyWlLk6GJQsqaUBKTNV-1" parent="WIyWlLk6GJQsqaUBKTNV-0" />
        <mxCell id="WIyWlLk6GJQsqaUBKTNV-2" value="" style="rounded=0;html=1;jettySize=auto;orthogonalLoop=1;fontSize=11;endArrow=block;endFill=0;endSize=8;strokeWidth=1;shadow=0;labelBackgroundColor=none;edgeStyle=orthogonalEdgeStyle;" parent="WIyWlLk6GJQsqaUBKTNV-1" source="WIyWlLk6GJQsqaUBKTNV-3" target="WIyWlLk6GJQsqaUBKTNV-6" edge="1">
          <mxGeometry relative="1" as="geometry" />
        </mxCell>
        <mxCell id="WIyWlLk6GJQsqaUBKTNV-3" value="ผู้ป่วยเข้ามารับบริการ" style="rounded=1;whiteSpace=wrap;html=1;fontSize=12;glass=0;strokeWidth=1;shadow=0;fontFamily=space mono;fontSource=https%3A%2F%2Ffonts.googleapis.com%2Fcss%3Ffamily%3Dspace%2Bmono;" parent="WIyWlLk6GJQsqaUBKTNV-1" vertex="1">
          <mxGeometry x="30" y="58" width="120" height="40" as="geometry" />
        </mxCell>
        <mxCell id="WIyWlLk6GJQsqaUBKTNV-4" value="No" style="rounded=0;html=1;jettySize=auto;orthogonalLoop=1;fontSize=11;endArrow=block;endFill=0;endSize=8;strokeWidth=1;shadow=0;labelBackgroundColor=none;edgeStyle=orthogonalEdgeStyle;fontFamily=space mono;fontSource=https%3A%2F%2Ffonts.googleapis.com%2Fcss%3Ffamily%3Dspace%2Bmono;exitX=0.5;exitY=1;exitDx=0;exitDy=0;" parent="WIyWlLk6GJQsqaUBKTNV-1" source="WIyWlLk6GJQsqaUBKTNV-6" target="WIyWlLk6GJQsqaUBKTNV-12" edge="1">
          <mxGeometry y="20" relative="1" as="geometry">
            <mxPoint as="offset" />
          </mxGeometry>
        </mxCell>
        <mxCell id="WIyWlLk6GJQsqaUBKTNV-5" value="Yes" style="edgeStyle=orthogonalEdgeStyle;rounded=0;html=1;jettySize=auto;orthogonalLoop=1;fontSize=11;endArrow=block;endFill=0;endSize=8;strokeWidth=1;shadow=0;labelBackgroundColor=none;fontFamily=space mono;fontSource=https%3A%2F%2Ffonts.googleapis.com%2Fcss%3Ffamily%3Dspace%2Bmono;" parent="WIyWlLk6GJQsqaUBKTNV-1" source="WIyWlLk6GJQsqaUBKTNV-6" target="WIyWlLk6GJQsqaUBKTNV-7" edge="1">
          <mxGeometry x="0.0065" y="10" relative="1" as="geometry">
            <mxPoint as="offset" />
          </mxGeometry>
        </mxCell>
        <mxCell id="WIyWlLk6GJQsqaUBKTNV-6" value="ผู้ป่วยเก่า?" style="rhombus;whiteSpace=wrap;html=1;shadow=0;fontFamily=space mono;fontSize=12;align=center;strokeWidth=1;spacing=6;spacingTop=-4;fontSource=https%3A%2F%2Ffonts.googleapis.com%2Fcss%3Ffamily%3Dspace%2Bmono;" parent="WIyWlLk6GJQsqaUBKTNV-1" vertex="1">
          <mxGeometry x="220" y="38" width="100" height="80" as="geometry" />
        </mxCell>
        <mxCell id="1RqYY2e8a6liGjpJobrj-1" style="edgeStyle=orthogonalEdgeStyle;rounded=0;orthogonalLoop=1;jettySize=auto;html=1;entryX=0.5;entryY=0;entryDx=0;entryDy=0;endArrow=block;endFill=0;" parent="WIyWlLk6GJQsqaUBKTNV-1" source="WIyWlLk6GJQsqaUBKTNV-7" target="1RqYY2e8a6liGjpJobrj-0" edge="1">
          <mxGeometry relative="1" as="geometry" />
        </mxCell>
        <mxCell id="WIyWlLk6GJQsqaUBKTNV-7" value="ST: หน้าห้องตรวจ&lt;br&gt;ค้นหาประวัติการรักษา&lt;br&gt;EMR, OPD Card" style="rounded=1;whiteSpace=wrap;html=1;fontSize=12;glass=0;strokeWidth=1;shadow=0;fontFamily=space mono;fontSource=https%3A%2F%2Ffonts.googleapis.com%2Fcss%3Ffamily%3Dspace%2Bmono;" parent="WIyWlLk6GJQsqaUBKTNV-1" vertex="1">
          <mxGeometry x="441" y="53" width="180" height="50" as="geometry" />
        </mxCell>
        <mxCell id="WIyWlLk6GJQsqaUBKTNV-12" value="ST: เวชระเบียนผู้ป่วย&lt;br&gt;เพิ่มประวัติผู้ป่วยใหม่&lt;br&gt;ตรวจสอบสิทธิการรักษา" style="rounded=1;whiteSpace=wrap;html=1;fontSize=12;glass=0;strokeWidth=1;shadow=0;fontFamily=space mono;fontSource=https%3A%2F%2Ffonts.googleapis.com%2Fcss%3Ffamily%3Dspace%2Bmono;" parent="WIyWlLk6GJQsqaUBKTNV-1" vertex="1">
          <mxGeometry x="180" y="228" width="180" height="50" as="geometry" />
        </mxCell>
        <mxCell id="1RqYY2e8a6liGjpJobrj-0" value="ST: _______&lt;br&gt;ตรวจสอบสิทธิการรักษา" style="rounded=1;whiteSpace=wrap;html=1;fontSize=12;glass=0;strokeWidth=1;shadow=0;fontFamily=space mono;fontSource=https%3A%2F%2Ffonts.googleapis.com%2Fcss%3Ffamily%3Dspace%2Bmono;" parent="WIyWlLk6GJQsqaUBKTNV-1" vertex="1">
          <mxGeometry x="441" y="148" width="180" height="40" as="geometry" />
        </mxCell>
        <mxCell id="1RqYY2e8a6liGjpJobrj-3" value="ST: หน้าห้องตรวจ&lt;br&gt;ซักประวัติ สอบถามอาการ วัด V/S (จัดลำดับคิวการเข้าห้องตรวจ)" style="rounded=1;whiteSpace=wrap;html=1;fontSize=12;glass=0;strokeWidth=1;shadow=0;fontFamily=space mono;fontSource=https%3A%2F%2Ffonts.googleapis.com%2Fcss%3Ffamily%3Dspace%2Bmono;" parent="WIyWlLk6GJQsqaUBKTNV-1" vertex="1">
          <mxGeometry x="441" y="228" width="180" height="50" as="geometry" />
        </mxCell>
        <mxCell id="1RqYY2e8a6liGjpJobrj-6" style="edgeStyle=orthogonalEdgeStyle;rounded=0;orthogonalLoop=1;jettySize=auto;html=1;entryX=0.5;entryY=0;entryDx=0;entryDy=0;endArrow=block;endFill=0;exitX=0.5;exitY=1;exitDx=0;exitDy=0;" parent="WIyWlLk6GJQsqaUBKTNV-1" source="1RqYY2e8a6liGjpJobrj-0" target="1RqYY2e8a6liGjpJobrj-3" edge="1">
          <mxGeometry relative="1" as="geometry">
            <mxPoint x="541" y="113" as="sourcePoint" />
            <mxPoint x="541" y="158" as="targetPoint" />
          </mxGeometry>
        </mxCell>
        <mxCell id="1RqYY2e8a6liGjpJobrj-7" value="ST: ห้องตรวจแพทย์&lt;br&gt;ซักประวัติ สอบถามอาการ &lt;br&gt;เรียกดูประวัติการรักษา วินิจฉัย" style="rounded=1;whiteSpace=wrap;html=1;fontSize=12;glass=0;strokeWidth=1;shadow=0;fontFamily=space mono;fontSource=https%3A%2F%2Ffonts.googleapis.com%2Fcss%3Ffamily%3Dspace%2Bmono;" parent="WIyWlLk6GJQsqaUBKTNV-1" vertex="1">
          <mxGeometry x="690" y="373" width="180" height="50" as="geometry" />
        </mxCell>
        <mxCell id="1RqYY2e8a6liGjpJobrj-8" value="Order LAB?" style="rhombus;whiteSpace=wrap;html=1;shadow=0;fontFamily=space mono;fontSize=12;align=center;strokeWidth=1;spacing=6;spacingTop=-4;fontSource=https%3A%2F%2Ffonts.googleapis.com%2Fcss%3Ffamily%3Dspace%2Bmono;" parent="WIyWlLk6GJQsqaUBKTNV-1" vertex="1">
          <mxGeometry x="697" y="470" width="166" height="60" as="geometry" />
        </mxCell>
        <mxCell id="1RqYY2e8a6liGjpJobrj-9" value="Order X-ray?" style="rhombus;whiteSpace=wrap;html=1;shadow=0;fontFamily=space mono;fontSize=12;align=center;strokeWidth=1;spacing=6;spacingTop=-4;fontSource=https%3A%2F%2Ffonts.googleapis.com%2Fcss%3Ffamily%3Dspace%2Bmono;" parent="WIyWlLk6GJQsqaUBKTNV-1" vertex="1">
          <mxGeometry x="697" y="570" width="166" height="60" as="geometry" />
        </mxCell>
        <mxCell id="1RqYY2e8a6liGjpJobrj-10" value="Order หัตถการ?" style="rhombus;whiteSpace=wrap;html=1;shadow=0;fontFamily=space mono;fontSize=12;align=center;strokeWidth=1;spacing=6;spacingTop=-4;fontSource=https%3A%2F%2Ffonts.googleapis.com%2Fcss%3Ffamily%3Dspace%2Bmono;" parent="WIyWlLk6GJQsqaUBKTNV-1" vertex="1">
          <mxGeometry x="697" y="672" width="166" height="60" as="geometry" />
        </mxCell>
        <mxCell id="1RqYY2e8a6liGjpJobrj-11" style="edgeStyle=orthogonalEdgeStyle;rounded=0;orthogonalLoop=1;jettySize=auto;html=1;endArrow=block;endFill=0;exitX=0.5;exitY=1;exitDx=0;exitDy=0;entryX=0.5;entryY=0;entryDx=0;entryDy=0;entryPerimeter=0;" parent="WIyWlLk6GJQsqaUBKTNV-1" source="1RqYY2e8a6liGjpJobrj-3" target="qahBIfakXGSAEwPWHKox-19" edge="1">
          <mxGeometry relative="1" as="geometry">
            <mxPoint x="541" y="198" as="sourcePoint" />
            <mxPoint x="530" y="318" as="targetPoint" />
          </mxGeometry>
        </mxCell>
        <mxCell id="1RqYY2e8a6liGjpJobrj-12" value="Order ยา?" style="rhombus;whiteSpace=wrap;html=1;shadow=0;fontFamily=space mono;fontSize=12;align=center;strokeWidth=1;spacing=6;spacingTop=-4;fontSource=https%3A%2F%2Ffonts.googleapis.com%2Fcss%3Ffamily%3Dspace%2Bmono;" parent="WIyWlLk6GJQsqaUBKTNV-1" vertex="1">
          <mxGeometry x="697" y="772" width="166" height="60" as="geometry" />
        </mxCell>
        <mxCell id="1RqYY2e8a6liGjpJobrj-13" style="edgeStyle=orthogonalEdgeStyle;rounded=0;orthogonalLoop=1;jettySize=auto;html=1;entryX=0.5;entryY=0;entryDx=0;entryDy=0;endArrow=block;endFill=0;exitX=0.5;exitY=1;exitDx=0;exitDy=0;" parent="WIyWlLk6GJQsqaUBKTNV-1" source="1RqYY2e8a6liGjpJobrj-7" target="1RqYY2e8a6liGjpJobrj-8" edge="1">
          <mxGeometry relative="1" as="geometry">
            <mxPoint x="777" y="423" as="sourcePoint" />
            <mxPoint x="790" y="383" as="targetPoint" />
          </mxGeometry>
        </mxCell>
        <mxCell id="1RqYY2e8a6liGjpJobrj-14" value="No" style="rounded=0;html=1;jettySize=auto;orthogonalLoop=1;fontSize=11;endArrow=block;endFill=0;endSize=8;strokeWidth=1;shadow=0;labelBackgroundColor=none;edgeStyle=orthogonalEdgeStyle;fontFamily=space mono;fontSource=https%3A%2F%2Ffonts.googleapis.com%2Fcss%3Ffamily%3Dspace%2Bmono;exitX=0.5;exitY=1;exitDx=0;exitDy=0;entryX=0.5;entryY=0;entryDx=0;entryDy=0;" parent="WIyWlLk6GJQsqaUBKTNV-1" source="1RqYY2e8a6liGjpJobrj-8" target="1RqYY2e8a6liGjpJobrj-9" edge="1">
          <mxGeometry y="13" relative="1" as="geometry">
            <mxPoint as="offset" />
            <mxPoint x="776.71" y="390" as="sourcePoint" />
            <mxPoint x="776.71" y="500" as="targetPoint" />
          </mxGeometry>
        </mxCell>
        <mxCell id="1RqYY2e8a6liGjpJobrj-15" value="No" style="rounded=0;html=1;jettySize=auto;orthogonalLoop=1;fontSize=11;endArrow=block;endFill=0;endSize=8;strokeWidth=1;shadow=0;labelBackgroundColor=none;edgeStyle=orthogonalEdgeStyle;fontFamily=space mono;fontSource=https%3A%2F%2Ffonts.googleapis.com%2Fcss%3Ffamily%3Dspace%2Bmono;entryX=0.5;entryY=0;entryDx=0;entryDy=0;exitX=0.5;exitY=1;exitDx=0;exitDy=0;" parent="WIyWlLk6GJQsqaUBKTNV-1" source="1RqYY2e8a6liGjpJobrj-9" target="1RqYY2e8a6liGjpJobrj-10" edge="1">
          <mxGeometry y="13" relative="1" as="geometry">
            <mxPoint as="offset" />
            <mxPoint x="777" y="630" as="sourcePoint" />
            <mxPoint x="787" y="580" as="targetPoint" />
          </mxGeometry>
        </mxCell>
        <mxCell id="1RqYY2e8a6liGjpJobrj-16" value="No" style="rounded=0;html=1;jettySize=auto;orthogonalLoop=1;fontSize=11;endArrow=block;endFill=0;endSize=8;strokeWidth=1;shadow=0;labelBackgroundColor=none;edgeStyle=orthogonalEdgeStyle;fontFamily=space mono;fontSource=https%3A%2F%2Ffonts.googleapis.com%2Fcss%3Ffamily%3Dspace%2Bmono;entryX=0.5;entryY=0;entryDx=0;entryDy=0;exitX=0.5;exitY=1;exitDx=0;exitDy=0;" parent="WIyWlLk6GJQsqaUBKTNV-1" source="1RqYY2e8a6liGjpJobrj-10" target="1RqYY2e8a6liGjpJobrj-12" edge="1">
          <mxGeometry y="13" relative="1" as="geometry">
            <mxPoint as="offset" />
            <mxPoint x="787" y="642" as="sourcePoint" />
            <mxPoint x="780" y="762" as="targetPoint" />
          </mxGeometry>
        </mxCell>
        <mxCell id="1RqYY2e8a6liGjpJobrj-18" style="edgeStyle=orthogonalEdgeStyle;rounded=0;orthogonalLoop=1;jettySize=auto;html=1;entryX=0;entryY=0.5;entryDx=0;entryDy=0;endArrow=block;endFill=0;exitX=1;exitY=0.5;exitDx=0;exitDy=0;" parent="WIyWlLk6GJQsqaUBKTNV-1" source="WIyWlLk6GJQsqaUBKTNV-12" target="1RqYY2e8a6liGjpJobrj-3" edge="1">
          <mxGeometry relative="1" as="geometry">
            <mxPoint x="510" y="198" as="sourcePoint" />
            <mxPoint x="510" y="238" as="targetPoint" />
          </mxGeometry>
        </mxCell>
        <mxCell id="1RqYY2e8a6liGjpJobrj-19" value="ST: ห้องตรวจแพทย์&lt;br&gt;บันทึกรายการตรวจเบื้องต้น,&lt;br&gt;Order list ที่ต้องการ" style="rounded=1;whiteSpace=wrap;html=1;fontSize=12;glass=0;strokeWidth=1;shadow=0;fontFamily=space mono;fontSource=https%3A%2F%2Ffonts.googleapis.com%2Fcss%3Ffamily%3Dspace%2Bmono;" parent="WIyWlLk6GJQsqaUBKTNV-1" vertex="1">
          <mxGeometry x="1059" y="475" width="180" height="50" as="geometry" />
        </mxCell>
        <mxCell id="1RqYY2e8a6liGjpJobrj-24" value="&lt;font data-font-src=&quot;https://fonts.googleapis.com/css?family=space+mono&quot; face=&quot;space mono&quot;&gt;2&lt;/font&gt;" style="strokeWidth=2;html=1;shape=mxgraph.flowchart.start_2;whiteSpace=wrap;" parent="WIyWlLk6GJQsqaUBKTNV-1" vertex="1">
          <mxGeometry x="960" y="480" width="40" height="40" as="geometry" />
        </mxCell>
        <mxCell id="1RqYY2e8a6liGjpJobrj-25" style="edgeStyle=orthogonalEdgeStyle;rounded=0;orthogonalLoop=1;jettySize=auto;html=1;endArrow=block;endFill=0;entryX=0;entryY=0.5;entryDx=0;entryDy=0;exitX=1;exitY=0.5;exitDx=0;exitDy=0;exitPerimeter=0;" parent="WIyWlLk6GJQsqaUBKTNV-1" source="1RqYY2e8a6liGjpJobrj-24" target="1RqYY2e8a6liGjpJobrj-19" edge="1">
          <mxGeometry relative="1" as="geometry">
            <mxPoint x="1029" y="500" as="sourcePoint" />
            <mxPoint x="979" y="355" as="targetPoint" />
          </mxGeometry>
        </mxCell>
        <mxCell id="1RqYY2e8a6liGjpJobrj-26" value="Yes" style="edgeStyle=orthogonalEdgeStyle;rounded=0;html=1;jettySize=auto;orthogonalLoop=1;fontSize=11;endArrow=block;endFill=0;endSize=8;strokeWidth=1;shadow=0;labelBackgroundColor=none;fontFamily=space mono;fontSource=https%3A%2F%2Ffonts.googleapis.com%2Fcss%3Ffamily%3Dspace%2Bmono;exitX=1;exitY=0.5;exitDx=0;exitDy=0;entryX=0;entryY=0.5;entryDx=0;entryDy=0;entryPerimeter=0;" parent="WIyWlLk6GJQsqaUBKTNV-1" source="1RqYY2e8a6liGjpJobrj-8" target="1RqYY2e8a6liGjpJobrj-24" edge="1">
          <mxGeometry x="-0.4679" y="10" relative="1" as="geometry">
            <mxPoint as="offset" />
            <mxPoint x="879" y="390" as="sourcePoint" />
            <mxPoint x="939" y="370" as="targetPoint" />
          </mxGeometry>
        </mxCell>
        <mxCell id="1RqYY2e8a6liGjpJobrj-27" value="Yes" style="edgeStyle=orthogonalEdgeStyle;rounded=0;html=1;jettySize=auto;orthogonalLoop=1;fontSize=11;endArrow=block;endFill=0;endSize=8;strokeWidth=1;shadow=0;labelBackgroundColor=none;fontFamily=space mono;fontSource=https%3A%2F%2Ffonts.googleapis.com%2Fcss%3Ffamily%3Dspace%2Bmono;entryX=0;entryY=0.5;entryDx=0;entryDy=0;entryPerimeter=0;" parent="WIyWlLk6GJQsqaUBKTNV-1" source="1RqYY2e8a6liGjpJobrj-9" target="1RqYY2e8a6liGjpJobrj-24" edge="1">
          <mxGeometry x="-0.7225" y="10" relative="1" as="geometry">
            <mxPoint as="offset" />
            <mxPoint x="870" y="510" as="sourcePoint" />
            <mxPoint x="979" y="510" as="targetPoint" />
          </mxGeometry>
        </mxCell>
        <mxCell id="1RqYY2e8a6liGjpJobrj-28" value="Yes" style="edgeStyle=orthogonalEdgeStyle;rounded=0;html=1;jettySize=auto;orthogonalLoop=1;fontSize=11;endArrow=block;endFill=0;endSize=8;strokeWidth=1;shadow=0;labelBackgroundColor=none;fontFamily=space mono;fontSource=https%3A%2F%2Ffonts.googleapis.com%2Fcss%3Ffamily%3Dspace%2Bmono;entryX=0;entryY=0.5;entryDx=0;entryDy=0;entryPerimeter=0;exitX=1;exitY=0.5;exitDx=0;exitDy=0;" parent="WIyWlLk6GJQsqaUBKTNV-1" source="1RqYY2e8a6liGjpJobrj-10" target="1RqYY2e8a6liGjpJobrj-24" edge="1">
          <mxGeometry x="-0.8123" y="10" relative="1" as="geometry">
            <mxPoint as="offset" />
            <mxPoint x="870" y="610" as="sourcePoint" />
            <mxPoint x="979" y="510" as="targetPoint" />
          </mxGeometry>
        </mxCell>
        <mxCell id="1RqYY2e8a6liGjpJobrj-29" value="Yes" style="edgeStyle=orthogonalEdgeStyle;rounded=0;html=1;jettySize=auto;orthogonalLoop=1;fontSize=11;endArrow=block;endFill=0;endSize=8;strokeWidth=1;shadow=0;labelBackgroundColor=none;fontFamily=space mono;fontSource=https%3A%2F%2Ffonts.googleapis.com%2Fcss%3Ffamily%3Dspace%2Bmono;entryX=0;entryY=0.5;entryDx=0;entryDy=0;entryPerimeter=0;exitX=1;exitY=0.5;exitDx=0;exitDy=0;" parent="WIyWlLk6GJQsqaUBKTNV-1" source="1RqYY2e8a6liGjpJobrj-12" target="1RqYY2e8a6liGjpJobrj-24" edge="1">
          <mxGeometry x="-0.8582" y="10" relative="1" as="geometry">
            <mxPoint as="offset" />
            <mxPoint x="870" y="710" as="sourcePoint" />
            <mxPoint x="979" y="510" as="targetPoint" />
          </mxGeometry>
        </mxCell>
        <mxCell id="1RqYY2e8a6liGjpJobrj-31" value="ST: ห้องตรวจแพทย์&lt;br&gt;ส่งออกจากห้องตรวจฯ พร้อมสถานะ.." style="rounded=1;whiteSpace=wrap;html=1;fontSize=12;glass=0;strokeWidth=1;shadow=0;fontFamily=space mono;fontSource=https%3A%2F%2Ffonts.googleapis.com%2Fcss%3Ffamily%3Dspace%2Bmono;" parent="WIyWlLk6GJQsqaUBKTNV-1" vertex="1">
          <mxGeometry x="1049.5" y="565" width="199" height="50" as="geometry" />
        </mxCell>
        <mxCell id="1RqYY2e8a6liGjpJobrj-32" value="No" style="rounded=0;html=1;jettySize=auto;orthogonalLoop=1;fontSize=11;endArrow=block;endFill=0;endSize=8;strokeWidth=1;shadow=0;labelBackgroundColor=none;fontFamily=space mono;fontSource=https%3A%2F%2Ffonts.googleapis.com%2Fcss%3Ffamily%3Dspace%2Bmono;exitX=0.5;exitY=1;exitDx=0;exitDy=0;entryX=0.5;entryY=1;entryDx=0;entryDy=0;edgeStyle=orthogonalEdgeStyle;entryPerimeter=0;" parent="WIyWlLk6GJQsqaUBKTNV-1" source="1RqYY2e8a6liGjpJobrj-12" target="yvNfWJmXIzpKwHx-HULG-0" edge="1">
          <mxGeometry y="13" relative="1" as="geometry">
            <mxPoint as="offset" />
            <mxPoint x="779" y="842" as="sourcePoint" />
            <mxPoint x="780" y="882" as="targetPoint" />
          </mxGeometry>
        </mxCell>
        <mxCell id="1RqYY2e8a6liGjpJobrj-34" style="edgeStyle=orthogonalEdgeStyle;rounded=0;orthogonalLoop=1;jettySize=auto;html=1;endArrow=block;endFill=0;entryX=0.5;entryY=0;entryDx=0;entryDy=0;exitX=0.5;exitY=1;exitDx=0;exitDy=0;entryPerimeter=0;" parent="WIyWlLk6GJQsqaUBKTNV-1" source="1RqYY2e8a6liGjpJobrj-19" target="yvNfWJmXIzpKwHx-HULG-0" edge="1">
          <mxGeometry relative="1" as="geometry">
            <mxPoint x="621" y="510" as="sourcePoint" />
            <mxPoint x="651" y="510" as="targetPoint" />
          </mxGeometry>
        </mxCell>
        <mxCell id="1RqYY2e8a6liGjpJobrj-35" value="สถานะ:&lt;br&gt;ผู้ป่วย&lt;span style=&quot;background-color: rgb(255, 204, 230);&quot;&gt;&lt;font color=&quot;#000000&quot;&gt;ส่งตรวจรอผล&lt;/font&gt;&lt;/span&gt;" style="rhombus;whiteSpace=wrap;html=1;shadow=0;fontFamily=space mono;fontSize=12;align=center;strokeWidth=1;spacing=6;spacingTop=-4;fontSource=https%3A%2F%2Ffonts.googleapis.com%2Fcss%3Ffamily%3Dspace%2Bmono;" parent="WIyWlLk6GJQsqaUBKTNV-1" vertex="1">
          <mxGeometry x="1066" y="650" width="166" height="60" as="geometry" />
        </mxCell>
        <mxCell id="1RqYY2e8a6liGjpJobrj-36" value="สถานะ:&lt;br&gt;ผู้ป่วยส่ง&lt;font style=&quot;background-color: rgb(230, 255, 204);&quot; color=&quot;#000000&quot;&gt;ทำหัตถการ&lt;/font&gt;" style="rhombus;whiteSpace=wrap;html=1;shadow=0;fontFamily=space mono;fontSize=12;align=center;strokeWidth=1;spacing=6;spacingTop=-4;fontSource=https%3A%2F%2Ffonts.googleapis.com%2Fcss%3Ffamily%3Dspace%2Bmono;" parent="WIyWlLk6GJQsqaUBKTNV-1" vertex="1">
          <mxGeometry x="1066" y="750" width="166" height="60" as="geometry" />
        </mxCell>
        <mxCell id="1RqYY2e8a6liGjpJobrj-41" style="edgeStyle=orthogonalEdgeStyle;rounded=0;orthogonalLoop=1;jettySize=auto;html=1;endArrow=block;endFill=0;entryX=0.5;entryY=0;entryDx=0;entryDy=0;exitX=0.5;exitY=1;exitDx=0;exitDy=0;" parent="WIyWlLk6GJQsqaUBKTNV-1" source="1RqYY2e8a6liGjpJobrj-31" target="1RqYY2e8a6liGjpJobrj-35" edge="1">
          <mxGeometry relative="1" as="geometry">
            <mxPoint x="1149" y="620" as="sourcePoint" />
            <mxPoint x="1159" y="575" as="targetPoint" />
          </mxGeometry>
        </mxCell>
        <mxCell id="1RqYY2e8a6liGjpJobrj-42" value="สถานะ:&lt;br&gt;ผู้ป่วยส่ง &lt;font style=&quot;background-color: rgb(204, 255, 255);&quot; color=&quot;#000000&quot;&gt;Consult&lt;/font&gt;" style="rhombus;whiteSpace=wrap;html=1;shadow=0;fontFamily=space mono;fontSize=12;align=center;strokeWidth=1;spacing=6;spacingTop=-4;fontSource=https%3A%2F%2Ffonts.googleapis.com%2Fcss%3Ffamily%3Dspace%2Bmono;" parent="WIyWlLk6GJQsqaUBKTNV-1" vertex="1">
          <mxGeometry x="1066" y="850" width="166" height="60" as="geometry" />
        </mxCell>
        <mxCell id="1RqYY2e8a6liGjpJobrj-45" value="ST: หน้าห้องตรวจ&lt;br&gt;รคส.แพทย์, เก็บ Specimen,&lt;br&gt;ส่งต่อ ST (LAB, X-Ray)" style="rounded=1;whiteSpace=wrap;html=1;fontSize=12;glass=0;strokeWidth=1;shadow=0;fontFamily=space mono;fontSource=https%3A%2F%2Ffonts.googleapis.com%2Fcss%3Ffamily%3Dspace%2Bmono;" parent="WIyWlLk6GJQsqaUBKTNV-1" vertex="1">
          <mxGeometry x="1328" y="653.75" width="200" height="52.5" as="geometry" />
        </mxCell>
        <mxCell id="1RqYY2e8a6liGjpJobrj-46" value="ST: หน้าห้องตรวจ&lt;br&gt;รคส.แพทย์, เก็บ Specimen,&lt;br&gt;ส่งต่อ ST (OPD, OR, ER, ...)" style="rounded=1;whiteSpace=wrap;html=1;fontSize=12;glass=0;strokeWidth=1;shadow=0;fontFamily=space mono;fontSource=https%3A%2F%2Ffonts.googleapis.com%2Fcss%3Ffamily%3Dspace%2Bmono;" parent="WIyWlLk6GJQsqaUBKTNV-1" vertex="1">
          <mxGeometry x="1328" y="753.75" width="200" height="52.5" as="geometry" />
        </mxCell>
        <mxCell id="1RqYY2e8a6liGjpJobrj-47" value="ST: หน้าห้องตรวจ&lt;br&gt;จัดคิวผู้ป่วยเข้าห้องแพทย์ที่ Consult" style="rounded=1;whiteSpace=wrap;html=1;fontSize=12;glass=0;strokeWidth=1;shadow=0;fontFamily=space mono;fontSource=https%3A%2F%2Ffonts.googleapis.com%2Fcss%3Ffamily%3Dspace%2Bmono;" parent="WIyWlLk6GJQsqaUBKTNV-1" vertex="1">
          <mxGeometry x="1328" y="853.75" width="200" height="52.5" as="geometry" />
        </mxCell>
        <mxCell id="1RqYY2e8a6liGjpJobrj-48" value="ST: หน้าห้องตรวจ&lt;br&gt;ตรวจสอบคำสั่งแพทย์ว่ามีเพียง ยาหรือค่าใช้จ่ายที่ต้องออกใบเสร็จฯ เท่านั้น" style="rounded=1;whiteSpace=wrap;html=1;fontSize=12;glass=0;strokeWidth=1;shadow=0;fontFamily=space mono;fontSource=https%3A%2F%2Ffonts.googleapis.com%2Fcss%3Ffamily%3Dspace%2Bmono;" parent="WIyWlLk6GJQsqaUBKTNV-1" vertex="1">
          <mxGeometry x="1287" y="1176.75" width="200" height="52.5" as="geometry" />
        </mxCell>
        <mxCell id="1RqYY2e8a6liGjpJobrj-49" value="No" style="rounded=0;html=1;jettySize=auto;orthogonalLoop=1;fontSize=11;endArrow=block;endFill=0;endSize=8;strokeWidth=1;shadow=0;labelBackgroundColor=none;fontFamily=space mono;fontSource=https%3A%2F%2Ffonts.googleapis.com%2Fcss%3Ffamily%3Dspace%2Bmono;exitX=0.5;exitY=1;exitDx=0;exitDy=0;entryX=0.5;entryY=0;entryDx=0;entryDy=0;edgeStyle=orthogonalEdgeStyle;" parent="WIyWlLk6GJQsqaUBKTNV-1" source="1RqYY2e8a6liGjpJobrj-36" target="1RqYY2e8a6liGjpJobrj-42" edge="1">
          <mxGeometry y="13" relative="1" as="geometry">
            <mxPoint as="offset" />
            <mxPoint x="816" y="840" as="sourcePoint" />
            <mxPoint x="816" y="890" as="targetPoint" />
          </mxGeometry>
        </mxCell>
        <mxCell id="1RqYY2e8a6liGjpJobrj-50" value="No" style="rounded=0;html=1;jettySize=auto;orthogonalLoop=1;fontSize=11;endArrow=block;endFill=0;endSize=8;strokeWidth=1;shadow=0;labelBackgroundColor=none;fontFamily=space mono;fontSource=https%3A%2F%2Ffonts.googleapis.com%2Fcss%3Ffamily%3Dspace%2Bmono;exitX=0.5;exitY=1;exitDx=0;exitDy=0;edgeStyle=orthogonalEdgeStyle;entryX=0.5;entryY=0;entryDx=0;entryDy=0;" parent="WIyWlLk6GJQsqaUBKTNV-1" source="1RqYY2e8a6liGjpJobrj-35" target="1RqYY2e8a6liGjpJobrj-36" edge="1">
          <mxGeometry y="9" relative="1" as="geometry">
            <mxPoint as="offset" />
            <mxPoint x="1159" y="820" as="sourcePoint" />
            <mxPoint x="1149" y="750" as="targetPoint" />
          </mxGeometry>
        </mxCell>
        <mxCell id="1RqYY2e8a6liGjpJobrj-51" value="No" style="rounded=0;html=1;jettySize=auto;orthogonalLoop=1;fontSize=11;endArrow=block;endFill=0;endSize=8;strokeWidth=1;shadow=0;labelBackgroundColor=none;fontFamily=space mono;fontSource=https%3A%2F%2Ffonts.googleapis.com%2Fcss%3Ffamily%3Dspace%2Bmono;edgeStyle=orthogonalEdgeStyle;exitX=0.5;exitY=1;exitDx=0;exitDy=0;entryX=0.5;entryY=0;entryDx=0;entryDy=0;" parent="WIyWlLk6GJQsqaUBKTNV-1" source="1RqYY2e8a6liGjpJobrj-42" target="yvNfWJmXIzpKwHx-HULG-2" edge="1">
          <mxGeometry y="13" relative="1" as="geometry">
            <mxPoint as="offset" />
            <mxPoint x="1148" y="910" as="sourcePoint" />
            <mxPoint x="1148.9999999999998" y="950" as="targetPoint" />
          </mxGeometry>
        </mxCell>
        <mxCell id="1RqYY2e8a6liGjpJobrj-52" value="Yes" style="edgeStyle=orthogonalEdgeStyle;rounded=0;html=1;jettySize=auto;orthogonalLoop=1;fontSize=11;endArrow=block;endFill=0;endSize=8;strokeWidth=1;shadow=0;labelBackgroundColor=none;fontFamily=space mono;fontSource=https%3A%2F%2Ffonts.googleapis.com%2Fcss%3Ffamily%3Dspace%2Bmono;exitX=1;exitY=0.5;exitDx=0;exitDy=0;entryX=0;entryY=0.5;entryDx=0;entryDy=0;" parent="WIyWlLk6GJQsqaUBKTNV-1" source="1RqYY2e8a6liGjpJobrj-35" target="1RqYY2e8a6liGjpJobrj-45" edge="1">
          <mxGeometry x="-0.0417" y="10" relative="1" as="geometry">
            <mxPoint as="offset" />
            <mxPoint x="899" y="510" as="sourcePoint" />
            <mxPoint x="999" y="510" as="targetPoint" />
          </mxGeometry>
        </mxCell>
        <mxCell id="1RqYY2e8a6liGjpJobrj-54" value="Yes" style="edgeStyle=orthogonalEdgeStyle;rounded=0;html=1;jettySize=auto;orthogonalLoop=1;fontSize=11;endArrow=block;endFill=0;endSize=8;strokeWidth=1;shadow=0;labelBackgroundColor=none;fontFamily=space mono;fontSource=https%3A%2F%2Ffonts.googleapis.com%2Fcss%3Ffamily%3Dspace%2Bmono;exitX=1;exitY=0.5;exitDx=0;exitDy=0;entryX=0;entryY=0.5;entryDx=0;entryDy=0;" parent="WIyWlLk6GJQsqaUBKTNV-1" source="1RqYY2e8a6liGjpJobrj-36" target="1RqYY2e8a6liGjpJobrj-46" edge="1">
          <mxGeometry x="-0.0417" y="10" relative="1" as="geometry">
            <mxPoint as="offset" />
            <mxPoint x="1242" y="690" as="sourcePoint" />
            <mxPoint x="1318" y="780" as="targetPoint" />
          </mxGeometry>
        </mxCell>
        <mxCell id="1RqYY2e8a6liGjpJobrj-55" value="Yes" style="edgeStyle=orthogonalEdgeStyle;rounded=0;html=1;jettySize=auto;orthogonalLoop=1;fontSize=11;endArrow=block;endFill=0;endSize=8;strokeWidth=1;shadow=0;labelBackgroundColor=none;fontFamily=space mono;fontSource=https%3A%2F%2Ffonts.googleapis.com%2Fcss%3Ffamily%3Dspace%2Bmono;entryX=0;entryY=0.5;entryDx=0;entryDy=0;" parent="WIyWlLk6GJQsqaUBKTNV-1" source="1RqYY2e8a6liGjpJobrj-42" target="1RqYY2e8a6liGjpJobrj-47" edge="1">
          <mxGeometry x="-0.0417" y="10" relative="1" as="geometry">
            <mxPoint as="offset" />
            <mxPoint x="1242" y="790" as="sourcePoint" />
            <mxPoint x="1328" y="880" as="targetPoint" />
          </mxGeometry>
        </mxCell>
        <mxCell id="1RqYY2e8a6liGjpJobrj-57" value="" style="edgeStyle=orthogonalEdgeStyle;rounded=0;html=1;jettySize=auto;orthogonalLoop=1;fontSize=11;endArrow=block;endFill=0;endSize=8;strokeWidth=1;shadow=0;labelBackgroundColor=none;fontFamily=space mono;fontSource=https%3A%2F%2Ffonts.googleapis.com%2Fcss%3Ffamily%3Dspace%2Bmono;entryX=0;entryY=0.5;entryDx=0;entryDy=0;exitX=1;exitY=0.5;exitDx=0;exitDy=0;" parent="WIyWlLk6GJQsqaUBKTNV-1" source="qahBIfakXGSAEwPWHKox-28" target="1RqYY2e8a6liGjpJobrj-48" edge="1">
          <mxGeometry x="-0.0417" y="10" relative="1" as="geometry">
            <mxPoint as="offset" />
            <mxPoint x="1230.9999999999998" y="1203" as="sourcePoint" />
            <mxPoint x="1337" y="1113" as="targetPoint" />
          </mxGeometry>
        </mxCell>
        <mxCell id="1RqYY2e8a6liGjpJobrj-58" style="edgeStyle=orthogonalEdgeStyle;rounded=0;orthogonalLoop=1;jettySize=auto;html=1;endArrow=block;endFill=0;entryX=0.5;entryY=0;entryDx=0;entryDy=0;exitX=0.5;exitY=1;exitDx=0;exitDy=0;dashed=1;" parent="WIyWlLk6GJQsqaUBKTNV-1" source="1RqYY2e8a6liGjpJobrj-45" target="1RqYY2e8a6liGjpJobrj-46" edge="1">
          <mxGeometry relative="1" as="geometry">
            <mxPoint x="1159" y="625" as="sourcePoint" />
            <mxPoint x="1159" y="660" as="targetPoint" />
            <Array as="points">
              <mxPoint x="1428" y="730" />
              <mxPoint x="1428" y="730" />
            </Array>
          </mxGeometry>
        </mxCell>
        <mxCell id="1RqYY2e8a6liGjpJobrj-63" value="What if" style="edgeLabel;html=1;align=center;verticalAlign=middle;resizable=0;points=[];fontFamily=space mono;fontSource=https%3A%2F%2Ffonts.googleapis.com%2Fcss%3Ffamily%3Dspace%2Bmono;" parent="1RqYY2e8a6liGjpJobrj-58" vertex="1" connectable="0">
          <mxGeometry x="0.288" y="-1" relative="1" as="geometry">
            <mxPoint x="31" y="-7" as="offset" />
          </mxGeometry>
        </mxCell>
        <mxCell id="1RqYY2e8a6liGjpJobrj-64" style="edgeStyle=orthogonalEdgeStyle;rounded=0;orthogonalLoop=1;jettySize=auto;html=1;endArrow=block;endFill=0;entryX=0.5;entryY=0;entryDx=0;entryDy=0;exitX=0.5;exitY=1;exitDx=0;exitDy=0;dashed=1;" parent="WIyWlLk6GJQsqaUBKTNV-1" source="1RqYY2e8a6liGjpJobrj-46" target="1RqYY2e8a6liGjpJobrj-47" edge="1">
          <mxGeometry relative="1" as="geometry">
            <mxPoint x="1438" y="716" as="sourcePoint" />
            <mxPoint x="1438" y="764" as="targetPoint" />
            <Array as="points">
              <mxPoint x="1428" y="830" />
              <mxPoint x="1428" y="830" />
            </Array>
          </mxGeometry>
        </mxCell>
        <mxCell id="1RqYY2e8a6liGjpJobrj-65" value="What if" style="edgeLabel;html=1;align=center;verticalAlign=middle;resizable=0;points=[];fontFamily=space mono;fontSource=https%3A%2F%2Ffonts.googleapis.com%2Fcss%3Ffamily%3Dspace%2Bmono;" parent="1RqYY2e8a6liGjpJobrj-64" vertex="1" connectable="0">
          <mxGeometry x="0.288" y="-1" relative="1" as="geometry">
            <mxPoint x="31" y="-7" as="offset" />
          </mxGeometry>
        </mxCell>
        <mxCell id="1RqYY2e8a6liGjpJobrj-66" style="edgeStyle=orthogonalEdgeStyle;rounded=0;orthogonalLoop=1;jettySize=auto;html=1;endArrow=block;endFill=0;entryX=0.5;entryY=0;entryDx=0;entryDy=0;exitX=0.5;exitY=1;exitDx=0;exitDy=0;dashed=1;" parent="WIyWlLk6GJQsqaUBKTNV-1" source="1RqYY2e8a6liGjpJobrj-47" target="yvNfWJmXIzpKwHx-HULG-3" edge="1">
          <mxGeometry relative="1" as="geometry">
            <mxPoint x="1438" y="716" as="sourcePoint" />
            <mxPoint x="1438" y="764" as="targetPoint" />
            <Array as="points" />
          </mxGeometry>
        </mxCell>
        <mxCell id="1RqYY2e8a6liGjpJobrj-67" value="What if" style="edgeLabel;html=1;align=center;verticalAlign=middle;resizable=0;points=[];fontFamily=space mono;fontSource=https%3A%2F%2Ffonts.googleapis.com%2Fcss%3Ffamily%3Dspace%2Bmono;" parent="1RqYY2e8a6liGjpJobrj-66" vertex="1" connectable="0">
          <mxGeometry x="0.288" y="-1" relative="1" as="geometry">
            <mxPoint x="31" y="-7" as="offset" />
          </mxGeometry>
        </mxCell>
        <mxCell id="1RqYY2e8a6liGjpJobrj-68" value="ST: ห้อง Lab&lt;br&gt;รคส.แพทย์, เก็บ Specimen,&lt;br&gt;ส่งต่อ ST อื่นหรือหน้าห้องตรวจ" style="rounded=1;whiteSpace=wrap;html=1;fontSize=12;glass=0;strokeWidth=1;shadow=0;fontFamily=space mono;fontSource=https%3A%2F%2Ffonts.googleapis.com%2Fcss%3Ffamily%3Dspace%2Bmono;" parent="WIyWlLk6GJQsqaUBKTNV-1" vertex="1">
          <mxGeometry x="1748" y="478.75" width="200" height="52.5" as="geometry" />
        </mxCell>
        <mxCell id="1RqYY2e8a6liGjpJobrj-69" value="ST: ห้อง X-ray&lt;br&gt;รคส.แพทย์,&amp;nbsp;ส่งต่อ ST อื่น&lt;br&gt;หรือหน้าห้องตรวจ" style="rounded=1;whiteSpace=wrap;html=1;fontSize=12;glass=0;strokeWidth=1;shadow=0;fontFamily=space mono;fontSource=https%3A%2F%2Ffonts.googleapis.com%2Fcss%3Ffamily%3Dspace%2Bmono;" parent="WIyWlLk6GJQsqaUBKTNV-1" vertex="1">
          <mxGeometry x="1748" y="575.5" width="200" height="52.5" as="geometry" />
        </mxCell>
        <mxCell id="1RqYY2e8a6liGjpJobrj-70" style="edgeStyle=orthogonalEdgeStyle;rounded=0;orthogonalLoop=1;jettySize=auto;html=1;endArrow=block;endFill=0;entryX=0;entryY=0.5;entryDx=0;entryDy=0;exitX=1;exitY=0.5;exitDx=0;exitDy=0;" parent="WIyWlLk6GJQsqaUBKTNV-1" source="1RqYY2e8a6liGjpJobrj-45" target="1RqYY2e8a6liGjpJobrj-71" edge="1">
          <mxGeometry relative="1" as="geometry">
            <mxPoint x="1708" y="596.75" as="sourcePoint" />
            <mxPoint x="1279" y="538.75" as="targetPoint" />
          </mxGeometry>
        </mxCell>
        <mxCell id="1RqYY2e8a6liGjpJobrj-71" value="มี Lab?" style="rhombus;whiteSpace=wrap;html=1;shadow=0;fontFamily=space mono;fontSize=12;align=center;strokeWidth=1;spacing=6;spacingTop=-4;fontSource=https%3A%2F%2Ffonts.googleapis.com%2Fcss%3Ffamily%3Dspace%2Bmono;" parent="WIyWlLk6GJQsqaUBKTNV-1" vertex="1">
          <mxGeometry x="1578" y="475" width="107" height="60" as="geometry" />
        </mxCell>
        <mxCell id="1RqYY2e8a6liGjpJobrj-73" value="Yes" style="edgeStyle=orthogonalEdgeStyle;rounded=0;html=1;jettySize=auto;orthogonalLoop=1;fontSize=11;endArrow=block;endFill=0;endSize=8;strokeWidth=1;shadow=0;labelBackgroundColor=none;fontFamily=space mono;fontSource=https%3A%2F%2Ffonts.googleapis.com%2Fcss%3Ffamily%3Dspace%2Bmono;exitX=1;exitY=0.5;exitDx=0;exitDy=0;entryX=0;entryY=0.5;entryDx=0;entryDy=0;" parent="WIyWlLk6GJQsqaUBKTNV-1" source="1RqYY2e8a6liGjpJobrj-71" target="1RqYY2e8a6liGjpJobrj-68" edge="1">
          <mxGeometry x="-0.0417" y="10" relative="1" as="geometry">
            <mxPoint as="offset" />
            <mxPoint x="1242" y="675" as="sourcePoint" />
            <mxPoint x="1338" y="675" as="targetPoint" />
          </mxGeometry>
        </mxCell>
        <mxCell id="1RqYY2e8a6liGjpJobrj-74" value="No" style="rounded=0;html=1;jettySize=auto;orthogonalLoop=1;fontSize=11;endArrow=block;endFill=0;endSize=8;strokeWidth=1;shadow=0;labelBackgroundColor=none;fontFamily=space mono;fontSource=https%3A%2F%2Ffonts.googleapis.com%2Fcss%3Ffamily%3Dspace%2Bmono;exitX=0.5;exitY=1;exitDx=0;exitDy=0;edgeStyle=orthogonalEdgeStyle;entryX=0.5;entryY=0;entryDx=0;entryDy=0;" parent="WIyWlLk6GJQsqaUBKTNV-1" source="1RqYY2e8a6liGjpJobrj-71" target="qahBIfakXGSAEwPWHKox-30" edge="1">
          <mxGeometry y="9" relative="1" as="geometry">
            <mxPoint as="offset" />
            <mxPoint x="1159" y="705" as="sourcePoint" />
            <mxPoint x="1631.5" y="571.75" as="targetPoint" />
          </mxGeometry>
        </mxCell>
        <mxCell id="1RqYY2e8a6liGjpJobrj-75" value="" style="edgeStyle=orthogonalEdgeStyle;rounded=0;html=1;jettySize=auto;orthogonalLoop=1;fontSize=11;endArrow=block;endFill=0;endSize=8;strokeWidth=1;shadow=0;labelBackgroundColor=none;fontFamily=space mono;fontSource=https%3A%2F%2Ffonts.googleapis.com%2Fcss%3Ffamily%3Dspace%2Bmono;exitX=1;exitY=0.5;exitDx=0;exitDy=0;entryX=0;entryY=0.5;entryDx=0;entryDy=0;" parent="WIyWlLk6GJQsqaUBKTNV-1" source="qahBIfakXGSAEwPWHKox-30" target="1RqYY2e8a6liGjpJobrj-69" edge="1">
          <mxGeometry x="-0.0417" y="10" relative="1" as="geometry">
            <mxPoint as="offset" />
            <mxPoint x="1685" y="601.75" as="sourcePoint" />
            <mxPoint x="1758" y="508" as="targetPoint" />
          </mxGeometry>
        </mxCell>
        <mxCell id="1RqYY2e8a6liGjpJobrj-76" value="ST: ห้อง Lab&lt;br&gt;Request Order ไปที่ระบบ LIS&lt;br&gt;บันทึกผล Lab ที่อ่านค่าได้" style="rounded=1;whiteSpace=wrap;html=1;fontSize=12;glass=0;strokeWidth=1;shadow=0;fontFamily=space mono;fontSource=https%3A%2F%2Ffonts.googleapis.com%2Fcss%3Ffamily%3Dspace%2Bmono;" parent="WIyWlLk6GJQsqaUBKTNV-1" vertex="1">
          <mxGeometry x="1988" y="478.75" width="200" height="52.5" as="geometry" />
        </mxCell>
        <mxCell id="1RqYY2e8a6liGjpJobrj-77" value="ST: ห้อง X-ray&lt;br&gt;Request Order ไปที่ระบบ PAC&lt;br&gt;บันทึกผล X-ray ที่อ่านค่าได้" style="rounded=1;whiteSpace=wrap;html=1;fontSize=12;glass=0;strokeWidth=1;shadow=0;fontFamily=space mono;fontSource=https%3A%2F%2Ffonts.googleapis.com%2Fcss%3Ffamily%3Dspace%2Bmono;" parent="WIyWlLk6GJQsqaUBKTNV-1" vertex="1">
          <mxGeometry x="1988" y="575.5" width="200" height="52.5" as="geometry" />
        </mxCell>
        <mxCell id="1RqYY2e8a6liGjpJobrj-78" style="edgeStyle=orthogonalEdgeStyle;rounded=0;orthogonalLoop=1;jettySize=auto;html=1;endArrow=block;endFill=0;entryX=0;entryY=0.5;entryDx=0;entryDy=0;exitX=1;exitY=0.5;exitDx=0;exitDy=0;" parent="WIyWlLk6GJQsqaUBKTNV-1" source="1RqYY2e8a6liGjpJobrj-68" target="1RqYY2e8a6liGjpJobrj-76" edge="1">
          <mxGeometry relative="1" as="geometry">
            <mxPoint x="1948" y="505" as="sourcePoint" />
            <mxPoint x="1159" y="560" as="targetPoint" />
          </mxGeometry>
        </mxCell>
        <mxCell id="1RqYY2e8a6liGjpJobrj-79" style="edgeStyle=orthogonalEdgeStyle;rounded=0;orthogonalLoop=1;jettySize=auto;html=1;endArrow=block;endFill=0;entryX=0;entryY=0.5;entryDx=0;entryDy=0;exitX=1;exitY=0.5;exitDx=0;exitDy=0;" parent="WIyWlLk6GJQsqaUBKTNV-1" source="1RqYY2e8a6liGjpJobrj-69" target="1RqYY2e8a6liGjpJobrj-77" edge="1">
          <mxGeometry relative="1" as="geometry">
            <mxPoint x="1958" y="515" as="sourcePoint" />
            <mxPoint x="1998" y="515" as="targetPoint" />
          </mxGeometry>
        </mxCell>
        <mxCell id="qahBIfakXGSAEwPWHKox-0" value="ST: ห้องที่ต้องทำการ...&lt;br&gt;ทำหัตถการแพทย์,&amp;nbsp;ส่งต่อ ST อื่น&lt;br&gt;หรือหน้าห้องตรวจ" style="rounded=1;whiteSpace=wrap;html=1;fontSize=12;glass=0;strokeWidth=1;shadow=0;fontFamily=space mono;fontSource=https%3A%2F%2Ffonts.googleapis.com%2Fcss%3Ffamily%3Dspace%2Bmono;" parent="WIyWlLk6GJQsqaUBKTNV-1" vertex="1">
          <mxGeometry x="1748" y="670.75" width="200" height="52.5" as="geometry" />
        </mxCell>
        <mxCell id="qahBIfakXGSAEwPWHKox-1" value="ST: ห้องที่ต้องทำการ...&lt;br&gt;รคส.แพทย์, ทำบริการ พยบ.,&amp;nbsp;&lt;br&gt;ส่งต่อ ST อื่นหรือหน้าห้องตรวจ" style="rounded=1;whiteSpace=wrap;html=1;fontSize=12;glass=0;strokeWidth=1;shadow=0;fontFamily=space mono;fontSource=https%3A%2F%2Ffonts.googleapis.com%2Fcss%3Ffamily%3Dspace%2Bmono;" parent="WIyWlLk6GJQsqaUBKTNV-1" vertex="1">
          <mxGeometry x="1748" y="767.5" width="200" height="52.5" as="geometry" />
        </mxCell>
        <mxCell id="qahBIfakXGSAEwPWHKox-2" value="มี หัตถการแพทย์?" style="rhombus;whiteSpace=wrap;html=1;shadow=0;fontFamily=space mono;fontSize=12;align=center;strokeWidth=1;spacing=6;spacingTop=-4;fontSource=https%3A%2F%2Ffonts.googleapis.com%2Fcss%3Ffamily%3Dspace%2Bmono;" parent="WIyWlLk6GJQsqaUBKTNV-1" vertex="1">
          <mxGeometry x="1578" y="667" width="107" height="60" as="geometry" />
        </mxCell>
        <mxCell id="qahBIfakXGSAEwPWHKox-4" value="Yes" style="edgeStyle=orthogonalEdgeStyle;rounded=0;html=1;jettySize=auto;orthogonalLoop=1;fontSize=11;endArrow=block;endFill=0;endSize=8;strokeWidth=1;shadow=0;labelBackgroundColor=none;fontFamily=space mono;fontSource=https%3A%2F%2Ffonts.googleapis.com%2Fcss%3Ffamily%3Dspace%2Bmono;exitX=1;exitY=0.5;exitDx=0;exitDy=0;entryX=0;entryY=0.5;entryDx=0;entryDy=0;" parent="WIyWlLk6GJQsqaUBKTNV-1" source="qahBIfakXGSAEwPWHKox-2" target="qahBIfakXGSAEwPWHKox-0" edge="1">
          <mxGeometry x="-0.0417" y="10" relative="1" as="geometry">
            <mxPoint as="offset" />
            <mxPoint x="1242" y="867" as="sourcePoint" />
            <mxPoint x="1338" y="867" as="targetPoint" />
          </mxGeometry>
        </mxCell>
        <mxCell id="qahBIfakXGSAEwPWHKox-5" value="No" style="rounded=0;html=1;jettySize=auto;orthogonalLoop=1;fontSize=11;endArrow=block;endFill=0;endSize=8;strokeWidth=1;shadow=0;labelBackgroundColor=none;fontFamily=space mono;fontSource=https%3A%2F%2Ffonts.googleapis.com%2Fcss%3Ffamily%3Dspace%2Bmono;exitX=0.5;exitY=1;exitDx=0;exitDy=0;edgeStyle=orthogonalEdgeStyle;entryX=0.5;entryY=0;entryDx=0;entryDy=0;" parent="WIyWlLk6GJQsqaUBKTNV-1" source="qahBIfakXGSAEwPWHKox-2" target="qahBIfakXGSAEwPWHKox-31" edge="1">
          <mxGeometry y="9" relative="1" as="geometry">
            <mxPoint as="offset" />
            <mxPoint x="1159" y="897" as="sourcePoint" />
            <mxPoint x="1631.5" y="763.75" as="targetPoint" />
          </mxGeometry>
        </mxCell>
        <mxCell id="qahBIfakXGSAEwPWHKox-6" value="" style="edgeStyle=orthogonalEdgeStyle;rounded=0;html=1;jettySize=auto;orthogonalLoop=1;fontSize=11;endArrow=block;endFill=0;endSize=8;strokeWidth=1;shadow=0;labelBackgroundColor=none;fontFamily=space mono;fontSource=https%3A%2F%2Ffonts.googleapis.com%2Fcss%3Ffamily%3Dspace%2Bmono;exitX=1;exitY=0.5;exitDx=0;exitDy=0;entryX=0;entryY=0.5;entryDx=0;entryDy=0;" parent="WIyWlLk6GJQsqaUBKTNV-1" source="qahBIfakXGSAEwPWHKox-31" target="qahBIfakXGSAEwPWHKox-1" edge="1">
          <mxGeometry x="-0.0417" y="10" relative="1" as="geometry">
            <mxPoint as="offset" />
            <mxPoint x="1685" y="793.75" as="sourcePoint" />
            <mxPoint x="1758" y="700" as="targetPoint" />
          </mxGeometry>
        </mxCell>
        <mxCell id="qahBIfakXGSAEwPWHKox-7" value="ST: ห้องที่ต้องทำการ...&lt;br&gt;บันทึกทำหัตการ ค่าใช้จ่ายที่เพิ่มเติม" style="rounded=1;whiteSpace=wrap;html=1;fontSize=12;glass=0;strokeWidth=1;shadow=0;fontFamily=space mono;fontSource=https%3A%2F%2Ffonts.googleapis.com%2Fcss%3Ffamily%3Dspace%2Bmono;" parent="WIyWlLk6GJQsqaUBKTNV-1" vertex="1">
          <mxGeometry x="1988" y="670.75" width="200" height="52.5" as="geometry" />
        </mxCell>
        <mxCell id="qahBIfakXGSAEwPWHKox-8" value="ST: ห้องที่ต้องทำการ...&lt;br&gt;บันทึกทำหัตการ ค่าใช้จ่ายที่เพิ่มเติม" style="rounded=1;whiteSpace=wrap;html=1;fontSize=12;glass=0;strokeWidth=1;shadow=0;fontFamily=space mono;fontSource=https%3A%2F%2Ffonts.googleapis.com%2Fcss%3Ffamily%3Dspace%2Bmono;" parent="WIyWlLk6GJQsqaUBKTNV-1" vertex="1">
          <mxGeometry x="1988" y="767.5" width="200" height="52.5" as="geometry" />
        </mxCell>
        <mxCell id="qahBIfakXGSAEwPWHKox-9" style="edgeStyle=orthogonalEdgeStyle;rounded=0;orthogonalLoop=1;jettySize=auto;html=1;endArrow=block;endFill=0;entryX=0;entryY=0.5;entryDx=0;entryDy=0;exitX=1;exitY=0.5;exitDx=0;exitDy=0;" parent="WIyWlLk6GJQsqaUBKTNV-1" source="qahBIfakXGSAEwPWHKox-0" target="qahBIfakXGSAEwPWHKox-7" edge="1">
          <mxGeometry relative="1" as="geometry">
            <mxPoint x="1948" y="697" as="sourcePoint" />
            <mxPoint x="1159" y="752" as="targetPoint" />
          </mxGeometry>
        </mxCell>
        <mxCell id="qahBIfakXGSAEwPWHKox-10" style="edgeStyle=orthogonalEdgeStyle;rounded=0;orthogonalLoop=1;jettySize=auto;html=1;endArrow=block;endFill=0;entryX=0;entryY=0.5;entryDx=0;entryDy=0;exitX=1;exitY=0.5;exitDx=0;exitDy=0;" parent="WIyWlLk6GJQsqaUBKTNV-1" source="qahBIfakXGSAEwPWHKox-1" target="qahBIfakXGSAEwPWHKox-8" edge="1">
          <mxGeometry relative="1" as="geometry">
            <mxPoint x="1958" y="707" as="sourcePoint" />
            <mxPoint x="1998" y="707" as="targetPoint" />
          </mxGeometry>
        </mxCell>
        <mxCell id="qahBIfakXGSAEwPWHKox-11" style="edgeStyle=orthogonalEdgeStyle;rounded=0;orthogonalLoop=1;jettySize=auto;html=1;endArrow=block;endFill=0;exitX=1;exitY=0.5;exitDx=0;exitDy=0;entryX=0;entryY=0.5;entryDx=0;entryDy=0;" parent="WIyWlLk6GJQsqaUBKTNV-1" source="1RqYY2e8a6liGjpJobrj-46" target="qahBIfakXGSAEwPWHKox-2" edge="1">
          <mxGeometry relative="1" as="geometry">
            <mxPoint x="1538" y="690" as="sourcePoint" />
            <mxPoint x="1588" y="723" as="targetPoint" />
          </mxGeometry>
        </mxCell>
        <mxCell id="qahBIfakXGSAEwPWHKox-19" value="&lt;font data-font-src=&quot;https://fonts.googleapis.com/css?family=space+mono&quot; face=&quot;space mono&quot;&gt;1&lt;/font&gt;" style="strokeWidth=2;html=1;shape=mxgraph.flowchart.start_2;whiteSpace=wrap;" parent="WIyWlLk6GJQsqaUBKTNV-1" vertex="1">
          <mxGeometry x="511" y="304" width="40" height="40" as="geometry" />
        </mxCell>
        <mxCell id="qahBIfakXGSAEwPWHKox-22" value="ST: หน้าห้องตรวจ&lt;br&gt;ค้นหาประวัติการรักษา&lt;br&gt;EMR, OPD Card" style="rounded=1;whiteSpace=wrap;html=1;fontSize=12;glass=0;strokeWidth=1;shadow=0;fontFamily=space mono;fontSource=https%3A%2F%2Ffonts.googleapis.com%2Fcss%3Ffamily%3Dspace%2Bmono;" parent="WIyWlLk6GJQsqaUBKTNV-1" vertex="1">
          <mxGeometry x="441" y="53" width="180" height="50" as="geometry" />
        </mxCell>
        <mxCell id="qahBIfakXGSAEwPWHKox-24" value="&lt;font data-font-src=&quot;https://fonts.googleapis.com/css?family=space+mono&quot; face=&quot;space mono&quot;&gt;1&lt;/font&gt;" style="strokeWidth=2;html=1;shape=mxgraph.flowchart.start_2;whiteSpace=wrap;" parent="WIyWlLk6GJQsqaUBKTNV-1" vertex="1">
          <mxGeometry x="1568" y="860" width="40" height="40" as="geometry" />
        </mxCell>
        <mxCell id="qahBIfakXGSAEwPWHKox-25" style="edgeStyle=orthogonalEdgeStyle;rounded=0;orthogonalLoop=1;jettySize=auto;html=1;endArrow=block;endFill=0;entryX=0;entryY=0.5;entryDx=0;entryDy=0;exitX=1;exitY=0.5;exitDx=0;exitDy=0;entryPerimeter=0;" parent="WIyWlLk6GJQsqaUBKTNV-1" source="1RqYY2e8a6liGjpJobrj-47" target="qahBIfakXGSAEwPWHKox-24" edge="1">
          <mxGeometry relative="1" as="geometry">
            <mxPoint x="1958" y="804" as="sourcePoint" />
            <mxPoint x="1998" y="804" as="targetPoint" />
          </mxGeometry>
        </mxCell>
        <mxCell id="qahBIfakXGSAEwPWHKox-26" value="ST: การเงินผู้ป่วย&lt;br&gt;ตรวจค่าใช้จ่ายที่เกิดขึ้นในระบบ&lt;br&gt;ทุกรายการจะต้องรับคำสั่งทั้งหมดแล้ว" style="rounded=1;whiteSpace=wrap;html=1;fontSize=12;glass=0;strokeWidth=1;shadow=0;fontFamily=space mono;fontSource=https%3A%2F%2Ffonts.googleapis.com%2Fcss%3Ffamily%3Dspace%2Bmono;" parent="WIyWlLk6GJQsqaUBKTNV-1" vertex="1">
          <mxGeometry x="1501.5" y="1336.75" width="200" height="52.5" as="geometry" />
        </mxCell>
        <mxCell id="qahBIfakXGSAEwPWHKox-27" style="edgeStyle=orthogonalEdgeStyle;rounded=0;orthogonalLoop=1;jettySize=auto;html=1;endArrow=block;endFill=0;entryX=0;entryY=0.5;entryDx=0;entryDy=0;exitX=1;exitY=0.5;exitDx=0;exitDy=0;" parent="WIyWlLk6GJQsqaUBKTNV-1" source="1RqYY2e8a6liGjpJobrj-48" target="yvNfWJmXIzpKwHx-HULG-26" edge="1">
          <mxGeometry relative="1" as="geometry">
            <mxPoint x="1497" y="1113" as="sourcePoint" />
            <mxPoint x="1537" y="1113" as="targetPoint" />
          </mxGeometry>
        </mxCell>
        <mxCell id="qahBIfakXGSAEwPWHKox-28" value="สถานะ:&lt;br&gt;ผู้ป่วย&lt;font style=&quot;background-color: rgb(179, 255, 102);&quot; color=&quot;#000000&quot;&gt;ตรวจเสร็จกลับบ้าน&lt;/font&gt;" style="rounded=1;whiteSpace=wrap;html=1;fontSize=12;glass=0;strokeWidth=1;shadow=0;fontFamily=space mono;fontSource=https%3A%2F%2Ffonts.googleapis.com%2Fcss%3Ffamily%3Dspace%2Bmono;" parent="WIyWlLk6GJQsqaUBKTNV-1" vertex="1">
          <mxGeometry x="1068" y="1176.75" width="162" height="52.5" as="geometry" />
        </mxCell>
        <mxCell id="qahBIfakXGSAEwPWHKox-30" value="มี X-ray" style="rounded=1;whiteSpace=wrap;html=1;fontSize=12;glass=0;strokeWidth=1;shadow=0;fontFamily=space mono;fontSource=https%3A%2F%2Ffonts.googleapis.com%2Fcss%3Ffamily%3Dspace%2Bmono;" parent="WIyWlLk6GJQsqaUBKTNV-1" vertex="1">
          <mxGeometry x="1576.5" y="587.13" width="110" height="29.25" as="geometry" />
        </mxCell>
        <mxCell id="qahBIfakXGSAEwPWHKox-31" value="มี บริการพยาบาล" style="rounded=1;whiteSpace=wrap;html=1;fontSize=12;glass=0;strokeWidth=1;shadow=0;fontFamily=space mono;fontSource=https%3A%2F%2Ffonts.googleapis.com%2Fcss%3Ffamily%3Dspace%2Bmono;" parent="WIyWlLk6GJQsqaUBKTNV-1" vertex="1">
          <mxGeometry x="1576.5" y="779.12" width="110" height="29.25" as="geometry" />
        </mxCell>
        <mxCell id="yvNfWJmXIzpKwHx-HULG-0" value="&lt;font data-font-src=&quot;https://fonts.googleapis.com/css?family=space+mono&quot; face=&quot;space mono&quot;&gt;3&lt;/font&gt;" style="strokeWidth=2;html=1;shape=mxgraph.flowchart.start_2;whiteSpace=wrap;" parent="WIyWlLk6GJQsqaUBKTNV-1" vertex="1">
          <mxGeometry x="960" y="570" width="40" height="40" as="geometry" />
        </mxCell>
        <mxCell id="yvNfWJmXIzpKwHx-HULG-1" style="edgeStyle=orthogonalEdgeStyle;rounded=0;orthogonalLoop=1;jettySize=auto;html=1;endArrow=block;endFill=0;entryX=0;entryY=0.5;entryDx=0;entryDy=0;exitX=1;exitY=0.5;exitDx=0;exitDy=0;exitPerimeter=0;" parent="WIyWlLk6GJQsqaUBKTNV-1" source="yvNfWJmXIzpKwHx-HULG-0" target="1RqYY2e8a6liGjpJobrj-31" edge="1">
          <mxGeometry relative="1" as="geometry">
            <mxPoint x="1010" y="510" as="sourcePoint" />
            <mxPoint x="1069" y="510" as="targetPoint" />
          </mxGeometry>
        </mxCell>
        <mxCell id="yvNfWJmXIzpKwHx-HULG-2" value="สถานะ:&lt;br&gt;ผู้ป่วยส่ง &lt;font style=&quot;background-color: rgb(204, 255, 255);&quot; color=&quot;#000000&quot;&gt;Admit&lt;/font&gt;" style="rhombus;whiteSpace=wrap;html=1;shadow=0;fontFamily=space mono;fontSize=12;align=center;strokeWidth=1;spacing=6;spacingTop=-4;fontSource=https%3A%2F%2Ffonts.googleapis.com%2Fcss%3Ffamily%3Dspace%2Bmono;" parent="WIyWlLk6GJQsqaUBKTNV-1" vertex="1">
          <mxGeometry x="1066" y="953" width="166" height="60" as="geometry" />
        </mxCell>
        <mxCell id="yvNfWJmXIzpKwHx-HULG-3" value="ST: หน้าห้องตรวจ&lt;br&gt;เตรียมเอกสารการ admit, &lt;br&gt;ประสานหอผู้ป่วยจัดเตรียมห้องพัก-เตียง" style="rounded=1;whiteSpace=wrap;html=1;fontSize=12;glass=0;strokeWidth=1;shadow=0;fontFamily=space mono;fontSource=https%3A%2F%2Ffonts.googleapis.com%2Fcss%3Ffamily%3Dspace%2Bmono;" parent="WIyWlLk6GJQsqaUBKTNV-1" vertex="1">
          <mxGeometry x="1328" y="956.75" width="200" height="52.5" as="geometry" />
        </mxCell>
        <mxCell id="yvNfWJmXIzpKwHx-HULG-4" value="Yes" style="edgeStyle=orthogonalEdgeStyle;rounded=0;html=1;jettySize=auto;orthogonalLoop=1;fontSize=11;endArrow=block;endFill=0;endSize=8;strokeWidth=1;shadow=0;labelBackgroundColor=none;fontFamily=space mono;fontSource=https%3A%2F%2Ffonts.googleapis.com%2Fcss%3Ffamily%3Dspace%2Bmono;entryX=0;entryY=0.5;entryDx=0;entryDy=0;exitX=1;exitY=0.5;exitDx=0;exitDy=0;" parent="WIyWlLk6GJQsqaUBKTNV-1" source="yvNfWJmXIzpKwHx-HULG-2" target="yvNfWJmXIzpKwHx-HULG-3" edge="1">
          <mxGeometry x="-0.0417" y="10" relative="1" as="geometry">
            <mxPoint as="offset" />
            <mxPoint x="1242" y="893" as="sourcePoint" />
            <mxPoint x="1328" y="983" as="targetPoint" />
          </mxGeometry>
        </mxCell>
        <mxCell id="yvNfWJmXIzpKwHx-HULG-5" value="" style="rounded=0;html=1;jettySize=auto;orthogonalLoop=1;fontSize=11;endArrow=block;endFill=0;endSize=8;strokeWidth=1;shadow=0;labelBackgroundColor=none;fontFamily=space mono;fontSource=https%3A%2F%2Ffonts.googleapis.com%2Fcss%3Ffamily%3Dspace%2Bmono;edgeStyle=orthogonalEdgeStyle;exitX=0.5;exitY=1;exitDx=0;exitDy=0;entryX=0.5;entryY=0;entryDx=0;entryDy=0;startArrow=none;" parent="WIyWlLk6GJQsqaUBKTNV-1" source="PeQBqCHpVeVmycIjUM5T-111" target="qahBIfakXGSAEwPWHKox-28" edge="1">
          <mxGeometry x="-0.3333" y="20" relative="1" as="geometry">
            <mxPoint as="offset" />
            <mxPoint x="1159" y="920" as="sourcePoint" />
            <mxPoint x="1159" y="963" as="targetPoint" />
          </mxGeometry>
        </mxCell>
        <mxCell id="yvNfWJmXIzpKwHx-HULG-9" style="edgeStyle=orthogonalEdgeStyle;rounded=0;orthogonalLoop=1;jettySize=auto;html=1;endArrow=block;endFill=0;entryX=0;entryY=0.5;entryDx=0;entryDy=0;exitX=0.5;exitY=1;exitDx=0;exitDy=0;entryPerimeter=0;" parent="WIyWlLk6GJQsqaUBKTNV-1" source="yvNfWJmXIzpKwHx-HULG-3" target="PeQBqCHpVeVmycIjUM5T-21" edge="1">
          <mxGeometry relative="1" as="geometry">
            <mxPoint x="1538" y="890" as="sourcePoint" />
            <mxPoint x="1568" y="983" as="targetPoint" />
          </mxGeometry>
        </mxCell>
        <mxCell id="yvNfWJmXIzpKwHx-HULG-10" value="&lt;font data-font-src=&quot;https://fonts.googleapis.com/css?family=space+mono&quot; face=&quot;space mono&quot;&gt;5&lt;/font&gt;" style="strokeWidth=2;html=1;shape=mxgraph.flowchart.start_2;whiteSpace=wrap;" parent="WIyWlLk6GJQsqaUBKTNV-1" vertex="1">
          <mxGeometry x="1129" y="1043" width="40" height="40" as="geometry" />
        </mxCell>
        <mxCell id="yvNfWJmXIzpKwHx-HULG-12" value="No" style="rounded=0;html=1;jettySize=auto;orthogonalLoop=1;fontSize=11;endArrow=block;endFill=0;endSize=8;strokeWidth=1;shadow=0;labelBackgroundColor=none;fontFamily=space mono;fontSource=https%3A%2F%2Ffonts.googleapis.com%2Fcss%3Ffamily%3Dspace%2Bmono;edgeStyle=orthogonalEdgeStyle;exitX=0.5;exitY=1;exitDx=0;exitDy=0;startArrow=none;entryX=0.5;entryY=0;entryDx=0;entryDy=0;entryPerimeter=0;" parent="WIyWlLk6GJQsqaUBKTNV-1" source="yvNfWJmXIzpKwHx-HULG-2" target="yvNfWJmXIzpKwHx-HULG-10" edge="1">
          <mxGeometry y="13" relative="1" as="geometry">
            <mxPoint as="offset" />
            <mxPoint x="1159" y="1093" as="sourcePoint" />
            <mxPoint x="1149" y="1043" as="targetPoint" />
          </mxGeometry>
        </mxCell>
        <mxCell id="yvNfWJmXIzpKwHx-HULG-13" value="ต้องส่งกลับ&lt;br&gt;ห้องตรวจแพทย์อีกครั้ง ?" style="rhombus;whiteSpace=wrap;html=1;shadow=0;fontFamily=space mono;fontSize=12;align=center;strokeWidth=1;spacing=6;spacingTop=-4;fontSource=https%3A%2F%2Ffonts.googleapis.com%2Fcss%3Ffamily%3Dspace%2Bmono;" parent="WIyWlLk6GJQsqaUBKTNV-1" vertex="1">
          <mxGeometry x="1779" y="850" width="152" height="60" as="geometry" />
        </mxCell>
        <mxCell id="yvNfWJmXIzpKwHx-HULG-14" value="&lt;font data-font-src=&quot;https://fonts.googleapis.com/css?family=space+mono&quot; face=&quot;space mono&quot;&gt;6&lt;br&gt;&lt;/font&gt;" style="strokeWidth=2;html=1;shape=mxgraph.flowchart.start_2;whiteSpace=wrap;" parent="WIyWlLk6GJQsqaUBKTNV-1" vertex="1">
          <mxGeometry x="2199" y="860" width="40" height="40" as="geometry" />
        </mxCell>
        <mxCell id="yvNfWJmXIzpKwHx-HULG-15" value="" style="edgeStyle=orthogonalEdgeStyle;rounded=0;html=1;jettySize=auto;orthogonalLoop=1;fontSize=11;endArrow=block;endFill=0;endSize=8;strokeWidth=1;shadow=0;labelBackgroundColor=none;fontFamily=space mono;fontSource=https%3A%2F%2Ffonts.googleapis.com%2Fcss%3Ffamily%3Dspace%2Bmono;exitX=0;exitY=0.5;exitDx=0;exitDy=0;entryX=1;entryY=0.5;entryDx=0;entryDy=0;exitPerimeter=0;" parent="WIyWlLk6GJQsqaUBKTNV-1" source="yvNfWJmXIzpKwHx-HULG-14" target="yvNfWJmXIzpKwHx-HULG-13" edge="1">
          <mxGeometry x="-0.0417" y="10" relative="1" as="geometry">
            <mxPoint as="offset" />
            <mxPoint x="1697" y="804" as="sourcePoint" />
            <mxPoint x="1758" y="804" as="targetPoint" />
          </mxGeometry>
        </mxCell>
        <mxCell id="yvNfWJmXIzpKwHx-HULG-16" style="edgeStyle=orthogonalEdgeStyle;rounded=0;orthogonalLoop=1;jettySize=auto;html=1;endArrow=block;endFill=0;exitX=1;exitY=0.5;exitDx=0;exitDy=0;entryX=0.5;entryY=0;entryDx=0;entryDy=0;entryPerimeter=0;" parent="WIyWlLk6GJQsqaUBKTNV-1" source="1RqYY2e8a6liGjpJobrj-76" target="yvNfWJmXIzpKwHx-HULG-14" edge="1">
          <mxGeometry relative="1" as="geometry">
            <mxPoint x="1958" y="515" as="sourcePoint" />
            <mxPoint x="2259" y="623" as="targetPoint" />
          </mxGeometry>
        </mxCell>
        <mxCell id="yvNfWJmXIzpKwHx-HULG-17" style="edgeStyle=orthogonalEdgeStyle;rounded=0;orthogonalLoop=1;jettySize=auto;html=1;endArrow=block;endFill=0;exitX=1;exitY=0.5;exitDx=0;exitDy=0;entryX=0.5;entryY=0;entryDx=0;entryDy=0;entryPerimeter=0;" parent="WIyWlLk6GJQsqaUBKTNV-1" source="1RqYY2e8a6liGjpJobrj-77" target="yvNfWJmXIzpKwHx-HULG-14" edge="1">
          <mxGeometry relative="1" as="geometry">
            <mxPoint x="2198" y="515" as="sourcePoint" />
            <mxPoint x="2269" y="641" as="targetPoint" />
          </mxGeometry>
        </mxCell>
        <mxCell id="yvNfWJmXIzpKwHx-HULG-18" style="edgeStyle=orthogonalEdgeStyle;rounded=0;orthogonalLoop=1;jettySize=auto;html=1;endArrow=block;endFill=0;exitX=1;exitY=0.5;exitDx=0;exitDy=0;entryX=0.5;entryY=0;entryDx=0;entryDy=0;entryPerimeter=0;" parent="WIyWlLk6GJQsqaUBKTNV-1" source="qahBIfakXGSAEwPWHKox-7" target="yvNfWJmXIzpKwHx-HULG-14" edge="1">
          <mxGeometry relative="1" as="geometry">
            <mxPoint x="2208" y="525" as="sourcePoint" />
            <mxPoint x="2279" y="651" as="targetPoint" />
          </mxGeometry>
        </mxCell>
        <mxCell id="yvNfWJmXIzpKwHx-HULG-19" style="edgeStyle=orthogonalEdgeStyle;rounded=0;orthogonalLoop=1;jettySize=auto;html=1;endArrow=block;endFill=0;exitX=1;exitY=0.5;exitDx=0;exitDy=0;entryX=0.5;entryY=0;entryDx=0;entryDy=0;entryPerimeter=0;" parent="WIyWlLk6GJQsqaUBKTNV-1" source="qahBIfakXGSAEwPWHKox-8" target="yvNfWJmXIzpKwHx-HULG-14" edge="1">
          <mxGeometry relative="1" as="geometry">
            <mxPoint x="2198" y="707" as="sourcePoint" />
            <mxPoint x="2259" y="673" as="targetPoint" />
          </mxGeometry>
        </mxCell>
        <mxCell id="yvNfWJmXIzpKwHx-HULG-21" value="Yes" style="edgeStyle=orthogonalEdgeStyle;rounded=0;html=1;jettySize=auto;orthogonalLoop=1;fontSize=11;endArrow=block;endFill=0;endSize=8;strokeWidth=1;shadow=0;labelBackgroundColor=none;fontFamily=space mono;fontSource=https%3A%2F%2Ffonts.googleapis.com%2Fcss%3Ffamily%3Dspace%2Bmono;exitX=0;exitY=0.5;exitDx=0;exitDy=0;entryX=1;entryY=0.5;entryDx=0;entryDy=0;entryPerimeter=0;" parent="WIyWlLk6GJQsqaUBKTNV-1" source="yvNfWJmXIzpKwHx-HULG-13" target="qahBIfakXGSAEwPWHKox-24" edge="1">
          <mxGeometry x="-0.0334" y="14" relative="1" as="geometry">
            <mxPoint as="offset" />
            <mxPoint x="1695" y="707" as="sourcePoint" />
            <mxPoint x="1758" y="707" as="targetPoint" />
          </mxGeometry>
        </mxCell>
        <mxCell id="yvNfWJmXIzpKwHx-HULG-22" value="No" style="rounded=0;html=1;jettySize=auto;orthogonalLoop=1;fontSize=11;endArrow=block;endFill=0;endSize=8;strokeWidth=1;shadow=0;labelBackgroundColor=none;fontFamily=space mono;fontSource=https%3A%2F%2Ffonts.googleapis.com%2Fcss%3Ffamily%3Dspace%2Bmono;edgeStyle=orthogonalEdgeStyle;exitX=0.5;exitY=1;exitDx=0;exitDy=0;entryX=0.5;entryY=0;entryDx=0;entryDy=0;entryPerimeter=0;" parent="WIyWlLk6GJQsqaUBKTNV-1" source="yvNfWJmXIzpKwHx-HULG-13" target="PeQBqCHpVeVmycIjUM5T-140" edge="1">
          <mxGeometry x="-0.9452" y="14" relative="1" as="geometry">
            <mxPoint as="offset" />
            <mxPoint x="2429" y="793" as="sourcePoint" />
            <mxPoint x="2509" y="823" as="targetPoint" />
          </mxGeometry>
        </mxCell>
        <mxCell id="yvNfWJmXIzpKwHx-HULG-24" value="ST: ห้องจ่ายยา&lt;br&gt;ผู้ป่วยยื่นใบสั่งยา (ถ้ามี), &lt;br&gt;พิมพ์ sticker, จัดยาตาม Order" style="rounded=1;whiteSpace=wrap;html=1;fontSize=12;glass=0;strokeWidth=1;shadow=0;fontFamily=space mono;fontSource=https%3A%2F%2Ffonts.googleapis.com%2Fcss%3Ffamily%3Dspace%2Bmono;" parent="WIyWlLk6GJQsqaUBKTNV-1" vertex="1">
          <mxGeometry x="1727" y="1263" width="200" height="52.5" as="geometry" />
        </mxCell>
        <mxCell id="yvNfWJmXIzpKwHx-HULG-25" style="edgeStyle=orthogonalEdgeStyle;rounded=0;orthogonalLoop=1;jettySize=auto;html=1;endArrow=block;endFill=0;entryX=0.5;entryY=0;entryDx=0;entryDy=0;exitX=0.5;exitY=1;exitDx=0;exitDy=0;" parent="WIyWlLk6GJQsqaUBKTNV-1" source="yvNfWJmXIzpKwHx-HULG-28" target="yvNfWJmXIzpKwHx-HULG-24" edge="1">
          <mxGeometry relative="1" as="geometry">
            <mxPoint x="1247" y="1352.75" as="sourcePoint" />
            <mxPoint x="1297" y="1352.75" as="targetPoint" />
          </mxGeometry>
        </mxCell>
        <mxCell id="yvNfWJmXIzpKwHx-HULG-26" value="มี Order ยา ?" style="rhombus;whiteSpace=wrap;html=1;shadow=0;fontFamily=space mono;fontSize=12;align=center;strokeWidth=1;spacing=6;spacingTop=-4;fontSource=https%3A%2F%2Ffonts.googleapis.com%2Fcss%3Ffamily%3Dspace%2Bmono;" parent="WIyWlLk6GJQsqaUBKTNV-1" vertex="1">
          <mxGeometry x="1536" y="1173" width="131" height="60" as="geometry" />
        </mxCell>
        <mxCell id="yvNfWJmXIzpKwHx-HULG-27" value="No" style="rounded=0;html=1;jettySize=auto;orthogonalLoop=1;fontSize=11;endArrow=block;endFill=0;endSize=8;strokeWidth=1;shadow=0;labelBackgroundColor=none;fontFamily=space mono;fontSource=https%3A%2F%2Ffonts.googleapis.com%2Fcss%3Ffamily%3Dspace%2Bmono;edgeStyle=orthogonalEdgeStyle;exitX=0.5;exitY=1;exitDx=0;exitDy=0;entryX=0.5;entryY=0;entryDx=0;entryDy=0;entryPerimeter=0;" parent="WIyWlLk6GJQsqaUBKTNV-1" source="yvNfWJmXIzpKwHx-HULG-26" target="yvNfWJmXIzpKwHx-HULG-30" edge="1">
          <mxGeometry y="13" relative="1" as="geometry">
            <mxPoint as="offset" />
            <mxPoint x="1117" y="983.75" as="sourcePoint" />
            <mxPoint x="1597" y="1286.75" as="targetPoint" />
          </mxGeometry>
        </mxCell>
        <mxCell id="yvNfWJmXIzpKwHx-HULG-28" value="ST: หน้าห้องตรวจ&lt;br&gt;ส่งต่อ ST ผู้ป่วยไปห้อง จ่ายยา" style="rounded=1;whiteSpace=wrap;html=1;fontSize=12;glass=0;strokeWidth=1;shadow=0;fontFamily=space mono;fontSource=https%3A%2F%2Ffonts.googleapis.com%2Fcss%3Ffamily%3Dspace%2Bmono;" parent="WIyWlLk6GJQsqaUBKTNV-1" vertex="1">
          <mxGeometry x="1727" y="1176.75" width="200" height="52.5" as="geometry" />
        </mxCell>
        <mxCell id="yvNfWJmXIzpKwHx-HULG-29" value="Yes" style="edgeStyle=orthogonalEdgeStyle;rounded=0;html=1;jettySize=auto;orthogonalLoop=1;fontSize=11;endArrow=block;endFill=0;endSize=8;strokeWidth=1;shadow=0;labelBackgroundColor=none;fontFamily=space mono;fontSource=https%3A%2F%2Ffonts.googleapis.com%2Fcss%3Ffamily%3Dspace%2Bmono;exitX=1;exitY=0.5;exitDx=0;exitDy=0;" parent="WIyWlLk6GJQsqaUBKTNV-1" source="yvNfWJmXIzpKwHx-HULG-26" target="yvNfWJmXIzpKwHx-HULG-28" edge="1">
          <mxGeometry x="-0.0417" y="10" relative="1" as="geometry">
            <mxPoint as="offset" />
            <mxPoint x="1240" y="1056.75" as="sourcePoint" />
            <mxPoint x="1687" y="1306.75" as="targetPoint" />
          </mxGeometry>
        </mxCell>
        <mxCell id="yvNfWJmXIzpKwHx-HULG-30" value="&lt;font data-font-src=&quot;https://fonts.googleapis.com/css?family=space+mono&quot; face=&quot;space mono&quot;&gt;7&lt;/font&gt;" style="strokeWidth=2;html=1;shape=mxgraph.flowchart.start_2;whiteSpace=wrap;" parent="WIyWlLk6GJQsqaUBKTNV-1" vertex="1">
          <mxGeometry x="1581.5" y="1269.25" width="40" height="40" as="geometry" />
        </mxCell>
        <mxCell id="yvNfWJmXIzpKwHx-HULG-32" value="ST: การเงินผู้ป่วย&lt;br&gt;พิมพ์ใบเสร็จฯ, ใบแจ้งหนี้, ...&lt;br&gt;ใบนัดฯ, ส่งคิวผู้ป่วยไปห้องจ่ายยา" style="rounded=1;whiteSpace=wrap;html=1;fontSize=12;glass=0;strokeWidth=1;shadow=0;fontFamily=space mono;fontSource=https%3A%2F%2Ffonts.googleapis.com%2Fcss%3Ffamily%3Dspace%2Bmono;" parent="WIyWlLk6GJQsqaUBKTNV-1" vertex="1">
          <mxGeometry x="1501.5" y="1416.75" width="200" height="52.5" as="geometry" />
        </mxCell>
        <mxCell id="yvNfWJmXIzpKwHx-HULG-34" value="ST: ห้องจ่ายยา&lt;br&gt;จ่ายยา ให้คำแนะนำผู้ป่วย&lt;br&gt;ส่งคิวผู้ป่วย ST กลับบ้าน" style="rounded=1;whiteSpace=wrap;html=1;fontSize=12;glass=0;strokeWidth=1;shadow=0;fontFamily=space mono;fontSource=https%3A%2F%2Ffonts.googleapis.com%2Fcss%3Ffamily%3Dspace%2Bmono;" parent="WIyWlLk6GJQsqaUBKTNV-1" vertex="1">
          <mxGeometry x="1501.5" y="1496.75" width="200" height="52.5" as="geometry" />
        </mxCell>
        <mxCell id="yvNfWJmXIzpKwHx-HULG-35" style="edgeStyle=orthogonalEdgeStyle;rounded=0;orthogonalLoop=1;jettySize=auto;html=1;endArrow=block;endFill=0;entryX=0.5;entryY=0;entryDx=0;entryDy=0;exitX=0.5;exitY=1;exitDx=0;exitDy=0;exitPerimeter=0;" parent="WIyWlLk6GJQsqaUBKTNV-1" source="yvNfWJmXIzpKwHx-HULG-30" target="qahBIfakXGSAEwPWHKox-26" edge="1">
          <mxGeometry relative="1" as="geometry">
            <mxPoint x="1497" y="1212.75" as="sourcePoint" />
            <mxPoint x="1546" y="1212.75" as="targetPoint" />
          </mxGeometry>
        </mxCell>
        <mxCell id="yvNfWJmXIzpKwHx-HULG-36" style="edgeStyle=orthogonalEdgeStyle;rounded=0;orthogonalLoop=1;jettySize=auto;html=1;endArrow=block;endFill=0;entryX=1;entryY=0.5;entryDx=0;entryDy=0;exitX=0;exitY=0.5;exitDx=0;exitDy=0;entryPerimeter=0;" parent="WIyWlLk6GJQsqaUBKTNV-1" source="yvNfWJmXIzpKwHx-HULG-24" target="yvNfWJmXIzpKwHx-HULG-30" edge="1">
          <mxGeometry relative="1" as="geometry">
            <mxPoint x="1837" y="1239.75" as="sourcePoint" />
            <mxPoint x="1837" y="1272.75" as="targetPoint" />
          </mxGeometry>
        </mxCell>
        <mxCell id="yvNfWJmXIzpKwHx-HULG-38" style="edgeStyle=orthogonalEdgeStyle;rounded=0;orthogonalLoop=1;jettySize=auto;html=1;endArrow=block;endFill=0;entryX=0.5;entryY=0;entryDx=0;entryDy=0;exitX=0.5;exitY=1;exitDx=0;exitDy=0;" parent="WIyWlLk6GJQsqaUBKTNV-1" source="qahBIfakXGSAEwPWHKox-26" target="yvNfWJmXIzpKwHx-HULG-32" edge="1">
          <mxGeometry relative="1" as="geometry">
            <mxPoint x="1611" y="1319.75" as="sourcePoint" />
            <mxPoint x="1612" y="1346.75" as="targetPoint" />
          </mxGeometry>
        </mxCell>
        <mxCell id="yvNfWJmXIzpKwHx-HULG-39" style="edgeStyle=orthogonalEdgeStyle;rounded=0;orthogonalLoop=1;jettySize=auto;html=1;endArrow=block;endFill=0;exitX=0.5;exitY=1;exitDx=0;exitDy=0;entryX=0.5;entryY=0;entryDx=0;entryDy=0;" parent="WIyWlLk6GJQsqaUBKTNV-1" source="yvNfWJmXIzpKwHx-HULG-32" target="yvNfWJmXIzpKwHx-HULG-34" edge="1">
          <mxGeometry relative="1" as="geometry">
            <mxPoint x="1621" y="1329.75" as="sourcePoint" />
            <mxPoint x="1622" y="1356.75" as="targetPoint" />
          </mxGeometry>
        </mxCell>
        <mxCell id="yvNfWJmXIzpKwHx-HULG-40" value="ผู้ป่วยรับบริการเสร็จสิ้น" style="rounded=1;whiteSpace=wrap;html=1;fontSize=12;glass=0;strokeWidth=1;shadow=0;fontFamily=space mono;fontSource=https%3A%2F%2Ffonts.googleapis.com%2Fcss%3Ffamily%3Dspace%2Bmono;" parent="WIyWlLk6GJQsqaUBKTNV-1" vertex="1">
          <mxGeometry x="1501.5" y="1576.75" width="200" height="40" as="geometry" />
        </mxCell>
        <mxCell id="yvNfWJmXIzpKwHx-HULG-41" style="edgeStyle=orthogonalEdgeStyle;rounded=0;orthogonalLoop=1;jettySize=auto;html=1;endArrow=block;endFill=0;exitX=0.5;exitY=1;exitDx=0;exitDy=0;entryX=0.5;entryY=0;entryDx=0;entryDy=0;" parent="WIyWlLk6GJQsqaUBKTNV-1" source="yvNfWJmXIzpKwHx-HULG-34" target="yvNfWJmXIzpKwHx-HULG-40" edge="1">
          <mxGeometry relative="1" as="geometry">
            <mxPoint x="1612" y="1479.75" as="sourcePoint" />
            <mxPoint x="1612" y="1506.75" as="targetPoint" />
          </mxGeometry>
        </mxCell>
        <mxCell id="yvNfWJmXIzpKwHx-HULG-43" value="ST: ศูนย์ Admit ผู้ป่วยใน&lt;br&gt;Admit ผู้ป่วยเข้าห้องพัก-เตียง" style="rounded=1;whiteSpace=wrap;html=1;fontSize=12;glass=0;strokeWidth=1;shadow=0;fontFamily=space mono;fontSource=https%3A%2F%2Ffonts.googleapis.com%2Fcss%3Ffamily%3Dspace%2Bmono;" parent="WIyWlLk6GJQsqaUBKTNV-1" vertex="1">
          <mxGeometry x="1990" y="1108" width="200" height="52.5" as="geometry" />
        </mxCell>
        <mxCell id="PeQBqCHpVeVmycIjUM5T-3" value="Order LAB?" style="rhombus;whiteSpace=wrap;html=1;shadow=0;fontFamily=space mono;fontSize=12;align=center;strokeWidth=1;spacing=6;spacingTop=-4;fontSource=https%3A%2F%2Ffonts.googleapis.com%2Fcss%3Ffamily%3Dspace%2Bmono;" parent="WIyWlLk6GJQsqaUBKTNV-1" vertex="1">
          <mxGeometry x="2007" y="1426.75" width="166" height="60" as="geometry" />
        </mxCell>
        <mxCell id="PeQBqCHpVeVmycIjUM5T-4" value="Order X-ray?" style="rhombus;whiteSpace=wrap;html=1;shadow=0;fontFamily=space mono;fontSize=12;align=center;strokeWidth=1;spacing=6;spacingTop=-4;fontSource=https%3A%2F%2Ffonts.googleapis.com%2Fcss%3Ffamily%3Dspace%2Bmono;" parent="WIyWlLk6GJQsqaUBKTNV-1" vertex="1">
          <mxGeometry x="2007" y="1526.75" width="166" height="60" as="geometry" />
        </mxCell>
        <mxCell id="PeQBqCHpVeVmycIjUM5T-5" value="Order หัตถการ?" style="rhombus;whiteSpace=wrap;html=1;shadow=0;fontFamily=space mono;fontSize=12;align=center;strokeWidth=1;spacing=6;spacingTop=-4;fontSource=https%3A%2F%2Ffonts.googleapis.com%2Fcss%3Ffamily%3Dspace%2Bmono;" parent="WIyWlLk6GJQsqaUBKTNV-1" vertex="1">
          <mxGeometry x="2007" y="1628.75" width="166" height="60" as="geometry" />
        </mxCell>
        <mxCell id="PeQBqCHpVeVmycIjUM5T-7" value="No" style="rounded=0;html=1;jettySize=auto;orthogonalLoop=1;fontSize=11;endArrow=block;endFill=0;endSize=8;strokeWidth=1;shadow=0;labelBackgroundColor=none;edgeStyle=orthogonalEdgeStyle;fontFamily=space mono;fontSource=https%3A%2F%2Ffonts.googleapis.com%2Fcss%3Ffamily%3Dspace%2Bmono;exitX=0.5;exitY=1;exitDx=0;exitDy=0;entryX=0.5;entryY=0;entryDx=0;entryDy=0;" parent="WIyWlLk6GJQsqaUBKTNV-1" source="PeQBqCHpVeVmycIjUM5T-3" target="PeQBqCHpVeVmycIjUM5T-4" edge="1">
          <mxGeometry y="13" relative="1" as="geometry">
            <mxPoint as="offset" />
            <mxPoint x="2085.71" y="1346.75" as="sourcePoint" />
            <mxPoint x="2085.71" y="1456.75" as="targetPoint" />
          </mxGeometry>
        </mxCell>
        <mxCell id="PeQBqCHpVeVmycIjUM5T-8" value="No" style="rounded=0;html=1;jettySize=auto;orthogonalLoop=1;fontSize=11;endArrow=block;endFill=0;endSize=8;strokeWidth=1;shadow=0;labelBackgroundColor=none;edgeStyle=orthogonalEdgeStyle;fontFamily=space mono;fontSource=https%3A%2F%2Ffonts.googleapis.com%2Fcss%3Ffamily%3Dspace%2Bmono;entryX=0.5;entryY=0;entryDx=0;entryDy=0;exitX=0.5;exitY=1;exitDx=0;exitDy=0;" parent="WIyWlLk6GJQsqaUBKTNV-1" source="PeQBqCHpVeVmycIjUM5T-4" target="PeQBqCHpVeVmycIjUM5T-5" edge="1">
          <mxGeometry y="13" relative="1" as="geometry">
            <mxPoint as="offset" />
            <mxPoint x="2086" y="1586.75" as="sourcePoint" />
            <mxPoint x="2096" y="1536.75" as="targetPoint" />
          </mxGeometry>
        </mxCell>
        <mxCell id="PeQBqCHpVeVmycIjUM5T-9" value="No" style="rounded=0;html=1;jettySize=auto;orthogonalLoop=1;fontSize=11;endArrow=block;endFill=0;endSize=8;strokeWidth=1;shadow=0;labelBackgroundColor=none;edgeStyle=orthogonalEdgeStyle;fontFamily=space mono;fontSource=https%3A%2F%2Ffonts.googleapis.com%2Fcss%3Ffamily%3Dspace%2Bmono;exitX=0.5;exitY=1;exitDx=0;exitDy=0;entryX=0.5;entryY=0;entryDx=0;entryDy=0;" parent="WIyWlLk6GJQsqaUBKTNV-1" source="PeQBqCHpVeVmycIjUM5T-5" target="PeQBqCHpVeVmycIjUM5T-93" edge="1">
          <mxGeometry y="13" relative="1" as="geometry">
            <mxPoint as="offset" />
            <mxPoint x="2096" y="1598.75" as="sourcePoint" />
            <mxPoint x="2089" y="1732.5" as="targetPoint" />
          </mxGeometry>
        </mxCell>
        <mxCell id="PeQBqCHpVeVmycIjUM5T-11" value="Yes" style="edgeStyle=orthogonalEdgeStyle;rounded=0;html=1;jettySize=auto;orthogonalLoop=1;fontSize=11;endArrow=block;endFill=0;endSize=8;strokeWidth=1;shadow=0;labelBackgroundColor=none;fontFamily=space mono;fontSource=https%3A%2F%2Ffonts.googleapis.com%2Fcss%3Ffamily%3Dspace%2Bmono;exitX=1;exitY=0.5;exitDx=0;exitDy=0;entryX=0;entryY=0.5;entryDx=0;entryDy=0;" parent="WIyWlLk6GJQsqaUBKTNV-1" source="PeQBqCHpVeVmycIjUM5T-3" target="PeQBqCHpVeVmycIjUM5T-17" edge="1">
          <mxGeometry x="-0.1591" y="19" relative="1" as="geometry">
            <mxPoint as="offset" />
            <mxPoint x="2188" y="1346.75" as="sourcePoint" />
            <mxPoint x="2248" y="1326.75" as="targetPoint" />
          </mxGeometry>
        </mxCell>
        <mxCell id="PeQBqCHpVeVmycIjUM5T-16" value="&lt;font data-font-src=&quot;https://fonts.googleapis.com/css?family=space+mono&quot; face=&quot;space mono&quot;&gt;9&lt;/font&gt;" style="strokeWidth=2;html=1;shape=mxgraph.flowchart.start_2;whiteSpace=wrap;" parent="WIyWlLk6GJQsqaUBKTNV-1" vertex="1">
          <mxGeometry x="2319" y="1998" width="40" height="40" as="geometry" />
        </mxCell>
        <mxCell id="PeQBqCHpVeVmycIjUM5T-17" value="ST: พยาบาลผู้ป่วยใน/ห้อง Lab&lt;br&gt;&amp;nbsp;รคส.แพทย์, เก็บ Specimen,&lt;br&gt;Key Order" style="rounded=1;whiteSpace=wrap;html=1;fontSize=12;glass=0;strokeWidth=1;shadow=0;fontFamily=space mono;fontSource=https%3A%2F%2Ffonts.googleapis.com%2Fcss%3Ffamily%3Dspace%2Bmono;" parent="WIyWlLk6GJQsqaUBKTNV-1" vertex="1">
          <mxGeometry x="2239.5" y="1430.5" width="200" height="52.5" as="geometry" />
        </mxCell>
        <mxCell id="PeQBqCHpVeVmycIjUM5T-18" value="ST: ห้อง Lab&lt;br&gt;รคส.แพทย์, เก็บ Specimen,&lt;br&gt;ส่งต่อ ST อื่นหรือหน้าห้องตรวจ" style="rounded=1;whiteSpace=wrap;html=1;fontSize=12;glass=0;strokeWidth=1;shadow=0;fontFamily=space mono;fontSource=https%3A%2F%2Ffonts.googleapis.com%2Fcss%3Ffamily%3Dspace%2Bmono;" parent="WIyWlLk6GJQsqaUBKTNV-1" vertex="1">
          <mxGeometry x="2489" y="1430.5" width="200" height="52.5" as="geometry" />
        </mxCell>
        <mxCell id="PeQBqCHpVeVmycIjUM5T-19" value="ST: ห้อง Lab&lt;br&gt;Request Order ไปที่ระบบ LIS&lt;br&gt;บันทึกผล Lab ที่อ่านค่าได้" style="rounded=1;whiteSpace=wrap;html=1;fontSize=12;glass=0;strokeWidth=1;shadow=0;fontFamily=space mono;fontSource=https%3A%2F%2Ffonts.googleapis.com%2Fcss%3Ffamily%3Dspace%2Bmono;" parent="WIyWlLk6GJQsqaUBKTNV-1" vertex="1">
          <mxGeometry x="2729" y="1430.5" width="200" height="52.5" as="geometry" />
        </mxCell>
        <mxCell id="PeQBqCHpVeVmycIjUM5T-20" style="edgeStyle=orthogonalEdgeStyle;rounded=0;orthogonalLoop=1;jettySize=auto;html=1;endArrow=block;endFill=0;entryX=0;entryY=0.5;entryDx=0;entryDy=0;exitX=1;exitY=0.5;exitDx=0;exitDy=0;" parent="WIyWlLk6GJQsqaUBKTNV-1" source="PeQBqCHpVeVmycIjUM5T-18" target="PeQBqCHpVeVmycIjUM5T-19" edge="1">
          <mxGeometry relative="1" as="geometry">
            <mxPoint x="2689" y="1456.75" as="sourcePoint" />
            <mxPoint x="1900" y="1511.75" as="targetPoint" />
          </mxGeometry>
        </mxCell>
        <mxCell id="PeQBqCHpVeVmycIjUM5T-21" value="&lt;font data-font-src=&quot;https://fonts.googleapis.com/css?family=space+mono&quot; face=&quot;space mono&quot;&gt;4&lt;/font&gt;" style="strokeWidth=2;html=1;shape=mxgraph.flowchart.start_2;whiteSpace=wrap;" parent="WIyWlLk6GJQsqaUBKTNV-1" vertex="1">
          <mxGeometry x="2070" y="1043" width="40" height="40" as="geometry" />
        </mxCell>
        <mxCell id="PeQBqCHpVeVmycIjUM5T-23" value="ST: พยาบาลผู้ป่วยใน&lt;br&gt;บันทึกกิจกรรมพยาบาลในแต่ละวัน,&lt;br&gt;ค่าใช้จ่ายที่เกิดขึ้น" style="rounded=1;whiteSpace=wrap;html=1;fontSize=12;glass=0;strokeWidth=1;shadow=0;fontFamily=space mono;fontSource=https%3A%2F%2Ffonts.googleapis.com%2Fcss%3Ffamily%3Dspace%2Bmono;" parent="WIyWlLk6GJQsqaUBKTNV-1" vertex="1">
          <mxGeometry x="1990" y="1258" width="200" height="52.5" as="geometry" />
        </mxCell>
        <mxCell id="PeQBqCHpVeVmycIjUM5T-24" value="แพทย์ผู้ป่วยใน&lt;br&gt;ตรวจอาการผู้ป่วยในแต่ละวัน&lt;br&gt;เขียนคำสั่งลง Doctor Order" style="rounded=1;whiteSpace=wrap;html=1;fontSize=12;glass=0;strokeWidth=1;shadow=0;fontFamily=space mono;fontSource=https%3A%2F%2Ffonts.googleapis.com%2Fcss%3Ffamily%3Dspace%2Bmono;" parent="WIyWlLk6GJQsqaUBKTNV-1" vertex="1">
          <mxGeometry x="1990" y="1338" width="200" height="52.5" as="geometry" />
        </mxCell>
        <mxCell id="PeQBqCHpVeVmycIjUM5T-39" value="ST: พยาบาลผู้ป่วยใน/ห้อง Lab&lt;br&gt;&amp;nbsp;รคส.แพทย์, เก็บ Specimen,&lt;br&gt;Key Order" style="rounded=1;whiteSpace=wrap;html=1;fontSize=12;glass=0;strokeWidth=1;shadow=0;fontFamily=space mono;fontSource=https%3A%2F%2Ffonts.googleapis.com%2Fcss%3Ffamily%3Dspace%2Bmono;" parent="WIyWlLk6GJQsqaUBKTNV-1" vertex="1">
          <mxGeometry x="2239.5" y="1430.5" width="200" height="52.5" as="geometry" />
        </mxCell>
        <mxCell id="PeQBqCHpVeVmycIjUM5T-40" value="ST: ห้อง Lab&lt;br&gt;รคส.แพทย์, เก็บ Specimen" style="rounded=1;whiteSpace=wrap;html=1;fontSize=12;glass=0;strokeWidth=1;shadow=0;fontFamily=space mono;fontSource=https%3A%2F%2Ffonts.googleapis.com%2Fcss%3Ffamily%3Dspace%2Bmono;" parent="WIyWlLk6GJQsqaUBKTNV-1" vertex="1">
          <mxGeometry x="2489" y="1430.5" width="200" height="52.5" as="geometry" />
        </mxCell>
        <mxCell id="PeQBqCHpVeVmycIjUM5T-42" style="edgeStyle=orthogonalEdgeStyle;rounded=0;orthogonalLoop=1;jettySize=auto;html=1;endArrow=block;endFill=0;entryX=0;entryY=0.5;entryDx=0;entryDy=0;exitX=1;exitY=0.5;exitDx=0;exitDy=0;" parent="WIyWlLk6GJQsqaUBKTNV-1" source="PeQBqCHpVeVmycIjUM5T-39" target="PeQBqCHpVeVmycIjUM5T-40" edge="1">
          <mxGeometry relative="1" as="geometry">
            <mxPoint x="2699" y="1466.75" as="sourcePoint" />
            <mxPoint x="2739" y="1466.75" as="targetPoint" />
          </mxGeometry>
        </mxCell>
        <mxCell id="PeQBqCHpVeVmycIjUM5T-43" value="ST: พยาบาลผู้ป่วยใน/ห้อง X-ray&lt;br&gt;&amp;nbsp;รคส.แพทย์,&amp;nbsp;Key Order" style="rounded=1;whiteSpace=wrap;html=1;fontSize=12;glass=0;strokeWidth=1;shadow=0;fontFamily=space mono;fontSource=https%3A%2F%2Ffonts.googleapis.com%2Fcss%3Ffamily%3Dspace%2Bmono;" parent="WIyWlLk6GJQsqaUBKTNV-1" vertex="1">
          <mxGeometry x="2239.5" y="1530.5" width="200" height="52.5" as="geometry" />
        </mxCell>
        <mxCell id="PeQBqCHpVeVmycIjUM5T-44" value="Yes" style="edgeStyle=orthogonalEdgeStyle;rounded=0;html=1;jettySize=auto;orthogonalLoop=1;fontSize=11;endArrow=block;endFill=0;endSize=8;strokeWidth=1;shadow=0;labelBackgroundColor=none;fontFamily=space mono;fontSource=https%3A%2F%2Ffonts.googleapis.com%2Fcss%3Ffamily%3Dspace%2Bmono;exitX=1;exitY=0.5;exitDx=0;exitDy=0;entryX=0;entryY=0.5;entryDx=0;entryDy=0;" parent="WIyWlLk6GJQsqaUBKTNV-1" source="PeQBqCHpVeVmycIjUM5T-4" target="PeQBqCHpVeVmycIjUM5T-43" edge="1">
          <mxGeometry x="-0.1591" y="19" relative="1" as="geometry">
            <mxPoint as="offset" />
            <mxPoint x="2182" y="1466.75" as="sourcePoint" />
            <mxPoint x="2239" y="1556.75" as="targetPoint" />
          </mxGeometry>
        </mxCell>
        <mxCell id="PeQBqCHpVeVmycIjUM5T-46" value="ST: ห้อง X-ray&lt;br&gt;รคส.แพทย์, นำผู้ป่วยไปทำกิจกรรม" style="rounded=1;whiteSpace=wrap;html=1;fontSize=12;glass=0;strokeWidth=1;shadow=0;fontFamily=space mono;fontSource=https%3A%2F%2Ffonts.googleapis.com%2Fcss%3Ffamily%3Dspace%2Bmono;" parent="WIyWlLk6GJQsqaUBKTNV-1" vertex="1">
          <mxGeometry x="2489" y="1530.5" width="200" height="52.5" as="geometry" />
        </mxCell>
        <mxCell id="PeQBqCHpVeVmycIjUM5T-47" value="ST: ห้อง X-ray&lt;br&gt;Request Order ไปที่ระบบ PAC&lt;br&gt;บันทึกผล X-ray ที่อ่านค่าได้" style="rounded=1;whiteSpace=wrap;html=1;fontSize=12;glass=0;strokeWidth=1;shadow=0;fontFamily=space mono;fontSource=https%3A%2F%2Ffonts.googleapis.com%2Fcss%3Ffamily%3Dspace%2Bmono;" parent="WIyWlLk6GJQsqaUBKTNV-1" vertex="1">
          <mxGeometry x="2729" y="1530.5" width="200" height="52.5" as="geometry" />
        </mxCell>
        <mxCell id="PeQBqCHpVeVmycIjUM5T-48" style="edgeStyle=orthogonalEdgeStyle;rounded=0;orthogonalLoop=1;jettySize=auto;html=1;endArrow=block;endFill=0;entryX=0;entryY=0.5;entryDx=0;entryDy=0;exitX=1;exitY=0.5;exitDx=0;exitDy=0;" parent="WIyWlLk6GJQsqaUBKTNV-1" source="PeQBqCHpVeVmycIjUM5T-43" target="PeQBqCHpVeVmycIjUM5T-46" edge="1">
          <mxGeometry relative="1" as="geometry">
            <mxPoint x="2450" y="1466.75" as="sourcePoint" />
            <mxPoint x="2499" y="1466.75" as="targetPoint" />
          </mxGeometry>
        </mxCell>
        <mxCell id="PeQBqCHpVeVmycIjUM5T-49" style="edgeStyle=orthogonalEdgeStyle;rounded=0;orthogonalLoop=1;jettySize=auto;html=1;endArrow=block;endFill=0;entryX=0;entryY=0.5;entryDx=0;entryDy=0;exitX=1;exitY=0.5;exitDx=0;exitDy=0;" parent="WIyWlLk6GJQsqaUBKTNV-1" source="PeQBqCHpVeVmycIjUM5T-46" target="PeQBqCHpVeVmycIjUM5T-47" edge="1">
          <mxGeometry relative="1" as="geometry">
            <mxPoint x="2460" y="1476.75" as="sourcePoint" />
            <mxPoint x="2509" y="1476.75" as="targetPoint" />
          </mxGeometry>
        </mxCell>
        <mxCell id="PeQBqCHpVeVmycIjUM5T-50" value="ST: ห้องที่ต้องทำการ...&lt;br&gt;ทำหัตถการแพทย์-กิจกรรมพยาบาล" style="rounded=1;whiteSpace=wrap;html=1;fontSize=12;glass=0;strokeWidth=1;shadow=0;fontFamily=space mono;fontSource=https%3A%2F%2Ffonts.googleapis.com%2Fcss%3Ffamily%3Dspace%2Bmono;" parent="WIyWlLk6GJQsqaUBKTNV-1" vertex="1">
          <mxGeometry x="2489" y="1632.5" width="200" height="52.5" as="geometry" />
        </mxCell>
        <mxCell id="PeQBqCHpVeVmycIjUM5T-51" value="ST: ห้องที่ต้องทำการ...&lt;br&gt;บันทึกทำหัตการ ค่าใช้จ่ายที่เพิ่มเติม" style="rounded=1;whiteSpace=wrap;html=1;fontSize=12;glass=0;strokeWidth=1;shadow=0;fontFamily=space mono;fontSource=https%3A%2F%2Ffonts.googleapis.com%2Fcss%3Ffamily%3Dspace%2Bmono;" parent="WIyWlLk6GJQsqaUBKTNV-1" vertex="1">
          <mxGeometry x="2729" y="1632.5" width="200" height="52.5" as="geometry" />
        </mxCell>
        <mxCell id="PeQBqCHpVeVmycIjUM5T-52" style="edgeStyle=orthogonalEdgeStyle;rounded=0;orthogonalLoop=1;jettySize=auto;html=1;endArrow=block;endFill=0;entryX=0;entryY=0.5;entryDx=0;entryDy=0;exitX=1;exitY=0.5;exitDx=0;exitDy=0;" parent="WIyWlLk6GJQsqaUBKTNV-1" source="PeQBqCHpVeVmycIjUM5T-50" target="PeQBqCHpVeVmycIjUM5T-51" edge="1">
          <mxGeometry relative="1" as="geometry">
            <mxPoint x="2689" y="1658.75" as="sourcePoint" />
            <mxPoint x="1900" y="1713.75" as="targetPoint" />
          </mxGeometry>
        </mxCell>
        <mxCell id="PeQBqCHpVeVmycIjUM5T-53" value="ST: พยาบาลผู้ป่วยใน&lt;br&gt;&amp;nbsp;รคส.แพทย์, ประสานงาน-เตรียม&lt;br&gt;ห้องทำหัตถการ,&amp;nbsp;Key Order" style="rounded=1;whiteSpace=wrap;html=1;fontSize=12;glass=0;strokeWidth=1;shadow=0;fontFamily=space mono;fontSource=https%3A%2F%2Ffonts.googleapis.com%2Fcss%3Ffamily%3Dspace%2Bmono;" parent="WIyWlLk6GJQsqaUBKTNV-1" vertex="1">
          <mxGeometry x="2239.5" y="1632.5" width="200" height="52.5" as="geometry" />
        </mxCell>
        <mxCell id="PeQBqCHpVeVmycIjUM5T-54" value="Yes" style="edgeStyle=orthogonalEdgeStyle;rounded=0;html=1;jettySize=auto;orthogonalLoop=1;fontSize=11;endArrow=block;endFill=0;endSize=8;strokeWidth=1;shadow=0;labelBackgroundColor=none;fontFamily=space mono;fontSource=https%3A%2F%2Ffonts.googleapis.com%2Fcss%3Ffamily%3Dspace%2Bmono;entryX=0;entryY=0.5;entryDx=0;entryDy=0;" parent="WIyWlLk6GJQsqaUBKTNV-1" source="PeQBqCHpVeVmycIjUM5T-5" target="PeQBqCHpVeVmycIjUM5T-53" edge="1">
          <mxGeometry x="-0.1591" y="19" relative="1" as="geometry">
            <mxPoint as="offset" />
            <mxPoint x="2182" y="1566.75" as="sourcePoint" />
            <mxPoint x="2250" y="1566.75" as="targetPoint" />
          </mxGeometry>
        </mxCell>
        <mxCell id="PeQBqCHpVeVmycIjUM5T-56" style="edgeStyle=orthogonalEdgeStyle;rounded=0;orthogonalLoop=1;jettySize=auto;html=1;endArrow=block;endFill=0;entryX=0;entryY=0.5;entryDx=0;entryDy=0;exitX=1;exitY=0.5;exitDx=0;exitDy=0;" parent="WIyWlLk6GJQsqaUBKTNV-1" source="PeQBqCHpVeVmycIjUM5T-53" target="PeQBqCHpVeVmycIjUM5T-50" edge="1">
          <mxGeometry relative="1" as="geometry">
            <mxPoint x="2450" y="1570.5" as="sourcePoint" />
            <mxPoint x="2499" y="1570.5" as="targetPoint" />
          </mxGeometry>
        </mxCell>
        <mxCell id="PeQBqCHpVeVmycIjUM5T-59" value="ยา STAT/&lt;br&gt;One Day?" style="rhombus;whiteSpace=wrap;html=1;shadow=0;fontFamily=space mono;fontSize=12;align=center;strokeWidth=1;spacing=6;spacingTop=-4;fontSource=https%3A%2F%2Ffonts.googleapis.com%2Fcss%3Ffamily%3Dspace%2Bmono;" parent="WIyWlLk6GJQsqaUBKTNV-1" vertex="1">
          <mxGeometry x="2489" y="1728.75" width="166" height="60" as="geometry" />
        </mxCell>
        <mxCell id="PeQBqCHpVeVmycIjUM5T-64" value="ST: ห้องยาผู้ป่วยใน&lt;br&gt;&amp;nbsp;รคส.แพทย์,&amp;nbsp;Key Order, &lt;br&gt;ตรวจสอบใบสั่งยา" style="rounded=1;whiteSpace=wrap;html=1;fontSize=12;glass=0;strokeWidth=1;shadow=0;fontFamily=space mono;fontSource=https%3A%2F%2Ffonts.googleapis.com%2Fcss%3Ffamily%3Dspace%2Bmono;" parent="WIyWlLk6GJQsqaUBKTNV-1" vertex="1">
          <mxGeometry x="2239.5" y="1732.5" width="200" height="52.5" as="geometry" />
        </mxCell>
        <mxCell id="PeQBqCHpVeVmycIjUM5T-65" style="edgeStyle=orthogonalEdgeStyle;rounded=0;orthogonalLoop=1;jettySize=auto;html=1;endArrow=block;endFill=0;entryX=0;entryY=0.5;entryDx=0;entryDy=0;exitX=1;exitY=0.5;exitDx=0;exitDy=0;" parent="WIyWlLk6GJQsqaUBKTNV-1" source="PeQBqCHpVeVmycIjUM5T-64" target="PeQBqCHpVeVmycIjUM5T-59" edge="1">
          <mxGeometry relative="1" as="geometry">
            <mxPoint x="2450" y="1668.75" as="sourcePoint" />
            <mxPoint x="2499" y="1668.75" as="targetPoint" />
          </mxGeometry>
        </mxCell>
        <mxCell id="PeQBqCHpVeVmycIjUM5T-66" value="No" style="rounded=0;html=1;jettySize=auto;orthogonalLoop=1;fontSize=11;endArrow=block;endFill=0;endSize=8;strokeWidth=1;shadow=0;labelBackgroundColor=none;edgeStyle=orthogonalEdgeStyle;fontFamily=space mono;fontSource=https%3A%2F%2Ffonts.googleapis.com%2Fcss%3Ffamily%3Dspace%2Bmono;entryX=0.5;entryY=0;entryDx=0;entryDy=0;exitX=0.5;exitY=1;exitDx=0;exitDy=0;" parent="WIyWlLk6GJQsqaUBKTNV-1" source="PeQBqCHpVeVmycIjUM5T-59" target="PeQBqCHpVeVmycIjUM5T-68" edge="1">
          <mxGeometry y="13" relative="1" as="geometry">
            <mxPoint as="offset" />
            <mxPoint x="2572" y="1791.75" as="sourcePoint" />
            <mxPoint x="2572" y="1821.75" as="targetPoint" />
          </mxGeometry>
        </mxCell>
        <mxCell id="PeQBqCHpVeVmycIjUM5T-68" value="ยา Continue" style="rounded=1;whiteSpace=wrap;html=1;fontSize=12;glass=0;strokeWidth=1;shadow=0;fontFamily=space mono;fontSource=https%3A%2F%2Ffonts.googleapis.com%2Fcss%3Ffamily%3Dspace%2Bmono;" parent="WIyWlLk6GJQsqaUBKTNV-1" vertex="1">
          <mxGeometry x="2495" y="1832.25" width="154" height="39.5" as="geometry" />
        </mxCell>
        <mxCell id="PeQBqCHpVeVmycIjUM5T-70" value="ST: ห้องยาผู้ป่วยใน&lt;br&gt;สร้าง Drug Profile ในระบบ" style="rounded=1;whiteSpace=wrap;html=1;fontSize=12;glass=0;strokeWidth=1;shadow=0;fontFamily=space mono;fontSource=https%3A%2F%2Ffonts.googleapis.com%2Fcss%3Ffamily%3Dspace%2Bmono;" parent="WIyWlLk6GJQsqaUBKTNV-1" vertex="1">
          <mxGeometry x="2729" y="1732.5" width="200" height="52.5" as="geometry" />
        </mxCell>
        <mxCell id="PeQBqCHpVeVmycIjUM5T-71" style="edgeStyle=orthogonalEdgeStyle;rounded=0;orthogonalLoop=1;jettySize=auto;html=1;endArrow=block;endFill=0;entryX=0;entryY=0.5;entryDx=0;entryDy=0;exitX=1;exitY=0.5;exitDx=0;exitDy=0;" parent="WIyWlLk6GJQsqaUBKTNV-1" source="PeQBqCHpVeVmycIjUM5T-59" target="PeQBqCHpVeVmycIjUM5T-70" edge="1">
          <mxGeometry relative="1" as="geometry">
            <mxPoint x="2699" y="1668.75" as="sourcePoint" />
            <mxPoint x="2739" y="1668.75" as="targetPoint" />
          </mxGeometry>
        </mxCell>
        <mxCell id="PeQBqCHpVeVmycIjUM5T-72" value="ST: ห้องยาผู้ป่วยใน&lt;br&gt;สร้าง Drug Profile ในระบบ, &lt;br&gt;ตรวจสอบแก้ไขรายการยา" style="rounded=1;whiteSpace=wrap;html=1;fontSize=12;glass=0;strokeWidth=1;shadow=0;fontFamily=space mono;fontSource=https%3A%2F%2Ffonts.googleapis.com%2Fcss%3Ffamily%3Dspace%2Bmono;" parent="WIyWlLk6GJQsqaUBKTNV-1" vertex="1">
          <mxGeometry x="2472" y="1901.75" width="200" height="52.5" as="geometry" />
        </mxCell>
        <mxCell id="PeQBqCHpVeVmycIjUM5T-73" style="edgeStyle=orthogonalEdgeStyle;rounded=0;orthogonalLoop=1;jettySize=auto;html=1;endArrow=block;endFill=0;entryX=0.5;entryY=0;entryDx=0;entryDy=0;" parent="WIyWlLk6GJQsqaUBKTNV-1" target="PeQBqCHpVeVmycIjUM5T-72" edge="1">
          <mxGeometry relative="1" as="geometry">
            <mxPoint x="2572" y="1871.75" as="sourcePoint" />
            <mxPoint x="2499" y="1768.75" as="targetPoint" />
          </mxGeometry>
        </mxCell>
        <mxCell id="PeQBqCHpVeVmycIjUM5T-74" value="ST: ห้องยาผู้ป่วยใน&lt;br&gt;จัดเตรียมยาตาม Profile, &lt;br&gt;ส่งยาไปที่หอผู้ป่วย" style="rounded=1;whiteSpace=wrap;html=1;fontSize=12;glass=0;strokeWidth=1;shadow=0;fontFamily=space mono;fontSource=https%3A%2F%2Ffonts.googleapis.com%2Fcss%3Ffamily%3Dspace%2Bmono;" parent="WIyWlLk6GJQsqaUBKTNV-1" vertex="1">
          <mxGeometry x="2729" y="1901.75" width="200" height="52.5" as="geometry" />
        </mxCell>
        <mxCell id="PeQBqCHpVeVmycIjUM5T-75" value="&lt;font data-font-src=&quot;https://fonts.googleapis.com/css?family=space+mono&quot; face=&quot;space mono&quot;&gt;8&lt;/font&gt;" style="strokeWidth=2;html=1;shape=mxgraph.flowchart.start_2;whiteSpace=wrap;" parent="WIyWlLk6GJQsqaUBKTNV-1" vertex="1">
          <mxGeometry x="2809" y="1825.75" width="40" height="40" as="geometry" />
        </mxCell>
        <mxCell id="PeQBqCHpVeVmycIjUM5T-76" style="edgeStyle=orthogonalEdgeStyle;rounded=0;orthogonalLoop=1;jettySize=auto;html=1;endArrow=block;endFill=0;entryX=0;entryY=0.5;entryDx=0;entryDy=0;exitX=1;exitY=0.5;exitDx=0;exitDy=0;entryPerimeter=0;" parent="WIyWlLk6GJQsqaUBKTNV-1" source="PeQBqCHpVeVmycIjUM5T-72" target="PeQBqCHpVeVmycIjUM5T-75" edge="1">
          <mxGeometry relative="1" as="geometry">
            <mxPoint x="2582" y="1881.75" as="sourcePoint" />
            <mxPoint x="2582" y="1911.75" as="targetPoint" />
            <Array as="points">
              <mxPoint x="2699" y="1927.75" />
              <mxPoint x="2699" y="1845.75" />
            </Array>
          </mxGeometry>
        </mxCell>
        <mxCell id="PeQBqCHpVeVmycIjUM5T-77" style="edgeStyle=orthogonalEdgeStyle;rounded=0;orthogonalLoop=1;jettySize=auto;html=1;endArrow=block;endFill=0;entryX=0.5;entryY=0;entryDx=0;entryDy=0;exitX=0.5;exitY=1;exitDx=0;exitDy=0;exitPerimeter=0;" parent="WIyWlLk6GJQsqaUBKTNV-1" source="PeQBqCHpVeVmycIjUM5T-75" target="PeQBqCHpVeVmycIjUM5T-74" edge="1">
          <mxGeometry relative="1" as="geometry">
            <mxPoint x="2582" y="1881.75" as="sourcePoint" />
            <mxPoint x="2582" y="1911.75" as="targetPoint" />
          </mxGeometry>
        </mxCell>
        <mxCell id="PeQBqCHpVeVmycIjUM5T-78" style="edgeStyle=orthogonalEdgeStyle;rounded=0;orthogonalLoop=1;jettySize=auto;html=1;endArrow=block;endFill=0;entryX=0.5;entryY=0;entryDx=0;entryDy=0;exitX=0.5;exitY=1;exitDx=0;exitDy=0;entryPerimeter=0;" parent="WIyWlLk6GJQsqaUBKTNV-1" source="PeQBqCHpVeVmycIjUM5T-70" target="PeQBqCHpVeVmycIjUM5T-75" edge="1">
          <mxGeometry relative="1" as="geometry">
            <mxPoint x="2840" y="1875.75" as="sourcePoint" />
            <mxPoint x="2840" y="1911.75" as="targetPoint" />
          </mxGeometry>
        </mxCell>
        <mxCell id="PeQBqCHpVeVmycIjUM5T-81" value="ST: พยาบาลผู้ป่วยใน&lt;br&gt;&amp;nbsp;ตรวจสอบรายการยา, &lt;br&gt;จ่ายยาให้ผู้ป่วยตามมื้อ-ช่วงเวลา" style="rounded=1;whiteSpace=wrap;html=1;fontSize=12;glass=0;strokeWidth=1;shadow=0;fontFamily=space mono;fontSource=https%3A%2F%2Ffonts.googleapis.com%2Fcss%3Ffamily%3Dspace%2Bmono;" parent="WIyWlLk6GJQsqaUBKTNV-1" vertex="1">
          <mxGeometry x="2472" y="1991.75" width="200" height="52.5" as="geometry" />
        </mxCell>
        <mxCell id="PeQBqCHpVeVmycIjUM5T-82" style="rounded=0;orthogonalLoop=1;jettySize=auto;html=1;endArrow=block;endFill=0;entryX=0.5;entryY=0;entryDx=0;entryDy=0;exitX=0.5;exitY=1;exitDx=0;exitDy=0;dashed=1;" parent="WIyWlLk6GJQsqaUBKTNV-1" source="PeQBqCHpVeVmycIjUM5T-39" target="PeQBqCHpVeVmycIjUM5T-43" edge="1">
          <mxGeometry relative="1" as="geometry">
            <mxPoint x="2329" y="1491.75" as="sourcePoint" />
            <mxPoint x="2329" y="1539.75" as="targetPoint" />
          </mxGeometry>
        </mxCell>
        <mxCell id="PeQBqCHpVeVmycIjUM5T-83" value="What if" style="edgeLabel;html=1;align=center;verticalAlign=middle;resizable=0;points=[];fontFamily=space mono;fontSource=https%3A%2F%2Ffonts.googleapis.com%2Fcss%3Ffamily%3Dspace%2Bmono;" parent="PeQBqCHpVeVmycIjUM5T-82" vertex="1" connectable="0">
          <mxGeometry x="0.288" y="-1" relative="1" as="geometry">
            <mxPoint x="31" y="-7" as="offset" />
          </mxGeometry>
        </mxCell>
        <mxCell id="PeQBqCHpVeVmycIjUM5T-84" style="rounded=0;orthogonalLoop=1;jettySize=auto;html=1;endArrow=block;endFill=0;exitX=0.5;exitY=1;exitDx=0;exitDy=0;dashed=1;entryX=0.5;entryY=0;entryDx=0;entryDy=0;" parent="WIyWlLk6GJQsqaUBKTNV-1" source="PeQBqCHpVeVmycIjUM5T-43" target="PeQBqCHpVeVmycIjUM5T-53" edge="1">
          <mxGeometry relative="1" as="geometry">
            <mxPoint x="2329" y="1583.75" as="sourcePoint" />
            <mxPoint x="2339" y="1601.75" as="targetPoint" />
          </mxGeometry>
        </mxCell>
        <mxCell id="PeQBqCHpVeVmycIjUM5T-85" value="What if" style="edgeLabel;html=1;align=center;verticalAlign=middle;resizable=0;points=[];fontFamily=space mono;fontSource=https%3A%2F%2Ffonts.googleapis.com%2Fcss%3Ffamily%3Dspace%2Bmono;" parent="PeQBqCHpVeVmycIjUM5T-84" vertex="1" connectable="0">
          <mxGeometry x="0.288" y="-1" relative="1" as="geometry">
            <mxPoint x="31" y="-7" as="offset" />
          </mxGeometry>
        </mxCell>
        <mxCell id="PeQBqCHpVeVmycIjUM5T-87" style="rounded=0;orthogonalLoop=1;jettySize=auto;html=1;endArrow=block;endFill=0;exitX=0.5;exitY=1;exitDx=0;exitDy=0;dashed=1;entryX=0.5;entryY=0;entryDx=0;entryDy=0;" parent="WIyWlLk6GJQsqaUBKTNV-1" source="PeQBqCHpVeVmycIjUM5T-53" target="PeQBqCHpVeVmycIjUM5T-64" edge="1">
          <mxGeometry relative="1" as="geometry">
            <mxPoint x="2350" y="1592.75" as="sourcePoint" />
            <mxPoint x="2350" y="1642.75" as="targetPoint" />
          </mxGeometry>
        </mxCell>
        <mxCell id="PeQBqCHpVeVmycIjUM5T-88" value="What if" style="edgeLabel;html=1;align=center;verticalAlign=middle;resizable=0;points=[];fontFamily=space mono;fontSource=https%3A%2F%2Ffonts.googleapis.com%2Fcss%3Ffamily%3Dspace%2Bmono;" parent="PeQBqCHpVeVmycIjUM5T-87" vertex="1" connectable="0">
          <mxGeometry x="0.288" y="-1" relative="1" as="geometry">
            <mxPoint x="31" y="-7" as="offset" />
          </mxGeometry>
        </mxCell>
        <mxCell id="PeQBqCHpVeVmycIjUM5T-89" value="&lt;font data-font-src=&quot;https://fonts.googleapis.com/css?family=space+mono&quot; face=&quot;space mono&quot;&gt;9&lt;/font&gt;" style="strokeWidth=2;html=1;shape=mxgraph.flowchart.start_2;whiteSpace=wrap;" parent="WIyWlLk6GJQsqaUBKTNV-1" vertex="1">
          <mxGeometry x="2070" y="1190.5" width="40" height="40" as="geometry" />
        </mxCell>
        <mxCell id="PeQBqCHpVeVmycIjUM5T-92" style="edgeStyle=orthogonalEdgeStyle;rounded=0;orthogonalLoop=1;jettySize=auto;html=1;endArrow=block;endFill=0;entryX=1;entryY=0.5;entryDx=0;entryDy=0;exitX=0.5;exitY=1;exitDx=0;exitDy=0;" parent="WIyWlLk6GJQsqaUBKTNV-1" source="PeQBqCHpVeVmycIjUM5T-74" target="PeQBqCHpVeVmycIjUM5T-81" edge="1">
          <mxGeometry relative="1" as="geometry">
            <mxPoint x="2839" y="1876" as="sourcePoint" />
            <mxPoint x="2839" y="1912" as="targetPoint" />
          </mxGeometry>
        </mxCell>
        <mxCell id="PeQBqCHpVeVmycIjUM5T-93" value="Order ยา?" style="rhombus;whiteSpace=wrap;html=1;shadow=0;fontFamily=space mono;fontSize=12;align=center;strokeWidth=1;spacing=6;spacingTop=-4;fontSource=https%3A%2F%2Ffonts.googleapis.com%2Fcss%3Ffamily%3Dspace%2Bmono;" parent="WIyWlLk6GJQsqaUBKTNV-1" vertex="1">
          <mxGeometry x="2007" y="1728.75" width="166" height="60" as="geometry" />
        </mxCell>
        <mxCell id="PeQBqCHpVeVmycIjUM5T-94" value="ST: พยาบาลผู้ป่วยใน&lt;br&gt;&amp;nbsp;เตรียม Discharge,&lt;br&gt;Key Order ให้ครบ" style="rounded=1;whiteSpace=wrap;html=1;fontSize=12;glass=0;strokeWidth=1;shadow=0;fontFamily=space mono;fontSource=https%3A%2F%2Ffonts.googleapis.com%2Fcss%3Ffamily%3Dspace%2Bmono;" parent="WIyWlLk6GJQsqaUBKTNV-1" vertex="1">
          <mxGeometry x="1990" y="1928" width="200" height="52.5" as="geometry" />
        </mxCell>
        <mxCell id="PeQBqCHpVeVmycIjUM5T-95" value="No" style="rounded=0;html=1;jettySize=auto;orthogonalLoop=1;fontSize=11;endArrow=block;endFill=0;endSize=8;strokeWidth=1;shadow=0;labelBackgroundColor=none;edgeStyle=orthogonalEdgeStyle;fontFamily=space mono;fontSource=https%3A%2F%2Ffonts.googleapis.com%2Fcss%3Ffamily%3Dspace%2Bmono;exitX=0.5;exitY=1;exitDx=0;exitDy=0;" parent="WIyWlLk6GJQsqaUBKTNV-1" source="PeQBqCHpVeVmycIjUM5T-93" target="PeQBqCHpVeVmycIjUM5T-96" edge="1">
          <mxGeometry y="13" relative="1" as="geometry">
            <mxPoint as="offset" />
            <mxPoint x="2099" y="1699" as="sourcePoint" />
            <mxPoint x="2069" y="1818" as="targetPoint" />
          </mxGeometry>
        </mxCell>
        <mxCell id="PeQBqCHpVeVmycIjUM5T-96" value="ต้องการ Discharge?" style="rhombus;whiteSpace=wrap;html=1;shadow=0;fontFamily=space mono;fontSize=12;align=center;strokeWidth=1;spacing=6;spacingTop=-4;fontSource=https%3A%2F%2Ffonts.googleapis.com%2Fcss%3Ffamily%3Dspace%2Bmono;" parent="WIyWlLk6GJQsqaUBKTNV-1" vertex="1">
          <mxGeometry x="2007" y="1832.25" width="166" height="60" as="geometry" />
        </mxCell>
        <mxCell id="PeQBqCHpVeVmycIjUM5T-97" value="No" style="rounded=0;html=1;jettySize=auto;orthogonalLoop=1;fontSize=11;endArrow=block;endFill=0;endSize=8;strokeWidth=1;shadow=0;labelBackgroundColor=none;edgeStyle=orthogonalEdgeStyle;fontFamily=space mono;fontSource=https%3A%2F%2Ffonts.googleapis.com%2Fcss%3Ffamily%3Dspace%2Bmono;exitX=1;exitY=0.5;exitDx=0;exitDy=0;entryX=0.5;entryY=0;entryDx=0;entryDy=0;entryPerimeter=0;" parent="WIyWlLk6GJQsqaUBKTNV-1" source="PeQBqCHpVeVmycIjUM5T-96" target="PeQBqCHpVeVmycIjUM5T-16" edge="1">
          <mxGeometry y="13" relative="1" as="geometry">
            <mxPoint as="offset" />
            <mxPoint x="2099" y="1799" as="sourcePoint" />
            <mxPoint x="2099" y="1842" as="targetPoint" />
          </mxGeometry>
        </mxCell>
        <mxCell id="PeQBqCHpVeVmycIjUM5T-98" style="edgeStyle=orthogonalEdgeStyle;rounded=0;orthogonalLoop=1;jettySize=auto;html=1;endArrow=block;endFill=0;entryX=1;entryY=0.5;entryDx=0;entryDy=0;entryPerimeter=0;exitX=0;exitY=0.5;exitDx=0;exitDy=0;" parent="WIyWlLk6GJQsqaUBKTNV-1" source="PeQBqCHpVeVmycIjUM5T-81" target="PeQBqCHpVeVmycIjUM5T-16" edge="1">
          <mxGeometry relative="1" as="geometry">
            <mxPoint x="2582" y="1881.75" as="sourcePoint" />
            <mxPoint x="2582" y="1912" as="targetPoint" />
          </mxGeometry>
        </mxCell>
        <mxCell id="PeQBqCHpVeVmycIjUM5T-100" value="Yes" style="edgeStyle=orthogonalEdgeStyle;rounded=0;html=1;jettySize=auto;orthogonalLoop=1;fontSize=11;endArrow=block;endFill=0;endSize=8;strokeWidth=1;shadow=0;labelBackgroundColor=none;fontFamily=space mono;fontSource=https%3A%2F%2Ffonts.googleapis.com%2Fcss%3Ffamily%3Dspace%2Bmono;exitX=1;exitY=0.5;exitDx=0;exitDy=0;entryX=0;entryY=0.5;entryDx=0;entryDy=0;" parent="WIyWlLk6GJQsqaUBKTNV-1" source="PeQBqCHpVeVmycIjUM5T-93" target="PeQBqCHpVeVmycIjUM5T-64" edge="1">
          <mxGeometry x="-0.1591" y="19" relative="1" as="geometry">
            <mxPoint as="offset" />
            <mxPoint x="2182" y="1669" as="sourcePoint" />
            <mxPoint x="2239" y="1748" as="targetPoint" />
          </mxGeometry>
        </mxCell>
        <mxCell id="PeQBqCHpVeVmycIjUM5T-102" value="Yes" style="edgeStyle=orthogonalEdgeStyle;rounded=0;html=1;jettySize=auto;orthogonalLoop=1;fontSize=11;endArrow=block;endFill=0;endSize=8;strokeWidth=1;shadow=0;labelBackgroundColor=none;fontFamily=space mono;fontSource=https%3A%2F%2Ffonts.googleapis.com%2Fcss%3Ffamily%3Dspace%2Bmono;exitX=0.5;exitY=1;exitDx=0;exitDy=0;entryX=0.5;entryY=0;entryDx=0;entryDy=0;" parent="WIyWlLk6GJQsqaUBKTNV-1" source="PeQBqCHpVeVmycIjUM5T-96" target="PeQBqCHpVeVmycIjUM5T-94" edge="1">
          <mxGeometry x="-0.1591" y="19" relative="1" as="geometry">
            <mxPoint as="offset" />
            <mxPoint x="2182" y="1769" as="sourcePoint" />
            <mxPoint x="2250" y="1769" as="targetPoint" />
          </mxGeometry>
        </mxCell>
        <mxCell id="PeQBqCHpVeVmycIjUM5T-103" value="ST: การเงินผู้ป่วยใน&lt;br&gt;&amp;nbsp;ตรวจสอบ&amp;nbsp;Order ครบแล้ว, &lt;br&gt;พิมพ์ใบ MEMO แจ้ง คชจ." style="rounded=1;whiteSpace=wrap;html=1;fontSize=12;glass=0;strokeWidth=1;shadow=0;fontFamily=space mono;fontSource=https%3A%2F%2Ffonts.googleapis.com%2Fcss%3Ffamily%3Dspace%2Bmono;" parent="WIyWlLk6GJQsqaUBKTNV-1" vertex="1">
          <mxGeometry x="1990" y="2108" width="200" height="52.5" as="geometry" />
        </mxCell>
        <mxCell id="PeQBqCHpVeVmycIjUM5T-104" value="ST: ห้องยาผู้ป่วยใน&lt;br&gt;บันทึกคืนยาในระบบ, Key+&lt;br&gt;เตรียมยากลับบ้าน, ส่งยาให้ผู้ป่วย" style="rounded=1;whiteSpace=wrap;html=1;fontSize=12;glass=0;strokeWidth=1;shadow=0;fontFamily=space mono;fontSource=https%3A%2F%2Ffonts.googleapis.com%2Fcss%3Ffamily%3Dspace%2Bmono;" parent="WIyWlLk6GJQsqaUBKTNV-1" vertex="1">
          <mxGeometry x="1990" y="2018" width="200" height="52.5" as="geometry" />
        </mxCell>
        <mxCell id="PeQBqCHpVeVmycIjUM5T-105" value="ST: การเงินผู้ป่วย&lt;br&gt;พิมพ์ใบเสร็จฯ, ใบแจ้งหนี้, ..." style="rounded=1;whiteSpace=wrap;html=1;fontSize=12;glass=0;strokeWidth=1;shadow=0;fontFamily=space mono;fontSource=https%3A%2F%2Ffonts.googleapis.com%2Fcss%3Ffamily%3Dspace%2Bmono;" parent="WIyWlLk6GJQsqaUBKTNV-1" vertex="1">
          <mxGeometry x="1990" y="2198" width="200" height="52.5" as="geometry" />
        </mxCell>
        <mxCell id="PeQBqCHpVeVmycIjUM5T-106" value="ผู้ป่วยรับบริการเสร็จสิ้น" style="rounded=1;whiteSpace=wrap;html=1;fontSize=12;glass=0;strokeWidth=1;shadow=0;fontFamily=space mono;fontSource=https%3A%2F%2Ffonts.googleapis.com%2Fcss%3Ffamily%3Dspace%2Bmono;" parent="WIyWlLk6GJQsqaUBKTNV-1" vertex="1">
          <mxGeometry x="1990" y="2288" width="200" height="40" as="geometry" />
        </mxCell>
        <mxCell id="PeQBqCHpVeVmycIjUM5T-107" style="edgeStyle=orthogonalEdgeStyle;rounded=0;orthogonalLoop=1;jettySize=auto;html=1;endArrow=block;endFill=0;exitX=0.5;exitY=1;exitDx=0;exitDy=0;entryX=0.5;entryY=0;entryDx=0;entryDy=0;" parent="WIyWlLk6GJQsqaUBKTNV-1" source="PeQBqCHpVeVmycIjUM5T-94" target="PeQBqCHpVeVmycIjUM5T-104" edge="1">
          <mxGeometry relative="1" as="geometry">
            <mxPoint x="2582" y="1881.75" as="sourcePoint" />
            <mxPoint x="2582" y="1912" as="targetPoint" />
          </mxGeometry>
        </mxCell>
        <mxCell id="PeQBqCHpVeVmycIjUM5T-108" value="ผู้ป่วยจำเป็นต้อง&lt;br&gt;พบแพทย์?" style="rhombus;whiteSpace=wrap;html=1;shadow=0;fontFamily=space mono;fontSize=12;align=center;strokeWidth=1;spacing=6;spacingTop=-4;fontSource=https%3A%2F%2Ffonts.googleapis.com%2Fcss%3Ffamily%3Dspace%2Bmono;" parent="WIyWlLk6GJQsqaUBKTNV-1" vertex="1">
          <mxGeometry x="448" y="368" width="166" height="60" as="geometry" />
        </mxCell>
        <mxCell id="PeQBqCHpVeVmycIjUM5T-109" value="ST: ห้องที่ต้องทำการ...&lt;br&gt;(ไตเทียม, ทำแผล, ฉีดยา) &lt;br&gt;ทำบริการ พยบ.,&amp;nbsp;ส่งต่อ ST อื่น" style="rounded=1;whiteSpace=wrap;html=1;fontSize=12;glass=0;strokeWidth=1;shadow=0;fontFamily=space mono;fontSource=https%3A%2F%2Ffonts.googleapis.com%2Fcss%3Ffamily%3Dspace%2Bmono;" parent="WIyWlLk6GJQsqaUBKTNV-1" vertex="1">
          <mxGeometry x="431" y="470" width="200" height="52.5" as="geometry" />
        </mxCell>
        <mxCell id="PeQBqCHpVeVmycIjUM5T-110" value="ST: ห้องที่ต้องทำการ...&lt;br&gt;บันทึกทำหัตการ ค่าใช้จ่ายที่เพิ่มเติม" style="rounded=1;whiteSpace=wrap;html=1;fontSize=12;glass=0;strokeWidth=1;shadow=0;fontFamily=space mono;fontSource=https%3A%2F%2Ffonts.googleapis.com%2Fcss%3Ffamily%3Dspace%2Bmono;" parent="WIyWlLk6GJQsqaUBKTNV-1" vertex="1">
          <mxGeometry x="431" y="557.5" width="200" height="52.5" as="geometry" />
        </mxCell>
        <mxCell id="PeQBqCHpVeVmycIjUM5T-111" value="นัดหมายผู้ป่วย (ถ้ามี)" style="rounded=1;whiteSpace=wrap;html=1;fontSize=12;glass=0;strokeWidth=1;shadow=0;fontFamily=space mono;fontSource=https%3A%2F%2Ffonts.googleapis.com%2Fcss%3Ffamily%3Dspace%2Bmono;" parent="WIyWlLk6GJQsqaUBKTNV-1" vertex="1">
          <mxGeometry x="1068" y="1113" width="162" height="37.5" as="geometry" />
        </mxCell>
        <mxCell id="PeQBqCHpVeVmycIjUM5T-113" value="" style="rounded=0;html=1;jettySize=auto;orthogonalLoop=1;fontSize=11;endArrow=block;endFill=0;endSize=8;strokeWidth=1;shadow=0;labelBackgroundColor=none;fontFamily=space mono;fontSource=https%3A%2F%2Ffonts.googleapis.com%2Fcss%3Ffamily%3Dspace%2Bmono;edgeStyle=orthogonalEdgeStyle;exitX=0.5;exitY=1;exitDx=0;exitDy=0;startArrow=none;exitPerimeter=0;entryX=0.5;entryY=0;entryDx=0;entryDy=0;" parent="WIyWlLk6GJQsqaUBKTNV-1" source="yvNfWJmXIzpKwHx-HULG-10" target="PeQBqCHpVeVmycIjUM5T-111" edge="1">
          <mxGeometry x="-0.3333" y="20" relative="1" as="geometry">
            <mxPoint as="offset" />
            <mxPoint x="1159" y="1156" as="sourcePoint" />
            <mxPoint x="1150" y="1113" as="targetPoint" />
          </mxGeometry>
        </mxCell>
        <mxCell id="PeQBqCHpVeVmycIjUM5T-114" value="Yes" style="edgeStyle=orthogonalEdgeStyle;rounded=0;html=1;jettySize=auto;orthogonalLoop=1;fontSize=11;endArrow=block;endFill=0;endSize=8;strokeWidth=1;shadow=0;labelBackgroundColor=none;fontFamily=space mono;fontSource=https%3A%2F%2Ffonts.googleapis.com%2Fcss%3Ffamily%3Dspace%2Bmono;exitX=1;exitY=0.5;exitDx=0;exitDy=0;entryX=0;entryY=0.5;entryDx=0;entryDy=0;" parent="WIyWlLk6GJQsqaUBKTNV-1" source="PeQBqCHpVeVmycIjUM5T-108" target="1RqYY2e8a6liGjpJobrj-7" edge="1">
          <mxGeometry x="-0.0526" y="10" relative="1" as="geometry">
            <mxPoint as="offset" />
            <mxPoint x="1013" y="505" as="sourcePoint" />
            <mxPoint x="1110" y="505" as="targetPoint" />
          </mxGeometry>
        </mxCell>
        <mxCell id="PeQBqCHpVeVmycIjUM5T-115" style="edgeStyle=orthogonalEdgeStyle;rounded=0;orthogonalLoop=1;jettySize=auto;html=1;endArrow=block;endFill=0;entryX=0.5;entryY=0;entryDx=0;entryDy=0;exitX=0.5;exitY=1;exitDx=0;exitDy=0;exitPerimeter=0;" parent="WIyWlLk6GJQsqaUBKTNV-1" source="qahBIfakXGSAEwPWHKox-19" target="PeQBqCHpVeVmycIjUM5T-108" edge="1">
          <mxGeometry relative="1" as="geometry">
            <mxPoint x="531" y="348" as="sourcePoint" />
            <mxPoint x="541" y="314" as="targetPoint" />
          </mxGeometry>
        </mxCell>
        <mxCell id="PeQBqCHpVeVmycIjUM5T-116" style="edgeStyle=orthogonalEdgeStyle;rounded=0;orthogonalLoop=1;jettySize=auto;html=1;endArrow=block;endFill=0;entryX=0.5;entryY=0;entryDx=0;entryDy=0;exitX=0.5;exitY=1;exitDx=0;exitDy=0;" parent="WIyWlLk6GJQsqaUBKTNV-1" source="PeQBqCHpVeVmycIjUM5T-109" target="PeQBqCHpVeVmycIjUM5T-110" edge="1">
          <mxGeometry relative="1" as="geometry">
            <mxPoint x="640" y="538" as="sourcePoint" />
            <mxPoint x="541" y="378" as="targetPoint" />
          </mxGeometry>
        </mxCell>
        <mxCell id="PeQBqCHpVeVmycIjUM5T-117" value="No" style="rounded=0;html=1;jettySize=auto;orthogonalLoop=1;fontSize=11;endArrow=block;endFill=0;endSize=8;strokeWidth=1;shadow=0;labelBackgroundColor=none;edgeStyle=orthogonalEdgeStyle;fontFamily=space mono;fontSource=https%3A%2F%2Ffonts.googleapis.com%2Fcss%3Ffamily%3Dspace%2Bmono;exitX=0.5;exitY=1;exitDx=0;exitDy=0;entryX=0.5;entryY=0;entryDx=0;entryDy=0;" parent="WIyWlLk6GJQsqaUBKTNV-1" source="PeQBqCHpVeVmycIjUM5T-108" target="PeQBqCHpVeVmycIjUM5T-109" edge="1">
          <mxGeometry y="13" relative="1" as="geometry">
            <mxPoint as="offset" />
            <mxPoint x="930" y="535" as="sourcePoint" />
            <mxPoint x="930" y="575" as="targetPoint" />
          </mxGeometry>
        </mxCell>
        <mxCell id="PeQBqCHpVeVmycIjUM5T-118" style="edgeStyle=orthogonalEdgeStyle;rounded=0;orthogonalLoop=1;jettySize=auto;html=1;endArrow=block;endFill=0;entryX=0;entryY=0.5;entryDx=0;entryDy=0;exitX=0.5;exitY=1;exitDx=0;exitDy=0;entryPerimeter=0;" parent="WIyWlLk6GJQsqaUBKTNV-1" source="PeQBqCHpVeVmycIjUM5T-110" target="yvNfWJmXIzpKwHx-HULG-10" edge="1">
          <mxGeometry relative="1" as="geometry">
            <mxPoint x="541" y="533" as="sourcePoint" />
            <mxPoint x="541" y="568" as="targetPoint" />
          </mxGeometry>
        </mxCell>
        <mxCell id="PeQBqCHpVeVmycIjUM5T-119" style="edgeStyle=orthogonalEdgeStyle;rounded=0;orthogonalLoop=1;jettySize=auto;html=1;endArrow=block;endFill=0;exitX=0.5;exitY=1;exitDx=0;exitDy=0;entryX=0.5;entryY=0;entryDx=0;entryDy=0;" parent="WIyWlLk6GJQsqaUBKTNV-1" source="PeQBqCHpVeVmycIjUM5T-104" target="PeQBqCHpVeVmycIjUM5T-103" edge="1">
          <mxGeometry relative="1" as="geometry">
            <mxPoint x="2100" y="1991" as="sourcePoint" />
            <mxPoint x="2100" y="2028" as="targetPoint" />
          </mxGeometry>
        </mxCell>
        <mxCell id="PeQBqCHpVeVmycIjUM5T-120" style="edgeStyle=orthogonalEdgeStyle;rounded=0;orthogonalLoop=1;jettySize=auto;html=1;endArrow=block;endFill=0;exitX=0.5;exitY=1;exitDx=0;exitDy=0;entryX=0.5;entryY=0;entryDx=0;entryDy=0;" parent="WIyWlLk6GJQsqaUBKTNV-1" source="PeQBqCHpVeVmycIjUM5T-103" target="PeQBqCHpVeVmycIjUM5T-105" edge="1">
          <mxGeometry relative="1" as="geometry">
            <mxPoint x="2100" y="2081" as="sourcePoint" />
            <mxPoint x="2100" y="2118" as="targetPoint" />
          </mxGeometry>
        </mxCell>
        <mxCell id="PeQBqCHpVeVmycIjUM5T-121" style="edgeStyle=orthogonalEdgeStyle;rounded=0;orthogonalLoop=1;jettySize=auto;html=1;endArrow=block;endFill=0;entryX=0.5;entryY=0;entryDx=0;entryDy=0;exitX=0.5;exitY=1;exitDx=0;exitDy=0;" parent="WIyWlLk6GJQsqaUBKTNV-1" source="PeQBqCHpVeVmycIjUM5T-105" target="PeQBqCHpVeVmycIjUM5T-106" edge="1">
          <mxGeometry relative="1" as="geometry">
            <mxPoint x="2089" y="2248" as="sourcePoint" />
            <mxPoint x="2110" y="2128" as="targetPoint" />
          </mxGeometry>
        </mxCell>
        <mxCell id="PeQBqCHpVeVmycIjUM5T-125" style="edgeStyle=orthogonalEdgeStyle;rounded=0;orthogonalLoop=1;jettySize=auto;html=1;endArrow=block;endFill=0;exitX=0.5;exitY=1;exitDx=0;exitDy=0;entryX=0.5;entryY=0;entryDx=0;entryDy=0;" parent="WIyWlLk6GJQsqaUBKTNV-1" source="PeQBqCHpVeVmycIjUM5T-24" target="PeQBqCHpVeVmycIjUM5T-3" edge="1">
          <mxGeometry relative="1" as="geometry">
            <mxPoint x="2100" y="1991" as="sourcePoint" />
            <mxPoint x="2089" y="1427.6" as="targetPoint" />
          </mxGeometry>
        </mxCell>
        <mxCell id="PeQBqCHpVeVmycIjUM5T-126" style="rounded=0;orthogonalLoop=1;jettySize=auto;html=1;endArrow=block;endFill=0;entryX=0.5;entryY=0;entryDx=0;entryDy=0;exitX=0.5;exitY=1;exitDx=0;exitDy=0;" parent="WIyWlLk6GJQsqaUBKTNV-1" source="PeQBqCHpVeVmycIjUM5T-23" target="PeQBqCHpVeVmycIjUM5T-24" edge="1">
          <mxGeometry relative="1" as="geometry">
            <mxPoint x="2089" y="1318" as="sourcePoint" />
            <mxPoint x="2099" y="1437" as="targetPoint" />
          </mxGeometry>
        </mxCell>
        <mxCell id="PeQBqCHpVeVmycIjUM5T-129" style="rounded=0;orthogonalLoop=1;jettySize=auto;html=1;endArrow=block;endFill=0;entryX=0.5;entryY=0;entryDx=0;entryDy=0;exitX=0.5;exitY=1;exitDx=0;exitDy=0;exitPerimeter=0;" parent="WIyWlLk6GJQsqaUBKTNV-1" source="PeQBqCHpVeVmycIjUM5T-89" target="PeQBqCHpVeVmycIjUM5T-23" edge="1">
          <mxGeometry relative="1" as="geometry">
            <mxPoint x="2100" y="1321" as="sourcePoint" />
            <mxPoint x="2099" y="1348" as="targetPoint" />
          </mxGeometry>
        </mxCell>
        <mxCell id="PeQBqCHpVeVmycIjUM5T-130" style="rounded=0;orthogonalLoop=1;jettySize=auto;html=1;endArrow=block;endFill=0;exitX=0.5;exitY=1;exitDx=0;exitDy=0;" parent="WIyWlLk6GJQsqaUBKTNV-1" source="yvNfWJmXIzpKwHx-HULG-43" target="PeQBqCHpVeVmycIjUM5T-89" edge="1">
          <mxGeometry relative="1" as="geometry">
            <mxPoint x="2100" y="1241" as="sourcePoint" />
            <mxPoint x="2100" y="1268" as="targetPoint" />
          </mxGeometry>
        </mxCell>
        <mxCell id="PeQBqCHpVeVmycIjUM5T-131" style="rounded=0;orthogonalLoop=1;jettySize=auto;html=1;endArrow=block;endFill=0;exitX=0.5;exitY=1;exitDx=0;exitDy=0;entryX=0.5;entryY=0;entryDx=0;entryDy=0;entryPerimeter=0;" parent="WIyWlLk6GJQsqaUBKTNV-1" source="yvNfWJmXIzpKwHx-HULG-43" target="PeQBqCHpVeVmycIjUM5T-89" edge="1">
          <mxGeometry relative="1" as="geometry">
            <mxPoint x="2100" y="1241" as="sourcePoint" />
            <mxPoint x="2100" y="1268" as="targetPoint" />
          </mxGeometry>
        </mxCell>
        <mxCell id="PeQBqCHpVeVmycIjUM5T-132" style="rounded=0;orthogonalLoop=1;jettySize=auto;html=1;endArrow=block;endFill=0;exitX=0.5;exitY=1;exitDx=0;exitDy=0;entryX=0.5;entryY=0;entryDx=0;entryDy=0;exitPerimeter=0;" parent="WIyWlLk6GJQsqaUBKTNV-1" source="PeQBqCHpVeVmycIjUM5T-21" target="yvNfWJmXIzpKwHx-HULG-43" edge="1">
          <mxGeometry relative="1" as="geometry">
            <mxPoint x="2089.9300000000003" y="1088" as="sourcePoint" />
            <mxPoint x="2089.9300000000003" y="1118" as="targetPoint" />
          </mxGeometry>
        </mxCell>
        <mxCell id="PeQBqCHpVeVmycIjUM5T-134" value="&lt;font data-font-src=&quot;https://fonts.googleapis.com/css?family=space+mono&quot; face=&quot;space mono&quot;&gt;9&lt;/font&gt;" style="strokeWidth=2;html=1;shape=mxgraph.flowchart.start_2;whiteSpace=wrap;" parent="WIyWlLk6GJQsqaUBKTNV-1" vertex="1">
          <mxGeometry x="2959" y="1825.75" width="40" height="40" as="geometry" />
        </mxCell>
        <mxCell id="PeQBqCHpVeVmycIjUM5T-135" style="edgeStyle=orthogonalEdgeStyle;rounded=0;orthogonalLoop=1;jettySize=auto;html=1;endArrow=block;endFill=0;entryX=0.5;entryY=0;entryDx=0;entryDy=0;exitX=1;exitY=0.5;exitDx=0;exitDy=0;entryPerimeter=0;" parent="WIyWlLk6GJQsqaUBKTNV-1" source="PeQBqCHpVeVmycIjUM5T-70" target="PeQBqCHpVeVmycIjUM5T-134" edge="1">
          <mxGeometry relative="1" as="geometry">
            <mxPoint x="2682" y="1938" as="sourcePoint" />
            <mxPoint x="2819" y="1856" as="targetPoint" />
          </mxGeometry>
        </mxCell>
        <mxCell id="PeQBqCHpVeVmycIjUM5T-136" style="edgeStyle=orthogonalEdgeStyle;rounded=0;orthogonalLoop=1;jettySize=auto;html=1;endArrow=block;endFill=0;entryX=0.5;entryY=0;entryDx=0;entryDy=0;exitX=1;exitY=0.5;exitDx=0;exitDy=0;entryPerimeter=0;" parent="WIyWlLk6GJQsqaUBKTNV-1" source="PeQBqCHpVeVmycIjUM5T-51" target="PeQBqCHpVeVmycIjUM5T-134" edge="1">
          <mxGeometry relative="1" as="geometry">
            <mxPoint x="2939" y="1769" as="sourcePoint" />
            <mxPoint x="2989" y="1836" as="targetPoint" />
          </mxGeometry>
        </mxCell>
        <mxCell id="PeQBqCHpVeVmycIjUM5T-137" style="edgeStyle=orthogonalEdgeStyle;rounded=0;orthogonalLoop=1;jettySize=auto;html=1;endArrow=block;endFill=0;entryX=0.5;entryY=0;entryDx=0;entryDy=0;exitX=1;exitY=0.5;exitDx=0;exitDy=0;entryPerimeter=0;" parent="WIyWlLk6GJQsqaUBKTNV-1" source="PeQBqCHpVeVmycIjUM5T-47" target="PeQBqCHpVeVmycIjUM5T-134" edge="1">
          <mxGeometry relative="1" as="geometry">
            <mxPoint x="2949" y="1779" as="sourcePoint" />
            <mxPoint x="2999" y="1846" as="targetPoint" />
          </mxGeometry>
        </mxCell>
        <mxCell id="PeQBqCHpVeVmycIjUM5T-138" style="edgeStyle=orthogonalEdgeStyle;rounded=0;orthogonalLoop=1;jettySize=auto;html=1;endArrow=block;endFill=0;entryX=0.5;entryY=0;entryDx=0;entryDy=0;exitX=1;exitY=0.5;exitDx=0;exitDy=0;entryPerimeter=0;" parent="WIyWlLk6GJQsqaUBKTNV-1" source="PeQBqCHpVeVmycIjUM5T-19" target="PeQBqCHpVeVmycIjUM5T-134" edge="1">
          <mxGeometry relative="1" as="geometry">
            <mxPoint x="2959" y="1789" as="sourcePoint" />
            <mxPoint x="3009" y="1856" as="targetPoint" />
          </mxGeometry>
        </mxCell>
        <mxCell id="PeQBqCHpVeVmycIjUM5T-140" value="&lt;font data-font-src=&quot;https://fonts.googleapis.com/css?family=space+mono&quot; face=&quot;space mono&quot;&gt;5&lt;/font&gt;" style="strokeWidth=2;html=1;shape=mxgraph.flowchart.start_2;whiteSpace=wrap;" parent="WIyWlLk6GJQsqaUBKTNV-1" vertex="1">
          <mxGeometry x="1835" y="963" width="40" height="40" as="geometry" />
        </mxCell>
        <mxCell id="xsDLJaXXjQ2gjrNBKQ5x-0" value="Admission Form" style="swimlane;fontStyle=0;childLayout=stackLayout;horizontal=1;startSize=30;horizontalStack=0;resizeParent=1;resizeParentMax=0;resizeLast=0;collapsible=1;marginBottom=0;whiteSpace=wrap;html=1;fontFamily=space mono;fontSource=https%3A%2F%2Ffonts.googleapis.com%2Fcss%3Ffamily%3Dspace%2Bmono;fontSize=12;" parent="WIyWlLk6GJQsqaUBKTNV-1" vertex="1">
          <mxGeometry x="2350" y="1043" width="260.5" height="330" as="geometry" />
        </mxCell>
        <mxCell id="xsDLJaXXjQ2gjrNBKQ5x-1" value="Order List-ใบสั่งยา (ใบเล็ก)" style="text;strokeColor=none;fillColor=none;align=left;verticalAlign=middle;spacingLeft=4;spacingRight=4;overflow=hidden;points=[[0,0.5],[1,0.5]];portConstraint=eastwest;rotatable=0;whiteSpace=wrap;html=1;fontFamily=space mono;fontSource=https%3A%2F%2Ffonts.googleapis.com%2Fcss%3Ffamily%3Dspace%2Bmono;fontSize=12;" parent="xsDLJaXXjQ2gjrNBKQ5x-0" vertex="1">
          <mxGeometry y="30" width="260.5" height="30" as="geometry" />
        </mxCell>
        <mxCell id="xsDLJaXXjQ2gjrNBKQ5x-2" value="Graphic Chart-ฟอร์มปรอท" style="text;strokeColor=none;fillColor=none;align=left;verticalAlign=middle;spacingLeft=4;spacingRight=4;overflow=hidden;points=[[0,0.5],[1,0.5]];portConstraint=eastwest;rotatable=0;whiteSpace=wrap;html=1;fontFamily=space mono;fontSource=https%3A%2F%2Ffonts.googleapis.com%2Fcss%3Ffamily%3Dspace%2Bmono;fontSize=12;" parent="xsDLJaXXjQ2gjrNBKQ5x-0" vertex="1">
          <mxGeometry y="60" width="260.5" height="30" as="geometry" />
        </mxCell>
        <mxCell id="xsDLJaXXjQ2gjrNBKQ5x-3" value="Order Sheet-ใบคำสั่งแพทย์" style="text;strokeColor=none;fillColor=none;align=left;verticalAlign=middle;spacingLeft=4;spacingRight=4;overflow=hidden;points=[[0,0.5],[1,0.5]];portConstraint=eastwest;rotatable=0;whiteSpace=wrap;html=1;fontFamily=space mono;fontSource=https%3A%2F%2Ffonts.googleapis.com%2Fcss%3Ffamily%3Dspace%2Bmono;fontSize=12;" parent="xsDLJaXXjQ2gjrNBKQ5x-0" vertex="1">
          <mxGeometry y="90" width="260.5" height="30" as="geometry" />
        </mxCell>
        <mxCell id="xsDLJaXXjQ2gjrNBKQ5x-4" value="Medical Record-ติดตามการให้ยา" style="text;strokeColor=none;fillColor=none;align=left;verticalAlign=middle;spacingLeft=4;spacingRight=4;overflow=hidden;points=[[0,0.5],[1,0.5]];portConstraint=eastwest;rotatable=0;whiteSpace=wrap;html=1;fontFamily=space mono;fontSource=https%3A%2F%2Ffonts.googleapis.com%2Fcss%3Ffamily%3Dspace%2Bmono;fontSize=12;" parent="xsDLJaXXjQ2gjrNBKQ5x-0" vertex="1">
          <mxGeometry y="120" width="260.5" height="30" as="geometry" />
        </mxCell>
        <mxCell id="xsDLJaXXjQ2gjrNBKQ5x-5" value="Progress Note-แพทย์ติดตามอาการ" style="text;strokeColor=none;fillColor=none;align=left;verticalAlign=middle;spacingLeft=4;spacingRight=4;overflow=hidden;points=[[0,0.5],[1,0.5]];portConstraint=eastwest;rotatable=0;whiteSpace=wrap;html=1;fontFamily=space mono;fontSource=https%3A%2F%2Ffonts.googleapis.com%2Fcss%3Ffamily%3Dspace%2Bmono;fontSize=12;" parent="xsDLJaXXjQ2gjrNBKQ5x-0" vertex="1">
          <mxGeometry y="150" width="260.5" height="30" as="geometry" />
        </mxCell>
        <mxCell id="xsDLJaXXjQ2gjrNBKQ5x-6" value="Nurse Note-พยาบาลติดตามอาการ" style="text;strokeColor=none;fillColor=none;align=left;verticalAlign=middle;spacingLeft=4;spacingRight=4;overflow=hidden;points=[[0,0.5],[1,0.5]];portConstraint=eastwest;rotatable=0;whiteSpace=wrap;html=1;fontFamily=space mono;fontSource=https%3A%2F%2Ffonts.googleapis.com%2Fcss%3Ffamily%3Dspace%2Bmono;fontSize=12;" parent="xsDLJaXXjQ2gjrNBKQ5x-0" vertex="1">
          <mxGeometry y="180" width="260.5" height="30" as="geometry" />
        </mxCell>
        <mxCell id="xsDLJaXXjQ2gjrNBKQ5x-7" value="Request Lab-ออเดอร์ Lab" style="text;strokeColor=none;fillColor=none;align=left;verticalAlign=middle;spacingLeft=4;spacingRight=4;overflow=hidden;points=[[0,0.5],[1,0.5]];portConstraint=eastwest;rotatable=0;whiteSpace=wrap;html=1;fontFamily=space mono;fontSource=https%3A%2F%2Ffonts.googleapis.com%2Fcss%3Ffamily%3Dspace%2Bmono;fontSize=12;" parent="xsDLJaXXjQ2gjrNBKQ5x-0" vertex="1">
          <mxGeometry y="210" width="260.5" height="30" as="geometry" />
        </mxCell>
        <mxCell id="xsDLJaXXjQ2gjrNBKQ5x-8" value="Procedure Sheet-ค่าใช้จ่ายผู้ป่วย" style="text;strokeColor=none;fillColor=none;align=left;verticalAlign=middle;spacingLeft=4;spacingRight=4;overflow=hidden;points=[[0,0.5],[1,0.5]];portConstraint=eastwest;rotatable=0;whiteSpace=wrap;html=1;fontFamily=space mono;fontSource=https%3A%2F%2Ffonts.googleapis.com%2Fcss%3Ffamily%3Dspace%2Bmono;fontSize=12;" parent="xsDLJaXXjQ2gjrNBKQ5x-0" vertex="1">
          <mxGeometry y="240" width="260.5" height="30" as="geometry" />
        </mxCell>
        <mxCell id="xsDLJaXXjQ2gjrNBKQ5x-9" value="Record intake/output-สารน้ำเข้า-ออก" style="text;strokeColor=none;fillColor=none;align=left;verticalAlign=middle;spacingLeft=4;spacingRight=4;overflow=hidden;points=[[0,0.5],[1,0.5]];portConstraint=eastwest;rotatable=0;whiteSpace=wrap;html=1;fontFamily=space mono;fontSource=https%3A%2F%2Ffonts.googleapis.com%2Fcss%3Ffamily%3Dspace%2Bmono;fontSize=12;" parent="xsDLJaXXjQ2gjrNBKQ5x-0" vertex="1">
          <mxGeometry y="270" width="260.5" height="30" as="geometry" />
        </mxCell>
        <mxCell id="xsDLJaXXjQ2gjrNBKQ5x-10" value="Discharge Summary-สรุปการจำหน่ายผู้ป่วย" style="text;strokeColor=none;fillColor=none;align=left;verticalAlign=middle;spacingLeft=4;spacingRight=4;overflow=hidden;points=[[0,0.5],[1,0.5]];portConstraint=eastwest;rotatable=0;whiteSpace=wrap;html=1;fontFamily=space mono;fontSource=https%3A%2F%2Ffonts.googleapis.com%2Fcss%3Ffamily%3Dspace%2Bmono;fontSize=12;" parent="xsDLJaXXjQ2gjrNBKQ5x-0" vertex="1">
          <mxGeometry y="300" width="260.5" height="30" as="geometry" />
        </mxCell>
        <mxCell id="xsDLJaXXjQ2gjrNBKQ5x-11" style="rounded=0;orthogonalLoop=1;jettySize=auto;html=1;endArrow=block;endFill=0;entryX=0.5;entryY=0;entryDx=0;entryDy=0;exitX=1;exitY=0.5;exitDx=0;exitDy=0;dashed=1;edgeStyle=orthogonalEdgeStyle;" parent="WIyWlLk6GJQsqaUBKTNV-1" source="yvNfWJmXIzpKwHx-HULG-43" target="xsDLJaXXjQ2gjrNBKQ5x-0" edge="1">
          <mxGeometry relative="1" as="geometry">
            <mxPoint x="2349" y="1493" as="sourcePoint" />
            <mxPoint x="2349" y="1541" as="targetPoint" />
          </mxGeometry>
        </mxCell>
        <mxCell id="xsDLJaXXjQ2gjrNBKQ5x-12" value="เตรียมแบบฟอร์ม (Admit Chart)" style="edgeLabel;html=1;align=center;verticalAlign=middle;resizable=0;points=[];fontFamily=space mono;fontSource=https%3A%2F%2Ffonts.googleapis.com%2Fcss%3Ffamily%3Dspace%2Bmono;" parent="xsDLJaXXjQ2gjrNBKQ5x-11" vertex="1" connectable="0">
          <mxGeometry x="0.288" y="-1" relative="1" as="geometry">
            <mxPoint x="31" y="-14" as="offset" />
          </mxGeometry>
        </mxCell>
      </root>
    </mxGraphModel>
  </diagram>
  <diagram id="qEAiJU13UEf10DBahYg9" name="ACC-NOW">
    <mxGraphModel dx="956" dy="556" grid="1" gridSize="10" guides="1" tooltips="1" connect="1" arrows="1" fold="1" page="1" pageScale="1" pageWidth="850" pageHeight="1100" math="0" shadow="0">
      <root>
        <mxCell id="0" />
        <mxCell id="1" parent="0" />
        <mxCell id="noZoARQSL-2DxWcedjPE-1" value="เจ้าหน้าที่คลังพัสดุ/คลังยากลาง" style="rounded=1;whiteSpace=wrap;html=1;fontSize=12;glass=0;strokeWidth=1;shadow=0;fontFamily=space mono;fontSource=https%3A%2F%2Ffonts.googleapis.com%2Fcss%3Ffamily%3Dspace%2Bmono;" parent="1" vertex="1">
          <mxGeometry x="160" y="100" width="200" height="40" as="geometry" />
        </mxCell>
        <mxCell id="noZoARQSL-2DxWcedjPE-2" value="No" style="rounded=0;html=1;jettySize=auto;orthogonalLoop=1;fontSize=11;endArrow=block;endFill=0;endSize=8;strokeWidth=1;shadow=0;labelBackgroundColor=none;edgeStyle=orthogonalEdgeStyle;fontFamily=space mono;fontSource=https%3A%2F%2Ffonts.googleapis.com%2Fcss%3Ffamily%3Dspace%2Bmono;exitX=0.5;exitY=1;exitDx=0;exitDy=0;entryX=0.5;entryY=0;entryDx=0;entryDy=0;" parent="1" source="noZoARQSL-2DxWcedjPE-4" target="noZoARQSL-2DxWcedjPE-8" edge="1">
          <mxGeometry y="20" relative="1" as="geometry">
            <mxPoint as="offset" />
            <mxPoint x="260" y="550" as="targetPoint" />
          </mxGeometry>
        </mxCell>
        <mxCell id="noZoARQSL-2DxWcedjPE-3" value="" style="edgeStyle=orthogonalEdgeStyle;rounded=0;html=1;jettySize=auto;orthogonalLoop=1;fontSize=11;endArrow=block;endFill=0;endSize=8;strokeWidth=1;shadow=0;labelBackgroundColor=none;fontFamily=space mono;fontSource=https%3A%2F%2Ffonts.googleapis.com%2Fcss%3Ffamily%3Dspace%2Bmono;exitX=0.5;exitY=1;exitDx=0;exitDy=0;entryX=0.5;entryY=0;entryDx=0;entryDy=0;" parent="1" source="noZoARQSL-2DxWcedjPE-5" target="noZoARQSL-2DxWcedjPE-20" edge="1">
          <mxGeometry x="0.0065" y="10" relative="1" as="geometry">
            <mxPoint as="offset" />
            <mxPoint x="270" y="240" as="targetPoint" />
          </mxGeometry>
        </mxCell>
        <mxCell id="noZoARQSL-2DxWcedjPE-4" value="มีจำนวนสินค้าเพียงพอ?" style="rhombus;whiteSpace=wrap;html=1;shadow=0;fontFamily=space mono;fontSize=12;align=center;strokeWidth=1;spacing=6;spacingTop=-4;fontSource=https%3A%2F%2Ffonts.googleapis.com%2Fcss%3Ffamily%3Dspace%2Bmono;" parent="1" vertex="1">
          <mxGeometry x="160" y="330" width="200" height="50" as="geometry" />
        </mxCell>
        <mxCell id="noZoARQSL-2DxWcedjPE-5" value="ST: คลังพัสดุ/คลังยากลาง&lt;br&gt;ตรวจสอบคลังพัสดุ/คลังยากลาง" style="rounded=1;whiteSpace=wrap;html=1;fontSize=12;glass=0;strokeWidth=1;shadow=0;fontFamily=space mono;fontSource=https%3A%2F%2Ffonts.googleapis.com%2Fcss%3Ffamily%3Dspace%2Bmono;" parent="1" vertex="1">
          <mxGeometry x="160" y="170" width="200" height="50" as="geometry" />
        </mxCell>
        <mxCell id="noZoARQSL-2DxWcedjPE-6" style="edgeStyle=orthogonalEdgeStyle;rounded=0;orthogonalLoop=1;jettySize=auto;html=1;entryX=0.5;entryY=0;entryDx=0;entryDy=0;endArrow=block;endFill=0;exitX=0.5;exitY=1;exitDx=0;exitDy=0;" parent="1" source="noZoARQSL-2DxWcedjPE-8" target="noZoARQSL-2DxWcedjPE-13" edge="1">
          <mxGeometry relative="1" as="geometry">
            <mxPoint x="510" y="248" as="sourcePoint" />
            <mxPoint x="441" y="303" as="targetPoint" />
          </mxGeometry>
        </mxCell>
        <mxCell id="noZoARQSL-2DxWcedjPE-7" value="&lt;font data-font-src=&quot;https://fonts.googleapis.com/css?family=space+mono&quot; face=&quot;space mono&quot;&gt;1&lt;/font&gt;" style="strokeWidth=2;html=1;shape=mxgraph.flowchart.start_2;whiteSpace=wrap;" parent="1" vertex="1">
          <mxGeometry x="500" y="175" width="40" height="40" as="geometry" />
        </mxCell>
        <mxCell id="noZoARQSL-2DxWcedjPE-8" value="ST: คลังพัสดุ/คลังยากลาง&lt;br&gt;ติดต่อตกลงราคากับผู้ขาย,&lt;br&gt;ขอใบเสนอราคาจากผู้ขาย" style="rounded=1;whiteSpace=wrap;html=1;fontSize=12;glass=0;strokeWidth=1;shadow=0;fontFamily=space mono;fontSource=https%3A%2F%2Ffonts.googleapis.com%2Fcss%3Ffamily%3Dspace%2Bmono;" parent="1" vertex="1">
          <mxGeometry x="160" y="410" width="200" height="50" as="geometry" />
        </mxCell>
        <mxCell id="noZoARQSL-2DxWcedjPE-11" value="Yes" style="edgeStyle=orthogonalEdgeStyle;rounded=0;html=1;jettySize=auto;orthogonalLoop=1;fontSize=11;endArrow=block;endFill=0;endSize=8;strokeWidth=1;shadow=0;labelBackgroundColor=none;fontFamily=space mono;fontSource=https%3A%2F%2Ffonts.googleapis.com%2Fcss%3Ffamily%3Dspace%2Bmono;exitX=0.5;exitY=1;exitDx=0;exitDy=0;entryX=0.5;entryY=0;entryDx=0;entryDy=0;" parent="1" source="noZoARQSL-2DxWcedjPE-20" target="noZoARQSL-2DxWcedjPE-4" edge="1">
          <mxGeometry x="-0.3333" y="20" relative="1" as="geometry">
            <mxPoint as="offset" />
            <mxPoint x="270" y="330" as="targetPoint" />
            <mxPoint x="270" y="300" as="sourcePoint" />
          </mxGeometry>
        </mxCell>
        <mxCell id="noZoARQSL-2DxWcedjPE-13" value="ST: คลังพัสดุ/คลังยากลาง&lt;br&gt;จัดทำใบขอซื้อ (PR) &lt;br&gt;เพื่ออนุมัติซื้อ/จ้าง" style="rounded=1;whiteSpace=wrap;html=1;fontSize=12;glass=0;strokeWidth=1;shadow=0;fontFamily=space mono;fontSource=https%3A%2F%2Ffonts.googleapis.com%2Fcss%3Ffamily%3Dspace%2Bmono;" parent="1" vertex="1">
          <mxGeometry x="160" y="490" width="200" height="50" as="geometry" />
        </mxCell>
        <mxCell id="noZoARQSL-2DxWcedjPE-15" value="ST: คลังพัสดุ/คลังยากลาง&lt;br&gt;จัดทำใบสั่งซื้อ/จ้าง (PO) จากระบบ" style="rounded=1;whiteSpace=wrap;html=1;fontSize=12;glass=0;strokeWidth=1;shadow=0;fontFamily=space mono;fontSource=https%3A%2F%2Ffonts.googleapis.com%2Fcss%3Ffamily%3Dspace%2Bmono;" parent="1" vertex="1">
          <mxGeometry x="160" y="570" width="200" height="50" as="geometry" />
        </mxCell>
        <mxCell id="noZoARQSL-2DxWcedjPE-16" value="ST: คลังพัสดุ/คลังยากลาง&lt;br&gt;ตรวจรับพัสดุ/ยาให้ถูกต้องตาม PO และลงนามตรวจรับ" style="rounded=1;whiteSpace=wrap;html=1;fontSize=12;glass=0;strokeWidth=1;shadow=0;fontFamily=space mono;fontSource=https%3A%2F%2Ffonts.googleapis.com%2Fcss%3Ffamily%3Dspace%2Bmono;" parent="1" vertex="1">
          <mxGeometry x="160" y="650" width="200" height="50" as="geometry" />
        </mxCell>
        <mxCell id="noZoARQSL-2DxWcedjPE-17" value="ST: คลังพัสดุ/คลังยากลาง&lt;br&gt;รับพัสดุ/ยาจากใบกำกับสินค้า&lt;br&gt;และรวบรวมเอกสารส่งให้งานบัญชี" style="rounded=1;whiteSpace=wrap;html=1;fontSize=12;glass=0;strokeWidth=1;shadow=0;fontFamily=space mono;fontSource=https%3A%2F%2Ffonts.googleapis.com%2Fcss%3Ffamily%3Dspace%2Bmono;" parent="1" vertex="1">
          <mxGeometry x="160" y="730" width="200" height="50" as="geometry" />
        </mxCell>
        <mxCell id="noZoARQSL-2DxWcedjPE-18" value="ST: คลังพัสดุ/คลังยากลาง&lt;br&gt;จำหน่ายพัสดุไปแผนกงาน/&lt;br&gt;โอนยาไปคลังย่อย" style="rounded=1;whiteSpace=wrap;html=1;fontSize=12;glass=0;strokeWidth=1;shadow=0;fontFamily=space mono;fontSource=https%3A%2F%2Ffonts.googleapis.com%2Fcss%3Ffamily%3Dspace%2Bmono;" parent="1" vertex="1">
          <mxGeometry x="160" y="810" width="200" height="50" as="geometry" />
        </mxCell>
        <mxCell id="noZoARQSL-2DxWcedjPE-19" value="ST: คลังพัสดุ/คลังยากลาง&lt;br&gt;จบขั้นตอนการทำงาน" style="rounded=1;whiteSpace=wrap;html=1;fontSize=12;glass=0;strokeWidth=1;shadow=0;fontFamily=space mono;fontSource=https%3A%2F%2Ffonts.googleapis.com%2Fcss%3Ffamily%3Dspace%2Bmono;" parent="1" vertex="1">
          <mxGeometry x="160" y="890" width="200" height="50" as="geometry" />
        </mxCell>
        <mxCell id="noZoARQSL-2DxWcedjPE-20" value="มีจำนวนสินค้าถูกต้อง?" style="rhombus;whiteSpace=wrap;html=1;shadow=0;fontFamily=space mono;fontSize=12;align=center;strokeWidth=1;spacing=6;spacingTop=-4;fontSource=https%3A%2F%2Ffonts.googleapis.com%2Fcss%3Ffamily%3Dspace%2Bmono;" parent="1" vertex="1">
          <mxGeometry x="160" y="250" width="200" height="50" as="geometry" />
        </mxCell>
        <mxCell id="noZoARQSL-2DxWcedjPE-21" value="ST: คลังพัสดุ/คลังยากลาง&lt;br&gt;ปรับปรุงจำนวนสินค้าในระบบ&lt;br&gt;คลังพัสดุ/คลังยากลาง" style="rounded=1;whiteSpace=wrap;html=1;fontSize=12;glass=0;strokeWidth=1;shadow=0;fontFamily=space mono;fontSource=https%3A%2F%2Ffonts.googleapis.com%2Fcss%3Ffamily%3Dspace%2Bmono;" parent="1" vertex="1">
          <mxGeometry x="420" y="250" width="200" height="50" as="geometry" />
        </mxCell>
        <mxCell id="noZoARQSL-2DxWcedjPE-22" value="No" style="rounded=0;html=1;jettySize=auto;orthogonalLoop=1;fontSize=11;endArrow=block;endFill=0;endSize=8;strokeWidth=1;shadow=0;labelBackgroundColor=none;edgeStyle=orthogonalEdgeStyle;fontFamily=space mono;fontSource=https%3A%2F%2Ffonts.googleapis.com%2Fcss%3Ffamily%3Dspace%2Bmono;exitX=1;exitY=0.5;exitDx=0;exitDy=0;entryX=0;entryY=0.5;entryDx=0;entryDy=0;" parent="1" source="noZoARQSL-2DxWcedjPE-20" target="noZoARQSL-2DxWcedjPE-21" edge="1">
          <mxGeometry y="15" relative="1" as="geometry">
            <mxPoint as="offset" />
            <mxPoint x="270" y="390" as="sourcePoint" />
            <mxPoint x="270" y="420" as="targetPoint" />
          </mxGeometry>
        </mxCell>
        <mxCell id="noZoARQSL-2DxWcedjPE-23" style="edgeStyle=orthogonalEdgeStyle;rounded=0;orthogonalLoop=1;jettySize=auto;html=1;entryX=1;entryY=0.5;entryDx=0;entryDy=0;endArrow=block;endFill=0;exitX=0;exitY=0.5;exitDx=0;exitDy=0;exitPerimeter=0;" parent="1" source="noZoARQSL-2DxWcedjPE-7" target="noZoARQSL-2DxWcedjPE-5" edge="1">
          <mxGeometry relative="1" as="geometry">
            <mxPoint x="270" y="470" as="sourcePoint" />
            <mxPoint x="270" y="500" as="targetPoint" />
          </mxGeometry>
        </mxCell>
        <mxCell id="noZoARQSL-2DxWcedjPE-25" style="edgeStyle=orthogonalEdgeStyle;rounded=0;orthogonalLoop=1;jettySize=auto;html=1;endArrow=block;endFill=0;exitX=0.5;exitY=1;exitDx=0;exitDy=0;entryX=0.5;entryY=0;entryDx=0;entryDy=0;" parent="1" source="noZoARQSL-2DxWcedjPE-1" target="noZoARQSL-2DxWcedjPE-5" edge="1">
          <mxGeometry relative="1" as="geometry">
            <mxPoint x="290" y="490" as="sourcePoint" />
            <mxPoint x="290" y="520" as="targetPoint" />
          </mxGeometry>
        </mxCell>
        <mxCell id="noZoARQSL-2DxWcedjPE-26" value="Yes" style="edgeStyle=orthogonalEdgeStyle;rounded=0;html=1;jettySize=auto;orthogonalLoop=1;fontSize=11;endArrow=block;endFill=0;endSize=8;strokeWidth=1;shadow=0;labelBackgroundColor=none;fontFamily=space mono;fontSource=https%3A%2F%2Ffonts.googleapis.com%2Fcss%3Ffamily%3Dspace%2Bmono;exitX=1;exitY=0.5;exitDx=0;exitDy=0;entryX=1;entryY=0.5;entryDx=0;entryDy=0;entryPerimeter=0;" parent="1" source="noZoARQSL-2DxWcedjPE-4" target="noZoARQSL-2DxWcedjPE-7" edge="1">
          <mxGeometry x="-0.8519" y="15" relative="1" as="geometry">
            <mxPoint as="offset" />
            <mxPoint x="270" y="340" as="targetPoint" />
            <mxPoint x="270" y="310" as="sourcePoint" />
            <Array as="points">
              <mxPoint x="640" y="355" />
              <mxPoint x="640" y="195" />
            </Array>
          </mxGeometry>
        </mxCell>
        <mxCell id="noZoARQSL-2DxWcedjPE-27" style="edgeStyle=orthogonalEdgeStyle;rounded=0;orthogonalLoop=1;jettySize=auto;html=1;entryX=0.5;entryY=1;entryDx=0;entryDy=0;endArrow=block;endFill=0;exitX=0.5;exitY=0;exitDx=0;exitDy=0;entryPerimeter=0;" parent="1" source="noZoARQSL-2DxWcedjPE-21" target="noZoARQSL-2DxWcedjPE-7" edge="1">
          <mxGeometry relative="1" as="geometry">
            <mxPoint x="510" y="205" as="sourcePoint" />
            <mxPoint x="370" y="205" as="targetPoint" />
          </mxGeometry>
        </mxCell>
        <mxCell id="noZoARQSL-2DxWcedjPE-28" style="edgeStyle=orthogonalEdgeStyle;rounded=0;orthogonalLoop=1;jettySize=auto;html=1;entryX=0.5;entryY=0;entryDx=0;entryDy=0;endArrow=block;endFill=0;exitX=0.5;exitY=1;exitDx=0;exitDy=0;" parent="1" source="noZoARQSL-2DxWcedjPE-13" target="noZoARQSL-2DxWcedjPE-15" edge="1">
          <mxGeometry relative="1" as="geometry">
            <mxPoint x="270" y="470" as="sourcePoint" />
            <mxPoint x="270" y="500" as="targetPoint" />
          </mxGeometry>
        </mxCell>
        <mxCell id="noZoARQSL-2DxWcedjPE-29" style="edgeStyle=orthogonalEdgeStyle;rounded=0;orthogonalLoop=1;jettySize=auto;html=1;endArrow=block;endFill=0;exitX=0.5;exitY=1;exitDx=0;exitDy=0;entryX=0.5;entryY=0;entryDx=0;entryDy=0;" parent="1" source="noZoARQSL-2DxWcedjPE-15" target="noZoARQSL-2DxWcedjPE-16" edge="1">
          <mxGeometry relative="1" as="geometry">
            <mxPoint x="260" y="620" as="sourcePoint" />
            <mxPoint x="260" y="650" as="targetPoint" />
          </mxGeometry>
        </mxCell>
        <mxCell id="noZoARQSL-2DxWcedjPE-30" style="edgeStyle=orthogonalEdgeStyle;rounded=0;orthogonalLoop=1;jettySize=auto;html=1;endArrow=block;endFill=0;entryX=0.5;entryY=0;entryDx=0;entryDy=0;exitX=0.5;exitY=1;exitDx=0;exitDy=0;" parent="1" source="noZoARQSL-2DxWcedjPE-16" target="noZoARQSL-2DxWcedjPE-17" edge="1">
          <mxGeometry relative="1" as="geometry">
            <mxPoint x="280" y="710" as="sourcePoint" />
            <mxPoint x="270" y="660" as="targetPoint" />
          </mxGeometry>
        </mxCell>
        <mxCell id="noZoARQSL-2DxWcedjPE-31" style="edgeStyle=orthogonalEdgeStyle;rounded=0;orthogonalLoop=1;jettySize=auto;html=1;endArrow=block;endFill=0;entryX=0.5;entryY=0;entryDx=0;entryDy=0;exitX=0.5;exitY=1;exitDx=0;exitDy=0;" parent="1" source="noZoARQSL-2DxWcedjPE-17" target="noZoARQSL-2DxWcedjPE-18" edge="1">
          <mxGeometry relative="1" as="geometry">
            <mxPoint x="270" y="710" as="sourcePoint" />
            <mxPoint x="270" y="740" as="targetPoint" />
          </mxGeometry>
        </mxCell>
        <mxCell id="noZoARQSL-2DxWcedjPE-32" style="rounded=0;orthogonalLoop=1;jettySize=auto;html=1;endArrow=block;endFill=0;entryX=0.5;entryY=0;entryDx=0;entryDy=0;exitX=0.5;exitY=1;exitDx=0;exitDy=0;" parent="1" source="noZoARQSL-2DxWcedjPE-18" target="noZoARQSL-2DxWcedjPE-19" edge="1">
          <mxGeometry relative="1" as="geometry">
            <mxPoint x="270" y="790" as="sourcePoint" />
            <mxPoint x="270" y="820" as="targetPoint" />
          </mxGeometry>
        </mxCell>
        <mxCell id="noZoARQSL-2DxWcedjPE-33" value="เจ้าหน้าที่ฝ่ายบัญชี" style="rounded=1;whiteSpace=wrap;html=1;fontSize=12;glass=0;strokeWidth=1;shadow=0;fontFamily=space mono;fontSource=https%3A%2F%2Ffonts.googleapis.com%2Fcss%3Ffamily%3Dspace%2Bmono;" parent="1" vertex="1">
          <mxGeometry x="680" y="860" width="200" height="50" as="geometry" />
        </mxCell>
        <mxCell id="dSqNsIodyWDdaizZ1Ah2-1" style="edgeStyle=orthogonalEdgeStyle;rounded=0;orthogonalLoop=1;jettySize=auto;html=1;endArrow=block;endFill=0;exitX=1;exitY=0.5;exitDx=0;exitDy=0;dashed=1;entryX=0;entryY=0.5;entryDx=0;entryDy=0;" parent="1" source="noZoARQSL-2DxWcedjPE-17" target="YuSDF8P-QCdf2GNEPpNd-5" edge="1">
          <mxGeometry relative="1" as="geometry">
            <mxPoint x="580" y="780" as="sourcePoint" />
            <mxPoint x="400" y="610" as="targetPoint" />
            <Array as="points" />
          </mxGeometry>
        </mxCell>
        <mxCell id="dSqNsIodyWDdaizZ1Ah2-2" value="Skip" style="edgeLabel;html=1;align=center;verticalAlign=middle;resizable=0;points=[];fontFamily=space mono;fontSource=https%3A%2F%2Ffonts.googleapis.com%2Fcss%3Ffamily%3Dspace%2Bmono;" parent="dSqNsIodyWDdaizZ1Ah2-1" vertex="1" connectable="0">
          <mxGeometry x="0.288" y="-1" relative="1" as="geometry">
            <mxPoint x="-9" y="-16" as="offset" />
          </mxGeometry>
        </mxCell>
        <mxCell id="dSqNsIodyWDdaizZ1Ah2-3" value="ST: ฝ่ายบัญชี&lt;br&gt;รับเอกสารจากคลังฯ &lt;br&gt;วิเคราะห์รายการค้า" style="rounded=1;whiteSpace=wrap;html=1;fontSize=12;glass=0;strokeWidth=1;shadow=0;fontFamily=space mono;fontSource=https%3A%2F%2Ffonts.googleapis.com%2Fcss%3Ffamily%3Dspace%2Bmono;" parent="1" vertex="1">
          <mxGeometry x="680" y="1010" width="200" height="50" as="geometry" />
        </mxCell>
        <mxCell id="dSqNsIodyWDdaizZ1Ah2-4" style="rounded=0;orthogonalLoop=1;jettySize=auto;html=1;endArrow=block;endFill=0;exitX=0.5;exitY=1;exitDx=0;exitDy=0;entryX=0.5;entryY=0;entryDx=0;entryDy=0;entryPerimeter=0;" parent="1" source="noZoARQSL-2DxWcedjPE-33" target="YuSDF8P-QCdf2GNEPpNd-12" edge="1">
          <mxGeometry relative="1" as="geometry">
            <mxPoint x="530" y="1100" as="sourcePoint" />
            <mxPoint x="810" y="930" as="targetPoint" />
          </mxGeometry>
        </mxCell>
        <mxCell id="dSqNsIodyWDdaizZ1Ah2-5" value="ST: ฝ่ายบัญชี&lt;br&gt;เตรียมเอกสารประกอบการทำบัญชี" style="rounded=1;whiteSpace=wrap;html=1;fontSize=12;glass=0;strokeWidth=1;shadow=0;fontFamily=space mono;fontSource=https%3A%2F%2Ffonts.googleapis.com%2Fcss%3Ffamily%3Dspace%2Bmono;" parent="1" vertex="1">
          <mxGeometry x="680" y="1100" width="200" height="50" as="geometry" />
        </mxCell>
        <UserObject label="ST: ฝ่ายบัญชี&lt;br&gt;บันทึกรายการในบัญชี: &lt;br&gt;สมุดรายวันทั่วไป" id="dSqNsIodyWDdaizZ1Ah2-6">
          <mxCell style="rounded=1;whiteSpace=wrap;html=1;fontSize=12;glass=0;strokeWidth=1;shadow=0;fontFamily=space mono;fontSource=https%3A%2F%2Ffonts.googleapis.com%2Fcss%3Ffamily%3Dspace%2Bmono;" parent="1" vertex="1">
            <mxGeometry x="680" y="1260" width="200" height="50" as="geometry" />
          </mxCell>
        </UserObject>
        <mxCell id="dSqNsIodyWDdaizZ1Ah2-7" value="มีเลขบัญชีสำหรับรายการค้า?" style="rhombus;whiteSpace=wrap;html=1;shadow=0;fontFamily=space mono;fontSize=12;align=center;strokeWidth=1;spacing=6;spacingTop=-4;fontSource=https%3A%2F%2Ffonts.googleapis.com%2Fcss%3Ffamily%3Dspace%2Bmono;" parent="1" vertex="1">
          <mxGeometry x="680" y="1340" width="200" height="50" as="geometry" />
        </mxCell>
        <mxCell id="dSqNsIodyWDdaizZ1Ah2-8" value="ST: ฝ่ายบัญชี&lt;br&gt;สร้างเลขบัญชีใหม่" style="rounded=1;whiteSpace=wrap;html=1;fontSize=12;glass=0;strokeWidth=1;shadow=0;fontFamily=space mono;fontSource=https%3A%2F%2Ffonts.googleapis.com%2Fcss%3Ffamily%3Dspace%2Bmono;" parent="1" vertex="1">
          <mxGeometry x="940" y="1340" width="200" height="50" as="geometry" />
        </mxCell>
        <mxCell id="dSqNsIodyWDdaizZ1Ah2-9" value="ST: ฝ่ายบัญชี&lt;br&gt;ส่งผ่านข้อมูล: &lt;br&gt;บัญชีแยกประเภททั่วไป" style="rounded=1;whiteSpace=wrap;html=1;fontSize=12;glass=0;strokeWidth=1;shadow=0;fontFamily=space mono;fontSource=https%3A%2F%2Ffonts.googleapis.com%2Fcss%3Ffamily%3Dspace%2Bmono;" parent="1" vertex="1">
          <mxGeometry x="680" y="1420" width="200" height="50" as="geometry" />
        </mxCell>
        <mxCell id="dSqNsIodyWDdaizZ1Ah2-11" value="ST: จนท.บัญชี (ภายนอก)&lt;br&gt;ส่งผ่านข้อมูล: งบทดลอง" style="rounded=1;whiteSpace=wrap;html=1;fontSize=12;glass=0;strokeWidth=1;shadow=0;fontFamily=space mono;fontSource=https%3A%2F%2Ffonts.googleapis.com%2Fcss%3Ffamily%3Dspace%2Bmono;" parent="1" vertex="1">
          <mxGeometry x="680" y="1500" width="200" height="50" as="geometry" />
        </mxCell>
        <mxCell id="dSqNsIodyWDdaizZ1Ah2-12" value="ST: จนท.บัญชี (ภายนอก)&lt;br&gt;ส่งผ่านข้อมูล: งบการเงิน&lt;br&gt;งบกำไรขาดทุน-งบดุล" style="rounded=1;whiteSpace=wrap;html=1;fontSize=12;glass=0;strokeWidth=1;shadow=0;fontFamily=space mono;fontSource=https%3A%2F%2Ffonts.googleapis.com%2Fcss%3Ffamily%3Dspace%2Bmono;" parent="1" vertex="1">
          <mxGeometry x="680" y="1580" width="200" height="50" as="geometry" />
        </mxCell>
        <mxCell id="dSqNsIodyWDdaizZ1Ah2-13" value="ST: จนท.บัญชี (ภายนอก)&lt;br&gt;บันทึกรายการปิดบัญชี" style="rounded=1;whiteSpace=wrap;html=1;fontSize=12;glass=0;strokeWidth=1;shadow=0;fontFamily=space mono;fontSource=https%3A%2F%2Ffonts.googleapis.com%2Fcss%3Ffamily%3Dspace%2Bmono;" parent="1" vertex="1">
          <mxGeometry x="680" y="1660" width="200" height="50" as="geometry" />
        </mxCell>
        <mxCell id="dSqNsIodyWDdaizZ1Ah2-14" value="ST: จนท.บัญชี (ภายนอก)&lt;br&gt;งบทดลองหลังปิดบัญชี" style="rounded=1;whiteSpace=wrap;html=1;fontSize=12;glass=0;strokeWidth=1;shadow=0;fontFamily=space mono;fontSource=https%3A%2F%2Ffonts.googleapis.com%2Fcss%3Ffamily%3Dspace%2Bmono;" parent="1" vertex="1">
          <mxGeometry x="680" y="1740" width="200" height="50" as="geometry" />
        </mxCell>
        <mxCell id="dSqNsIodyWDdaizZ1Ah2-15" value="ST: จนท.บัญชี (ภายนอก)&lt;br&gt;รายการปรับปรุง" style="rounded=1;whiteSpace=wrap;html=1;fontSize=12;glass=0;strokeWidth=1;shadow=0;fontFamily=space mono;fontSource=https%3A%2F%2Ffonts.googleapis.com%2Fcss%3Ffamily%3Dspace%2Bmono;" parent="1" vertex="1">
          <mxGeometry x="680" y="1820" width="200" height="50" as="geometry" />
        </mxCell>
        <mxCell id="dSqNsIodyWDdaizZ1Ah2-16" value="ST: จนท.บัญชี (ภายนอก)&lt;br&gt;งบทดลองหลังรายการปรับปรุง" style="rounded=1;whiteSpace=wrap;html=1;fontSize=12;glass=0;strokeWidth=1;shadow=0;fontFamily=space mono;fontSource=https%3A%2F%2Ffonts.googleapis.com%2Fcss%3Ffamily%3Dspace%2Bmono;" parent="1" vertex="1">
          <mxGeometry x="680" y="1900" width="200" height="50" as="geometry" />
        </mxCell>
        <mxCell id="dSqNsIodyWDdaizZ1Ah2-17" value="ST: ฝ่ายบัญชี&lt;br&gt;จบขั้นตอนการทำงาน" style="rounded=1;whiteSpace=wrap;html=1;fontSize=12;glass=0;strokeWidth=1;shadow=0;fontFamily=space mono;fontSource=https%3A%2F%2Ffonts.googleapis.com%2Fcss%3Ffamily%3Dspace%2Bmono;" parent="1" vertex="1">
          <mxGeometry x="680" y="1980" width="200" height="50" as="geometry" />
        </mxCell>
        <mxCell id="dSqNsIodyWDdaizZ1Ah2-18" style="rounded=0;orthogonalLoop=1;jettySize=auto;html=1;endArrow=block;endFill=0;entryX=0.5;entryY=0;entryDx=0;entryDy=0;exitX=0.5;exitY=1;exitDx=0;exitDy=0;" parent="1" source="dSqNsIodyWDdaizZ1Ah2-3" target="dSqNsIodyWDdaizZ1Ah2-5" edge="1">
          <mxGeometry relative="1" as="geometry">
            <mxPoint x="930" y="1080" as="sourcePoint" />
            <mxPoint x="790" y="1030" as="targetPoint" />
          </mxGeometry>
        </mxCell>
        <mxCell id="dSqNsIodyWDdaizZ1Ah2-19" style="rounded=0;orthogonalLoop=1;jettySize=auto;html=1;endArrow=block;endFill=0;entryX=0.5;entryY=0;entryDx=0;entryDy=0;exitX=0.5;exitY=1;exitDx=0;exitDy=0;entryPerimeter=0;" parent="1" source="dSqNsIodyWDdaizZ1Ah2-5" target="YuSDF8P-QCdf2GNEPpNd-4" edge="1">
          <mxGeometry relative="1" as="geometry">
            <mxPoint x="790" y="1160" as="sourcePoint" />
            <mxPoint x="790" y="1190" as="targetPoint" />
          </mxGeometry>
        </mxCell>
        <mxCell id="dSqNsIodyWDdaizZ1Ah2-20" style="rounded=0;orthogonalLoop=1;jettySize=auto;html=1;endArrow=block;endFill=0;entryX=0.5;entryY=0;entryDx=0;entryDy=0;exitX=0.5;exitY=1;exitDx=0;exitDy=0;" parent="1" source="dSqNsIodyWDdaizZ1Ah2-6" target="dSqNsIodyWDdaizZ1Ah2-7" edge="1">
          <mxGeometry relative="1" as="geometry">
            <mxPoint x="790" y="1240" as="sourcePoint" />
            <mxPoint x="790" y="1270" as="targetPoint" />
          </mxGeometry>
        </mxCell>
        <mxCell id="dSqNsIodyWDdaizZ1Ah2-21" style="rounded=0;orthogonalLoop=1;jettySize=auto;html=1;endArrow=block;endFill=0;entryX=0.5;entryY=0;entryDx=0;entryDy=0;exitX=0.5;exitY=1;exitDx=0;exitDy=0;" parent="1" source="dSqNsIodyWDdaizZ1Ah2-9" target="dSqNsIodyWDdaizZ1Ah2-11" edge="1">
          <mxGeometry relative="1" as="geometry">
            <mxPoint x="790" y="1320" as="sourcePoint" />
            <mxPoint x="790" y="1350" as="targetPoint" />
          </mxGeometry>
        </mxCell>
        <mxCell id="dSqNsIodyWDdaizZ1Ah2-22" style="rounded=0;orthogonalLoop=1;jettySize=auto;html=1;endArrow=block;endFill=0;entryX=0.5;entryY=0;entryDx=0;entryDy=0;exitX=0.5;exitY=1;exitDx=0;exitDy=0;" parent="1" source="dSqNsIodyWDdaizZ1Ah2-11" target="dSqNsIodyWDdaizZ1Ah2-12" edge="1">
          <mxGeometry relative="1" as="geometry">
            <mxPoint x="790" y="1480" as="sourcePoint" />
            <mxPoint x="790" y="1510" as="targetPoint" />
          </mxGeometry>
        </mxCell>
        <mxCell id="dSqNsIodyWDdaizZ1Ah2-23" style="rounded=0;orthogonalLoop=1;jettySize=auto;html=1;endArrow=block;endFill=0;entryX=0.5;entryY=0;entryDx=0;entryDy=0;exitX=0.5;exitY=1;exitDx=0;exitDy=0;" parent="1" source="dSqNsIodyWDdaizZ1Ah2-12" target="dSqNsIodyWDdaizZ1Ah2-13" edge="1">
          <mxGeometry relative="1" as="geometry">
            <mxPoint x="790" y="1560" as="sourcePoint" />
            <mxPoint x="790" y="1590" as="targetPoint" />
          </mxGeometry>
        </mxCell>
        <mxCell id="dSqNsIodyWDdaizZ1Ah2-24" style="rounded=0;orthogonalLoop=1;jettySize=auto;html=1;endArrow=block;endFill=0;entryX=0.5;entryY=0;entryDx=0;entryDy=0;exitX=0.5;exitY=1;exitDx=0;exitDy=0;" parent="1" source="dSqNsIodyWDdaizZ1Ah2-13" target="dSqNsIodyWDdaizZ1Ah2-14" edge="1">
          <mxGeometry relative="1" as="geometry">
            <mxPoint x="790" y="1640" as="sourcePoint" />
            <mxPoint x="790" y="1670" as="targetPoint" />
          </mxGeometry>
        </mxCell>
        <mxCell id="dSqNsIodyWDdaizZ1Ah2-25" style="rounded=0;orthogonalLoop=1;jettySize=auto;html=1;endArrow=block;endFill=0;entryX=0.5;entryY=0;entryDx=0;entryDy=0;exitX=0.5;exitY=1;exitDx=0;exitDy=0;" parent="1" source="dSqNsIodyWDdaizZ1Ah2-14" target="dSqNsIodyWDdaizZ1Ah2-15" edge="1">
          <mxGeometry relative="1" as="geometry">
            <mxPoint x="790" y="1720" as="sourcePoint" />
            <mxPoint x="790" y="1750" as="targetPoint" />
          </mxGeometry>
        </mxCell>
        <mxCell id="dSqNsIodyWDdaizZ1Ah2-26" style="rounded=0;orthogonalLoop=1;jettySize=auto;html=1;endArrow=block;endFill=0;entryX=0.5;entryY=0;entryDx=0;entryDy=0;exitX=0.5;exitY=1;exitDx=0;exitDy=0;" parent="1" source="dSqNsIodyWDdaizZ1Ah2-15" target="dSqNsIodyWDdaizZ1Ah2-16" edge="1">
          <mxGeometry relative="1" as="geometry">
            <mxPoint x="800" y="1730" as="sourcePoint" />
            <mxPoint x="800" y="1760" as="targetPoint" />
          </mxGeometry>
        </mxCell>
        <mxCell id="dSqNsIodyWDdaizZ1Ah2-27" style="rounded=0;orthogonalLoop=1;jettySize=auto;html=1;endArrow=block;endFill=0;entryX=0.5;entryY=0;entryDx=0;entryDy=0;exitX=0.5;exitY=1;exitDx=0;exitDy=0;" parent="1" source="dSqNsIodyWDdaizZ1Ah2-16" target="dSqNsIodyWDdaizZ1Ah2-17" edge="1">
          <mxGeometry relative="1" as="geometry">
            <mxPoint x="790" y="1880" as="sourcePoint" />
            <mxPoint x="790" y="1910" as="targetPoint" />
          </mxGeometry>
        </mxCell>
        <mxCell id="dSqNsIodyWDdaizZ1Ah2-28" value="No" style="rounded=0;html=1;jettySize=auto;orthogonalLoop=1;fontSize=11;endArrow=block;endFill=0;endSize=8;strokeWidth=1;shadow=0;labelBackgroundColor=none;edgeStyle=orthogonalEdgeStyle;fontFamily=space mono;fontSource=https%3A%2F%2Ffonts.googleapis.com%2Fcss%3Ffamily%3Dspace%2Bmono;entryX=0.5;entryY=0;entryDx=0;entryDy=0;exitX=0.5;exitY=1;exitDx=0;exitDy=0;" parent="1" source="dSqNsIodyWDdaizZ1Ah2-7" target="dSqNsIodyWDdaizZ1Ah2-9" edge="1">
          <mxGeometry y="20" relative="1" as="geometry">
            <mxPoint as="offset" />
            <mxPoint x="840" y="1402.7586206896551" as="sourcePoint" />
            <mxPoint x="530" y="710" as="targetPoint" />
          </mxGeometry>
        </mxCell>
        <mxCell id="dSqNsIodyWDdaizZ1Ah2-29" value="Yes" style="edgeStyle=orthogonalEdgeStyle;rounded=0;html=1;jettySize=auto;orthogonalLoop=1;fontSize=11;endArrow=block;endFill=0;endSize=8;strokeWidth=1;shadow=0;labelBackgroundColor=none;fontFamily=space mono;fontSource=https%3A%2F%2Ffonts.googleapis.com%2Fcss%3Ffamily%3Dspace%2Bmono;exitX=1;exitY=0.5;exitDx=0;exitDy=0;entryX=0;entryY=0.5;entryDx=0;entryDy=0;" parent="1" source="dSqNsIodyWDdaizZ1Ah2-7" target="dSqNsIodyWDdaizZ1Ah2-8" edge="1">
          <mxGeometry y="15" relative="1" as="geometry">
            <mxPoint as="offset" />
            <mxPoint x="810" y="495" as="targetPoint" />
            <mxPoint x="630" y="655" as="sourcePoint" />
          </mxGeometry>
        </mxCell>
        <mxCell id="dSqNsIodyWDdaizZ1Ah2-30" value="" style="edgeStyle=orthogonalEdgeStyle;rounded=0;html=1;jettySize=auto;orthogonalLoop=1;fontSize=11;endArrow=block;endFill=0;endSize=8;strokeWidth=1;shadow=0;labelBackgroundColor=none;fontFamily=space mono;fontSource=https%3A%2F%2Ffonts.googleapis.com%2Fcss%3Ffamily%3Dspace%2Bmono;exitX=0.5;exitY=0;exitDx=0;exitDy=0;entryX=1;entryY=0.5;entryDx=0;entryDy=0;" parent="1" source="dSqNsIodyWDdaizZ1Ah2-8" target="dSqNsIodyWDdaizZ1Ah2-6" edge="1">
          <mxGeometry y="15" relative="1" as="geometry">
            <mxPoint as="offset" />
            <mxPoint x="945" y="1105" as="targetPoint" />
            <mxPoint x="885" y="1105" as="sourcePoint" />
          </mxGeometry>
        </mxCell>
        <mxCell id="dSqNsIodyWDdaizZ1Ah2-31" value="เจ้าหน้าที่การเงิน" style="rounded=1;whiteSpace=wrap;html=1;fontSize=12;glass=0;strokeWidth=1;shadow=0;fontFamily=space mono;fontSource=https%3A%2F%2Ffonts.googleapis.com%2Fcss%3Ffamily%3Dspace%2Bmono;" parent="1" vertex="1">
          <mxGeometry x="680" y="480" width="200" height="40" as="geometry" />
        </mxCell>
        <mxCell id="dSqNsIodyWDdaizZ1Ah2-32" value="ST: เจ้าหน้าที่การเงิน&lt;br&gt;สรุปรายได้รายวัน" style="rounded=1;whiteSpace=wrap;html=1;fontSize=12;glass=0;strokeWidth=1;shadow=0;fontFamily=space mono;fontSource=https%3A%2F%2Ffonts.googleapis.com%2Fcss%3Ffamily%3Dspace%2Bmono;" parent="1" vertex="1">
          <mxGeometry x="680" y="554" width="200" height="50" as="geometry" />
        </mxCell>
        <mxCell id="dSqNsIodyWDdaizZ1Ah2-33" value="รายได้เงินสด?" style="rhombus;whiteSpace=wrap;html=1;shadow=0;fontFamily=space mono;fontSize=12;align=center;strokeWidth=1;spacing=6;spacingTop=-4;fontSource=https%3A%2F%2Ffonts.googleapis.com%2Fcss%3Ffamily%3Dspace%2Bmono;" parent="1" vertex="1">
          <mxGeometry x="680" y="640" width="200" height="50" as="geometry" />
        </mxCell>
        <mxCell id="dSqNsIodyWDdaizZ1Ah2-38" value="ST: เจ้าหน้าที่การเงิน&lt;br&gt;ระบบลูกหนี้: เล่ม&amp;nbsp;&lt;span style=&quot;background-color: initial;&quot;&gt;4/5&amp;nbsp;&lt;/span&gt;&lt;span style=&quot;background-color: initial;&quot;&gt;&amp;nbsp;&lt;/span&gt;" style="rounded=1;whiteSpace=wrap;html=1;fontSize=12;glass=0;strokeWidth=1;shadow=0;fontFamily=space mono;fontSource=https%3A%2F%2Ffonts.googleapis.com%2Fcss%3Ffamily%3Dspace%2Bmono;" parent="1" vertex="1">
          <mxGeometry x="950" y="640" width="200" height="50" as="geometry" />
        </mxCell>
        <mxCell id="dSqNsIodyWDdaizZ1Ah2-39" value="ST: เจ้าหน้าที่การเงิน&lt;br&gt;ระบบเงินสด/Cash: เล่ม&amp;nbsp;A/2/B/8/9" style="rounded=1;whiteSpace=wrap;html=1;fontSize=12;glass=0;strokeWidth=1;shadow=0;fontFamily=space mono;fontSource=https%3A%2F%2Ffonts.googleapis.com%2Fcss%3Ffamily%3Dspace%2Bmono;" parent="1" vertex="1">
          <mxGeometry x="680" y="724" width="200" height="50" as="geometry" />
        </mxCell>
        <mxCell id="dSqNsIodyWDdaizZ1Ah2-42" value="No" style="edgeStyle=orthogonalEdgeStyle;rounded=0;html=1;jettySize=auto;orthogonalLoop=1;fontSize=11;endArrow=block;endFill=0;endSize=8;strokeWidth=1;shadow=0;labelBackgroundColor=none;fontFamily=space mono;fontSource=https%3A%2F%2Ffonts.googleapis.com%2Fcss%3Ffamily%3Dspace%2Bmono;exitX=1;exitY=0.5;exitDx=0;exitDy=0;" parent="1" source="dSqNsIodyWDdaizZ1Ah2-33" target="dSqNsIodyWDdaizZ1Ah2-38" edge="1">
          <mxGeometry x="-0.1429" y="15" relative="1" as="geometry">
            <mxPoint as="offset" />
            <mxPoint x="1120" y="604" as="targetPoint" />
            <mxPoint x="940" y="764" as="sourcePoint" />
          </mxGeometry>
        </mxCell>
        <mxCell id="dSqNsIodyWDdaizZ1Ah2-44" style="rounded=0;orthogonalLoop=1;jettySize=auto;html=1;endArrow=block;endFill=0;exitX=0.5;exitY=1;exitDx=0;exitDy=0;entryX=0.5;entryY=0;entryDx=0;entryDy=0;" parent="1" source="dSqNsIodyWDdaizZ1Ah2-39" target="noZoARQSL-2DxWcedjPE-33" edge="1">
          <mxGeometry relative="1" as="geometry">
            <mxPoint x="540" y="790" as="sourcePoint" />
            <mxPoint x="780" y="735" as="targetPoint" />
          </mxGeometry>
        </mxCell>
        <mxCell id="dSqNsIodyWDdaizZ1Ah2-45" style="rounded=0;orthogonalLoop=1;jettySize=auto;html=1;endArrow=block;endFill=0;exitX=0.5;exitY=1;exitDx=0;exitDy=0;entryX=0.5;entryY=0;entryDx=0;entryDy=0;" parent="1" source="dSqNsIodyWDdaizZ1Ah2-32" target="dSqNsIodyWDdaizZ1Ah2-33" edge="1">
          <mxGeometry relative="1" as="geometry">
            <mxPoint x="790" y="784" as="sourcePoint" />
            <mxPoint x="790" y="824" as="targetPoint" />
          </mxGeometry>
        </mxCell>
        <mxCell id="dSqNsIodyWDdaizZ1Ah2-46" value="Yes" style="rounded=0;html=1;jettySize=auto;orthogonalLoop=1;fontSize=11;endArrow=block;endFill=0;endSize=8;strokeWidth=1;shadow=0;labelBackgroundColor=none;edgeStyle=orthogonalEdgeStyle;fontFamily=space mono;fontSource=https%3A%2F%2Ffonts.googleapis.com%2Fcss%3Ffamily%3Dspace%2Bmono;exitX=0.5;exitY=1;exitDx=0;exitDy=0;entryX=0.5;entryY=0;entryDx=0;entryDy=0;" parent="1" source="dSqNsIodyWDdaizZ1Ah2-33" target="dSqNsIodyWDdaizZ1Ah2-39" edge="1">
          <mxGeometry y="20" relative="1" as="geometry">
            <mxPoint as="offset" />
            <mxPoint x="770" y="702.4285714285714" as="sourcePoint" />
            <mxPoint x="440" y="364" as="targetPoint" />
          </mxGeometry>
        </mxCell>
        <mxCell id="dSqNsIodyWDdaizZ1Ah2-47" style="rounded=0;orthogonalLoop=1;jettySize=auto;html=1;endArrow=block;endFill=0;exitX=0.5;exitY=1;exitDx=0;exitDy=0;entryX=0.5;entryY=0;entryDx=0;entryDy=0;" parent="1" source="dSqNsIodyWDdaizZ1Ah2-31" target="dSqNsIodyWDdaizZ1Ah2-32" edge="1">
          <mxGeometry relative="1" as="geometry">
            <mxPoint x="790" y="614" as="sourcePoint" />
            <mxPoint x="790" y="650" as="targetPoint" />
          </mxGeometry>
        </mxCell>
        <mxCell id="dSqNsIodyWDdaizZ1Ah2-48" style="rounded=0;orthogonalLoop=1;jettySize=auto;html=1;endArrow=block;endFill=0;entryX=0.5;entryY=0;entryDx=0;entryDy=0;edgeStyle=orthogonalEdgeStyle;exitX=0.5;exitY=1;exitDx=0;exitDy=0;" parent="1" source="dSqNsIodyWDdaizZ1Ah2-38" target="YuSDF8P-QCdf2GNEPpNd-3" edge="1">
          <mxGeometry relative="1" as="geometry">
            <mxPoint x="1190" y="603" as="sourcePoint" />
            <mxPoint x="790" y="762" as="targetPoint" />
          </mxGeometry>
        </mxCell>
        <mxCell id="YuSDF8P-QCdf2GNEPpNd-1" value="ST: ฝ่ายบัญชี (ลูกหนี้)&lt;br&gt;ตั้งลูกหนี้การค้า" style="rounded=1;whiteSpace=wrap;html=1;fontSize=12;glass=0;strokeWidth=1;shadow=0;fontFamily=space mono;fontSource=https%3A%2F%2Ffonts.googleapis.com%2Fcss%3Ffamily%3Dspace%2Bmono;" parent="1" vertex="1">
          <mxGeometry x="950" y="810" width="200" height="50" as="geometry" />
        </mxCell>
        <mxCell id="YuSDF8P-QCdf2GNEPpNd-3" value="ข้อมูลรายการการค้า&lt;br&gt;ลูกหนี้การค้า" style="rounded=1;whiteSpace=wrap;html=1;fontSize=12;glass=0;strokeWidth=1;shadow=0;fontFamily=space mono;fontSource=https%3A%2F%2Ffonts.googleapis.com%2Fcss%3Ffamily%3Dspace%2Bmono;" parent="1" vertex="1">
          <mxGeometry x="950" y="730" width="200" height="50" as="geometry" />
        </mxCell>
        <mxCell id="YuSDF8P-QCdf2GNEPpNd-4" value="&lt;font data-font-src=&quot;https://fonts.googleapis.com/css?family=space+mono&quot; face=&quot;space mono&quot;&gt;2&lt;/font&gt;" style="strokeWidth=2;html=1;shape=mxgraph.flowchart.start_2;whiteSpace=wrap;" parent="1" vertex="1">
          <mxGeometry x="760" y="1190" width="40" height="40" as="geometry" />
        </mxCell>
        <mxCell id="YuSDF8P-QCdf2GNEPpNd-5" value="ข้อมูลรายการการค้า &lt;br&gt;เจ้าหนี้การค้า" style="rounded=1;whiteSpace=wrap;html=1;fontSize=12;glass=0;strokeWidth=1;shadow=0;fontFamily=space mono;fontSource=https%3A%2F%2Ffonts.googleapis.com%2Fcss%3Ffamily%3Dspace%2Bmono;" parent="1" vertex="1">
          <mxGeometry x="425" y="730" width="200" height="50" as="geometry" />
        </mxCell>
        <mxCell id="YuSDF8P-QCdf2GNEPpNd-6" value="ST: ฝ่ายบัญชี (ลูกหนี้)&lt;br&gt;พิมพ์รายการหนี้ที่ถึงกำหนดชำระ" style="rounded=1;whiteSpace=wrap;html=1;fontSize=12;glass=0;strokeWidth=1;shadow=0;fontFamily=space mono;fontSource=https%3A%2F%2Ffonts.googleapis.com%2Fcss%3Ffamily%3Dspace%2Bmono;" parent="1" vertex="1">
          <mxGeometry x="950" y="890" width="200" height="50" as="geometry" />
        </mxCell>
        <mxCell id="YuSDF8P-QCdf2GNEPpNd-7" value="ST: ฝ่ายบัญชี (ลูกหนี้)&lt;br&gt;จัดทำใบวางบิล" style="rounded=1;whiteSpace=wrap;html=1;fontSize=12;glass=0;strokeWidth=1;shadow=0;fontFamily=space mono;fontSource=https%3A%2F%2Ffonts.googleapis.com%2Fcss%3Ffamily%3Dspace%2Bmono;" parent="1" vertex="1">
          <mxGeometry x="950" y="970" width="200" height="50" as="geometry" />
        </mxCell>
        <mxCell id="YuSDF8P-QCdf2GNEPpNd-8" value="ST: ฝ่ายบัญชี (ลูกหนี้)&lt;br&gt;เมื่อลูกหนี้ชำระฯ: บันทึกใบเสร็จรับเงิน" style="rounded=1;whiteSpace=wrap;html=1;fontSize=12;glass=0;strokeWidth=1;shadow=0;fontFamily=space mono;fontSource=https%3A%2F%2Ffonts.googleapis.com%2Fcss%3Ffamily%3Dspace%2Bmono;" parent="1" vertex="1">
          <mxGeometry x="950" y="1050" width="200" height="50" as="geometry" />
        </mxCell>
        <mxCell id="YuSDF8P-QCdf2GNEPpNd-9" value="ใบเสร็จรับเงิน, ใบสำคัญรับ, รับเช็ค" style="rounded=1;whiteSpace=wrap;html=1;fontSize=12;glass=0;strokeWidth=1;shadow=0;fontFamily=space mono;fontSource=https%3A%2F%2Ffonts.googleapis.com%2Fcss%3Ffamily%3Dspace%2Bmono;" parent="1" vertex="1">
          <mxGeometry x="950" y="1130" width="200" height="50" as="geometry" />
        </mxCell>
        <mxCell id="YuSDF8P-QCdf2GNEPpNd-10" style="rounded=0;orthogonalLoop=1;jettySize=auto;html=1;endArrow=block;endFill=0;entryX=0.5;entryY=0;entryDx=0;entryDy=0;exitX=0.5;exitY=1;exitDx=0;exitDy=0;exitPerimeter=0;" parent="1" source="YuSDF8P-QCdf2GNEPpNd-4" target="dSqNsIodyWDdaizZ1Ah2-6" edge="1">
          <mxGeometry relative="1" as="geometry">
            <mxPoint x="790" y="1160" as="sourcePoint" />
            <mxPoint x="790" y="1190" as="targetPoint" />
          </mxGeometry>
        </mxCell>
        <mxCell id="YuSDF8P-QCdf2GNEPpNd-12" value="&lt;font data-font-src=&quot;https://fonts.googleapis.com/css?family=space+mono&quot; face=&quot;space mono&quot;&gt;2&lt;/font&gt;" style="strokeWidth=2;html=1;shape=mxgraph.flowchart.start_2;whiteSpace=wrap;" parent="1" vertex="1">
          <mxGeometry x="760" y="940" width="40" height="40" as="geometry" />
        </mxCell>
        <mxCell id="YuSDF8P-QCdf2GNEPpNd-14" style="rounded=0;orthogonalLoop=1;jettySize=auto;html=1;endArrow=block;endFill=0;exitX=0.5;exitY=1;exitDx=0;exitDy=0;entryX=0.5;entryY=0;entryDx=0;entryDy=0;exitPerimeter=0;" parent="1" source="YuSDF8P-QCdf2GNEPpNd-12" target="dSqNsIodyWDdaizZ1Ah2-3" edge="1">
          <mxGeometry relative="1" as="geometry">
            <mxPoint x="790" y="890" as="sourcePoint" />
            <mxPoint x="790" y="930" as="targetPoint" />
          </mxGeometry>
        </mxCell>
        <mxCell id="YuSDF8P-QCdf2GNEPpNd-15" style="rounded=0;orthogonalLoop=1;jettySize=auto;html=1;endArrow=block;endFill=0;exitX=0;exitY=0.5;exitDx=0;exitDy=0;entryX=1;entryY=0.5;entryDx=0;entryDy=0;entryPerimeter=0;edgeStyle=orthogonalEdgeStyle;" parent="1" source="YuSDF8P-QCdf2GNEPpNd-9" target="YuSDF8P-QCdf2GNEPpNd-12" edge="1">
          <mxGeometry relative="1" as="geometry">
            <mxPoint x="790" y="910" as="sourcePoint" />
            <mxPoint x="810" y="950" as="targetPoint" />
            <Array as="points">
              <mxPoint x="920" y="1155" />
              <mxPoint x="920" y="960" />
            </Array>
          </mxGeometry>
        </mxCell>
        <mxCell id="YuSDF8P-QCdf2GNEPpNd-16" style="rounded=0;orthogonalLoop=1;jettySize=auto;html=1;endArrow=block;endFill=0;exitX=0.5;exitY=1;exitDx=0;exitDy=0;entryX=0.5;entryY=0;entryDx=0;entryDy=0;" parent="1" source="YuSDF8P-QCdf2GNEPpNd-3" target="YuSDF8P-QCdf2GNEPpNd-1" edge="1">
          <mxGeometry relative="1" as="geometry">
            <mxPoint x="790" y="942" as="sourcePoint" />
            <mxPoint x="1050" y="742" as="targetPoint" />
          </mxGeometry>
        </mxCell>
        <mxCell id="YuSDF8P-QCdf2GNEPpNd-17" style="rounded=0;orthogonalLoop=1;jettySize=auto;html=1;endArrow=block;endFill=0;exitX=0.5;exitY=1;exitDx=0;exitDy=0;entryX=0.5;entryY=0;entryDx=0;entryDy=0;" parent="1" source="YuSDF8P-QCdf2GNEPpNd-1" target="YuSDF8P-QCdf2GNEPpNd-6" edge="1">
          <mxGeometry relative="1" as="geometry">
            <mxPoint x="1060" y="743" as="sourcePoint" />
            <mxPoint x="1060" y="783" as="targetPoint" />
          </mxGeometry>
        </mxCell>
        <mxCell id="YuSDF8P-QCdf2GNEPpNd-18" style="rounded=0;orthogonalLoop=1;jettySize=auto;html=1;endArrow=block;endFill=0;exitX=0.5;exitY=1;exitDx=0;exitDy=0;entryX=0.5;entryY=0;entryDx=0;entryDy=0;" parent="1" source="YuSDF8P-QCdf2GNEPpNd-6" target="YuSDF8P-QCdf2GNEPpNd-7" edge="1">
          <mxGeometry relative="1" as="geometry">
            <mxPoint x="1060" y="833" as="sourcePoint" />
            <mxPoint x="1060" y="873" as="targetPoint" />
          </mxGeometry>
        </mxCell>
        <mxCell id="YuSDF8P-QCdf2GNEPpNd-19" style="rounded=0;orthogonalLoop=1;jettySize=auto;html=1;endArrow=block;endFill=0;exitX=0.5;exitY=1;exitDx=0;exitDy=0;entryX=0.5;entryY=0;entryDx=0;entryDy=0;" parent="1" source="YuSDF8P-QCdf2GNEPpNd-7" target="YuSDF8P-QCdf2GNEPpNd-8" edge="1">
          <mxGeometry relative="1" as="geometry">
            <mxPoint x="1060" y="923" as="sourcePoint" />
            <mxPoint x="1060" y="962" as="targetPoint" />
          </mxGeometry>
        </mxCell>
        <mxCell id="YuSDF8P-QCdf2GNEPpNd-20" style="rounded=0;orthogonalLoop=1;jettySize=auto;html=1;endArrow=block;endFill=0;exitX=0.5;exitY=1;exitDx=0;exitDy=0;entryX=0.5;entryY=0;entryDx=0;entryDy=0;" parent="1" source="YuSDF8P-QCdf2GNEPpNd-8" target="YuSDF8P-QCdf2GNEPpNd-9" edge="1">
          <mxGeometry relative="1" as="geometry">
            <mxPoint x="1060" y="980" as="sourcePoint" />
            <mxPoint x="1060" y="1020" as="targetPoint" />
          </mxGeometry>
        </mxCell>
        <mxCell id="YuSDF8P-QCdf2GNEPpNd-21" value="ST: ฝ่ายบัญชี (เจ้าหนี้)&lt;br&gt;ตั้งเจ้าหนี้การค้า" style="rounded=1;whiteSpace=wrap;html=1;fontSize=12;glass=0;strokeWidth=1;shadow=0;fontFamily=space mono;fontSource=https%3A%2F%2Ffonts.googleapis.com%2Fcss%3Ffamily%3Dspace%2Bmono;" parent="1" vertex="1">
          <mxGeometry x="425" y="810" width="200" height="50" as="geometry" />
        </mxCell>
        <mxCell id="YuSDF8P-QCdf2GNEPpNd-22" value="ST: ฝ่ายบัญชี (เจ้าหนี้)&lt;br&gt;พิมพ์รายการหนี้ที่ถึงกำหนดชำระ" style="rounded=1;whiteSpace=wrap;html=1;fontSize=12;glass=0;strokeWidth=1;shadow=0;fontFamily=space mono;fontSource=https%3A%2F%2Ffonts.googleapis.com%2Fcss%3Ffamily%3Dspace%2Bmono;" parent="1" vertex="1">
          <mxGeometry x="425" y="890" width="200" height="50" as="geometry" />
        </mxCell>
        <mxCell id="YuSDF8P-QCdf2GNEPpNd-23" value="ST: ฝ่ายบัญชี (เจ้าหนี้)&lt;br&gt;ขออนุมัติสั่งจ่ายเช็คและทำเช็คจ่าบ" style="rounded=1;whiteSpace=wrap;html=1;fontSize=12;glass=0;strokeWidth=1;shadow=0;fontFamily=space mono;fontSource=https%3A%2F%2Ffonts.googleapis.com%2Fcss%3Ffamily%3Dspace%2Bmono;" parent="1" vertex="1">
          <mxGeometry x="425" y="970" width="200" height="50" as="geometry" />
        </mxCell>
        <mxCell id="YuSDF8P-QCdf2GNEPpNd-24" value="ST: ฝ่ายบัญชี (เจ้าหนี้)&lt;br&gt;เมื่อจ่ายชำระฯ: บันทึกรายการ..." style="rounded=1;whiteSpace=wrap;html=1;fontSize=12;glass=0;strokeWidth=1;shadow=0;fontFamily=space mono;fontSource=https%3A%2F%2Ffonts.googleapis.com%2Fcss%3Ffamily%3Dspace%2Bmono;" parent="1" vertex="1">
          <mxGeometry x="425" y="1050" width="200" height="50" as="geometry" />
        </mxCell>
        <mxCell id="YuSDF8P-QCdf2GNEPpNd-25" value="ใบสำคัญจ่าย, ใบหักภาษี ณ ที่จ่าย, จ่ายเช็ค" style="rounded=1;whiteSpace=wrap;html=1;fontSize=12;glass=0;strokeWidth=1;shadow=0;fontFamily=space mono;fontSource=https%3A%2F%2Ffonts.googleapis.com%2Fcss%3Ffamily%3Dspace%2Bmono;" parent="1" vertex="1">
          <mxGeometry x="425" y="1130" width="200" height="50" as="geometry" />
        </mxCell>
        <mxCell id="YuSDF8P-QCdf2GNEPpNd-26" style="rounded=0;orthogonalLoop=1;jettySize=auto;html=1;endArrow=block;endFill=0;exitX=0.5;exitY=1;exitDx=0;exitDy=0;entryX=0.5;entryY=0;entryDx=0;entryDy=0;" parent="1" source="YuSDF8P-QCdf2GNEPpNd-21" target="YuSDF8P-QCdf2GNEPpNd-22" edge="1">
          <mxGeometry relative="1" as="geometry">
            <mxPoint x="535" y="780" as="sourcePoint" />
            <mxPoint x="535" y="820" as="targetPoint" />
          </mxGeometry>
        </mxCell>
        <mxCell id="YuSDF8P-QCdf2GNEPpNd-27" style="rounded=0;orthogonalLoop=1;jettySize=auto;html=1;endArrow=block;endFill=0;exitX=0.5;exitY=1;exitDx=0;exitDy=0;entryX=0.5;entryY=0;entryDx=0;entryDy=0;" parent="1" source="YuSDF8P-QCdf2GNEPpNd-22" target="YuSDF8P-QCdf2GNEPpNd-23" edge="1">
          <mxGeometry relative="1" as="geometry">
            <mxPoint x="535" y="870" as="sourcePoint" />
            <mxPoint x="535" y="910" as="targetPoint" />
          </mxGeometry>
        </mxCell>
        <mxCell id="YuSDF8P-QCdf2GNEPpNd-28" style="rounded=0;orthogonalLoop=1;jettySize=auto;html=1;endArrow=block;endFill=0;exitX=0.5;exitY=1;exitDx=0;exitDy=0;entryX=0.5;entryY=0;entryDx=0;entryDy=0;" parent="1" source="YuSDF8P-QCdf2GNEPpNd-23" target="YuSDF8P-QCdf2GNEPpNd-24" edge="1">
          <mxGeometry relative="1" as="geometry">
            <mxPoint x="535" y="960" as="sourcePoint" />
            <mxPoint x="535" y="999" as="targetPoint" />
          </mxGeometry>
        </mxCell>
        <mxCell id="YuSDF8P-QCdf2GNEPpNd-29" style="rounded=0;orthogonalLoop=1;jettySize=auto;html=1;endArrow=block;endFill=0;exitX=0.5;exitY=1;exitDx=0;exitDy=0;entryX=0.5;entryY=0;entryDx=0;entryDy=0;" parent="1" source="YuSDF8P-QCdf2GNEPpNd-24" target="YuSDF8P-QCdf2GNEPpNd-25" edge="1">
          <mxGeometry relative="1" as="geometry">
            <mxPoint x="535" y="1049" as="sourcePoint" />
            <mxPoint x="535" y="1089" as="targetPoint" />
          </mxGeometry>
        </mxCell>
        <mxCell id="YuSDF8P-QCdf2GNEPpNd-36" style="rounded=0;orthogonalLoop=1;jettySize=auto;html=1;endArrow=block;endFill=0;exitX=0.5;exitY=1;exitDx=0;exitDy=0;entryX=0.5;entryY=0;entryDx=0;entryDy=0;" parent="1" source="YuSDF8P-QCdf2GNEPpNd-5" target="YuSDF8P-QCdf2GNEPpNd-21" edge="1">
          <mxGeometry relative="1" as="geometry">
            <mxPoint x="535" y="870" as="sourcePoint" />
            <mxPoint x="535" y="900" as="targetPoint" />
          </mxGeometry>
        </mxCell>
        <mxCell id="YuSDF8P-QCdf2GNEPpNd-37" style="rounded=0;orthogonalLoop=1;jettySize=auto;html=1;endArrow=block;endFill=0;exitX=1;exitY=0.5;exitDx=0;exitDy=0;entryX=0;entryY=0.5;entryDx=0;entryDy=0;entryPerimeter=0;edgeStyle=orthogonalEdgeStyle;" parent="1" source="YuSDF8P-QCdf2GNEPpNd-25" target="YuSDF8P-QCdf2GNEPpNd-12" edge="1">
          <mxGeometry relative="1" as="geometry">
            <mxPoint x="960" y="1165" as="sourcePoint" />
            <mxPoint x="810" y="970" as="targetPoint" />
            <Array as="points">
              <mxPoint x="650" y="1155" />
              <mxPoint x="650" y="960" />
            </Array>
          </mxGeometry>
        </mxCell>
        <mxCell id="8IA-_BUIFNt-mV_9Ikeo-1" value="&lt;span style=&quot;background-color: rgb(255, 252, 253);&quot;&gt;&lt;font color=&quot;#ff0000&quot;&gt;การลัดขั้นตอนของ รพ.รัชดา&lt;/font&gt;&lt;/span&gt;" style="swimlane;whiteSpace=wrap;html=1;startSize=23;fontFamily=space mono;fontSource=https%3A%2F%2Ffonts.googleapis.com%2Fcss%3Ffamily%3Dspace%2Bmono;" vertex="1" parent="1">
          <mxGeometry x="415" y="490" width="220" height="170" as="geometry" />
        </mxCell>
        <mxCell id="8IA-_BUIFNt-mV_9Ikeo-4" value="&lt;div style=&quot;&quot;&gt;&lt;span style=&quot;font-family: &amp;quot;space mono&amp;quot;; background-color: initial;&quot;&gt;ทั้งคลังพัสดุและคลังยากลางไม่ได้&lt;/span&gt;&lt;/div&gt;&lt;font data-font-src=&quot;https://fonts.googleapis.com/css?family=space+mono&quot; face=&quot;space mono&quot;&gt;&lt;div style=&quot;&quot;&gt;&lt;span style=&quot;background-color: initial;&quot;&gt;ทำตามที่ระบบ DrComBI วางไว้&lt;/span&gt;&lt;/div&gt;&lt;div style=&quot;&quot;&gt;&lt;span style=&quot;background-color: initial;&quot;&gt;จะตัดตอนไปที่สั่งซื้อยาและพัสดุจาก&amp;nbsp;&lt;/span&gt;&lt;/div&gt;&lt;div style=&quot;&quot;&gt;&lt;span style=&quot;background-color: initial;&quot;&gt;Vender เลย (ไม่ออก PR+PO)&lt;/span&gt;&lt;/div&gt;&lt;div style=&quot;&quot;&gt;&lt;span style=&quot;background-color: initial;&quot;&gt;จะตรวจรับสินค้าจากใบกำกับฯ เข้าสู่คลัง&lt;/span&gt;&lt;/div&gt;&lt;div style=&quot;&quot;&gt;.&lt;/div&gt;&lt;div style=&quot;&quot;&gt;จากนั้นนำใบส่งของ, ใบกำกับฯ,&amp;nbsp;&lt;/div&gt;&lt;div style=&quot;&quot;&gt;หรือใบเสร็จฯ ส่งให้ฝ่ายบัญชีต่อไป&lt;/div&gt;&lt;/font&gt;" style="text;html=1;align=center;verticalAlign=top;resizable=0;points=[];autosize=1;strokeColor=none;fillColor=none;fontColor=#FF0000;" vertex="1" parent="8IA-_BUIFNt-mV_9Ikeo-1">
          <mxGeometry y="30" width="220" height="130" as="geometry" />
        </mxCell>
        <mxCell id="8IA-_BUIFNt-mV_9Ikeo-5" style="edgeStyle=orthogonalEdgeStyle;rounded=0;orthogonalLoop=1;jettySize=auto;html=1;endArrow=block;endFill=0;exitX=0.5;exitY=1;exitDx=0;exitDy=0;dashed=1;entryX=0.5;entryY=0;entryDx=0;entryDy=0;" edge="1" parent="1" source="8IA-_BUIFNt-mV_9Ikeo-1" target="YuSDF8P-QCdf2GNEPpNd-5">
          <mxGeometry relative="1" as="geometry">
            <mxPoint x="370" y="765" as="sourcePoint" />
            <mxPoint x="435" y="765" as="targetPoint" />
            <Array as="points" />
          </mxGeometry>
        </mxCell>
        <mxCell id="8IA-_BUIFNt-mV_9Ikeo-6" value="Skip" style="edgeLabel;html=1;align=center;verticalAlign=middle;resizable=0;points=[];fontFamily=space mono;fontSource=https%3A%2F%2Ffonts.googleapis.com%2Fcss%3Ffamily%3Dspace%2Bmono;" vertex="1" connectable="0" parent="8IA-_BUIFNt-mV_9Ikeo-5">
          <mxGeometry x="0.288" y="-1" relative="1" as="geometry">
            <mxPoint x="-24" y="-15" as="offset" />
          </mxGeometry>
        </mxCell>
        <mxCell id="SQz1md8h2ybaZT6oVtsN-1" value="Account Form" style="swimlane;fontStyle=0;childLayout=stackLayout;horizontal=1;startSize=30;horizontalStack=0;resizeParent=1;resizeParentMax=0;resizeLast=0;collapsible=1;marginBottom=0;whiteSpace=wrap;html=1;fontFamily=space mono;fontSource=https%3A%2F%2Ffonts.googleapis.com%2Fcss%3Ffamily%3Dspace%2Bmono;fontSize=12;" vertex="1" parent="1">
          <mxGeometry x="425" y="1260" width="140" height="210" as="geometry" />
        </mxCell>
        <UserObject label="ผังบัญชี" linkTarget="_blank" link="https://1drv.ms/b/s!Aid6FplhSANKjFcoNW8Llf5ceU5N?e=D4pdmF" id="SQz1md8h2ybaZT6oVtsN-2">
          <mxCell style="text;strokeColor=none;fillColor=none;align=left;verticalAlign=middle;spacingLeft=4;spacingRight=4;overflow=hidden;points=[[0,0.5],[1,0.5]];portConstraint=eastwest;rotatable=0;whiteSpace=wrap;html=1;fontFamily=space mono;fontSource=https%3A%2F%2Ffonts.googleapis.com%2Fcss%3Ffamily%3Dspace%2Bmono;fontSize=12;" vertex="1" parent="SQz1md8h2ybaZT6oVtsN-1">
            <mxGeometry y="30" width="140" height="30" as="geometry" />
          </mxCell>
        </UserObject>
        <UserObject label="สมุดรายวันทั่วไป" link="https://1drv.ms/b/s!Aid6FplhSANKjFjOjBPwEIhQccKQ?e=APesl4" linkTarget="_blank" id="SQz1md8h2ybaZT6oVtsN-3">
          <mxCell style="text;strokeColor=none;fillColor=none;align=left;verticalAlign=middle;spacingLeft=4;spacingRight=4;overflow=hidden;points=[[0,0.5],[1,0.5]];portConstraint=eastwest;rotatable=0;whiteSpace=wrap;html=1;fontFamily=space mono;fontSource=https%3A%2F%2Ffonts.googleapis.com%2Fcss%3Ffamily%3Dspace%2Bmono;fontSize=12;" vertex="1" parent="SQz1md8h2ybaZT6oVtsN-1">
            <mxGeometry y="60" width="140" height="30" as="geometry" />
          </mxCell>
        </UserObject>
        <UserObject label="บัญชีแยกประเภท" link="https://1drv.ms/b/s!Aid6FplhSANKjFkufs3tiLDxLaDY?e=0t3v3t" linkTarget="_blank" id="SQz1md8h2ybaZT6oVtsN-4">
          <mxCell style="text;strokeColor=none;fillColor=none;align=left;verticalAlign=middle;spacingLeft=4;spacingRight=4;overflow=hidden;points=[[0,0.5],[1,0.5]];portConstraint=eastwest;rotatable=0;whiteSpace=wrap;html=1;fontFamily=space mono;fontSource=https%3A%2F%2Ffonts.googleapis.com%2Fcss%3Ffamily%3Dspace%2Bmono;fontSize=12;" vertex="1" parent="SQz1md8h2ybaZT6oVtsN-1">
            <mxGeometry y="90" width="140" height="30" as="geometry" />
          </mxCell>
        </UserObject>
        <UserObject label="งบทดลอง" link="https://1drv.ms/b/s!Aid6FplhSANKjFpz8-AvZv76sb9D?e=g4sFDq" linkTarget="_blank" id="SQz1md8h2ybaZT6oVtsN-5">
          <mxCell style="text;strokeColor=none;fillColor=none;align=left;verticalAlign=middle;spacingLeft=4;spacingRight=4;overflow=hidden;points=[[0,0.5],[1,0.5]];portConstraint=eastwest;rotatable=0;whiteSpace=wrap;html=1;fontFamily=space mono;fontSource=https%3A%2F%2Ffonts.googleapis.com%2Fcss%3Ffamily%3Dspace%2Bmono;fontSize=12;" vertex="1" parent="SQz1md8h2ybaZT6oVtsN-1">
            <mxGeometry y="120" width="140" height="30" as="geometry" />
          </mxCell>
        </UserObject>
        <UserObject label="งบดุล" link="https://1drv.ms/b/s!Aid6FplhSANKjFud1z5GJzlOzzcH?e=DqGnsT" linkTarget="_blank" id="SQz1md8h2ybaZT6oVtsN-6">
          <mxCell style="text;strokeColor=none;fillColor=none;align=left;verticalAlign=middle;spacingLeft=4;spacingRight=4;overflow=hidden;points=[[0,0.5],[1,0.5]];portConstraint=eastwest;rotatable=0;whiteSpace=wrap;html=1;fontFamily=space mono;fontSource=https%3A%2F%2Ffonts.googleapis.com%2Fcss%3Ffamily%3Dspace%2Bmono;fontSize=12;" vertex="1" parent="SQz1md8h2ybaZT6oVtsN-1">
            <mxGeometry y="150" width="140" height="30" as="geometry" />
          </mxCell>
        </UserObject>
        <UserObject label="บัญชีซื้อ" link="https://1drv.ms/b/s!Aid6FplhSANKjFxbU6O28q3ho8pt?e=qyPOFT" linkTarget="_blank" id="SQz1md8h2ybaZT6oVtsN-7">
          <mxCell style="text;strokeColor=none;fillColor=none;align=left;verticalAlign=middle;spacingLeft=4;spacingRight=4;overflow=hidden;points=[[0,0.5],[1,0.5]];portConstraint=eastwest;rotatable=0;whiteSpace=wrap;html=1;fontFamily=space mono;fontSource=https%3A%2F%2Ffonts.googleapis.com%2Fcss%3Ffamily%3Dspace%2Bmono;fontSize=12;" vertex="1" parent="SQz1md8h2ybaZT6oVtsN-1">
            <mxGeometry y="180" width="140" height="30" as="geometry" />
          </mxCell>
        </UserObject>
        <mxCell id="SQz1md8h2ybaZT6oVtsN-12" value="" style="edgeStyle=orthogonalEdgeStyle;rounded=0;html=1;jettySize=auto;orthogonalLoop=1;fontSize=11;endArrow=block;endFill=0;endSize=8;strokeWidth=1;shadow=0;labelBackgroundColor=none;fontFamily=space mono;fontSource=https%3A%2F%2Ffonts.googleapis.com%2Fcss%3Ffamily%3Dspace%2Bmono;entryX=0;entryY=0.5;entryDx=0;entryDy=0;exitX=0.5;exitY=0;exitDx=0;exitDy=0;entryPerimeter=0;" edge="1" parent="1" source="SQz1md8h2ybaZT6oVtsN-1" target="YuSDF8P-QCdf2GNEPpNd-4">
          <mxGeometry y="15" relative="1" as="geometry">
            <mxPoint as="offset" />
            <mxPoint x="890" y="1295" as="targetPoint" />
            <mxPoint x="1050" y="1350" as="sourcePoint" />
          </mxGeometry>
        </mxCell>
        <mxCell id="SQz1md8h2ybaZT6oVtsN-13" style="edgeStyle=orthogonalEdgeStyle;rounded=0;orthogonalLoop=1;jettySize=auto;html=1;endArrow=block;endFill=0;exitX=1;exitY=0.5;exitDx=0;exitDy=0;dashed=1;entryX=0;entryY=0.5;entryDx=0;entryDy=0;fillColor=#d80073;strokeColor=#A50040;fontColor=#CC0066;" edge="1" parent="1" source="SQz1md8h2ybaZT6oVtsN-3" target="dSqNsIodyWDdaizZ1Ah2-6">
          <mxGeometry relative="1" as="geometry">
            <mxPoint x="620" y="1310" as="sourcePoint" />
            <mxPoint x="620" y="1380" as="targetPoint" />
            <Array as="points" />
          </mxGeometry>
        </mxCell>
        <mxCell id="SQz1md8h2ybaZT6oVtsN-14" value="Docs" style="edgeLabel;html=1;align=center;verticalAlign=middle;resizable=0;points=[];fontFamily=space mono;fontSource=https%3A%2F%2Ffonts.googleapis.com%2Fcss%3Ffamily%3Dspace%2Bmono;fontColor=#FF0080;" vertex="1" connectable="0" parent="SQz1md8h2ybaZT6oVtsN-13">
          <mxGeometry x="0.288" y="-1" relative="1" as="geometry">
            <mxPoint x="-24" y="24" as="offset" />
          </mxGeometry>
        </mxCell>
      </root>
    </mxGraphModel>
  </diagram>
</mxfile>
